<?xml version="1.0" encoding="UTF-8" standalone="no"?>
<!-- Created with Inkscape (http://www.inkscape.org/) -->

<svg
   xmlns:dc="http://purl.org/dc/elements/1.1/"
   xmlns:cc="http://creativecommons.org/ns#"
   xmlns:rdf="http://www.w3.org/1999/02/22-rdf-syntax-ns#"
   xmlns:svg="http://www.w3.org/2000/svg"
   xmlns="http://www.w3.org/2000/svg"
   xmlns:sodipodi="http://sodipodi.sourceforge.net/DTD/sodipodi-0.dtd"
   xmlns:inkscape="http://www.inkscape.org/namespaces/inkscape"
   width="210mm"
   height="297mm"
   viewBox="0 0 744.09448819 1052.3622047"
   id="svg2"
   version="1.1"
   inkscape:version="0.91 r13725"
   sodipodi:docname="18755 Taco.svg">
  <defs
     id="defs4" />
  <sodipodi:namedview
     id="base"
     pagecolor="#ffffff"
     bordercolor="#666666"
     borderopacity="1.0"
     inkscape:pageopacity="0.0"
     inkscape:pageshadow="2"
     inkscape:zoom="1.2184538"
     inkscape:cx="425.71432"
     inkscape:cy="549.99996"
     inkscape:document-units="px"
     inkscape:current-layer="layer1"
     showgrid="false"
     inkscape:window-width="1440"
     inkscape:window-height="897"
     inkscape:window-x="-8"
     inkscape:window-y="-8"
     inkscape:window-maximized="1" />
  <metadata
     id="metadata7">
    <rdf:RDF>
      <cc:Work
         rdf:about="">
        <dc:format>image/svg+xml</dc:format>
        <dc:type
           rdf:resource="http://purl.org/dc/dcmitype/StillImage" />
        <dc:title></dc:title>
      </cc:Work>
    </rdf:RDF>
  </metadata>
  <g
     inkscape:label="Layer 1"
     inkscape:groupmode="layer"
     id="layer1">
    <path
       id="path4150"
       d="m 659.71743,347.80094 c -10.63247,-11.21123 -25.19658,-19.59523 -43.02594,-25.1129 -0.25915,-0.11723 -0.48869,-0.26056 -0.76264,-0.35828 -159.65728,-57.70428 -322.97964,-36.21989 -426.19453,56.03659 -89.11723,79.64466 -109.612122,194.16726 -54.8653,306.3577 0.0148,0.026 0.037,0.0391 0.0444,0.0652 0.43684,0.86641 0.99957,1.67419 1.69556,2.4038 0.27396,0.28663 0.62196,0.49509 0.93293,0.74915 0.43686,0.37131 0.81447,0.7687 1.32536,1.07487 0.0519,0.0326 0.11107,0.0391 0.16289,0.0717 0.67379,0.39739 1.41421,0.66447 2.16944,0.92505 0.29618,0.10428 0.56271,0.26709 0.85889,0.35178 1.06621,0.28012 2.18425,0.42994 3.30228,0.42994 0.84409,0 1.69557,-0.10428 2.53965,-0.26708 0.27396,-0.0586 0.53311,-0.14333 0.79966,-0.21499 0.39982,-0.11069 0.79966,-0.17588 1.19208,-0.32571 0.15548,-0.0586 0.28877,-0.14982 0.44425,-0.21497 0.12591,-0.0521 0.26655,-0.0717 0.39243,-0.13031 L 672.11209,446.85841 c 3.09497,-1.41362 5.27181,-4.03239 5.90118,-7.0746 8.27792,-39.46404 2.11019,-70.4138 -18.29584,-91.98287 z m -453.679,44.68205 c 77.86281,-69.61254 192.8504,-95.87195 313.53925,-74.90871 -38.35387,4.7685 -77.32231,15.56281 -109.3826,28.16812 l -4.76832,0.54068 -33.45228,1.43968 -25.04849,17.64091 -33.42266,19.13271 -53.50293,0.96412 -21.7462,28.43522 c 0,0 -48.46064,24.00544 -48.46064,28.4352 0,4.42978 -6.67121,31.36017 -6.67121,31.36017 l -7.80406,19.63431 -17.84417,18.63109 -2.76918,40.20017 14.99355,20.8525 c -11.9356,23.11949 -21.30195,46.52561 -27.79545,69.70372 -31.98625,-93.05774 -9.2849,-184.61066 64.13539,-250.22989 z m 450.40633,38.92335 -496.12742,230.98645 c 22.69395,-102.1062 107.76848,-211.80815 217.58792,-278.34591 39.16835,-23.74487 116.19449,-48.98804 181.82553,-48.98804 26.53674,0 62.37318,4.46234 82.41641,25.63403 15.0676,15.93415 19.89515,39.70508 14.29756,70.71347 z"
       inkscape:connector-curvature="0" />
    <path
       style="color:#000000;clip-rule:nonzero;display:inline;overflow:visible;visibility:visible;opacity:1;isolation:auto;mix-blend-mode:normal;color-interpolation:sRGB;color-interpolation-filters:linearRGB;solid-color:#000000;solid-opacity:1;fill:#ffccaa;fill-opacity:0.98000004;fill-rule:nonzero;stroke:#70e700;stroke-width:0;stroke-linecap:butt;stroke-linejoin:miter;stroke-miterlimit:4;stroke-dasharray:none;stroke-dashoffset:0;stroke-opacity:1;color-rendering:auto;image-rendering:auto;shape-rendering:auto;text-rendering:auto;enable-background:accumulate"
       d="m 161.44703,660.2159 c 10e-4,-0.55854 0.93354,-4.52408 2.072,-8.8123 11.18601,-42.13425 35.09385,-89.79704 65.8676,-131.31397 39.15688,-52.82663 92.91965,-101.82865 148.31602,-135.18246 37.71978,-22.71085 94.59526,-40.82235 149.36964,-47.56546 16.08976,-1.98077 48.31774,-1.99486 60.65662,-0.0265 47.93627,7.64692 70.24383,30.03686 70.24804,70.50744 5.7e-4,5.54858 -0.41538,13.04289 -0.92432,16.65403 l -0.92536,6.5657 -49.75467,23.14291 c -61.45453,28.58498 -173.57831,80.79173 -322.64151,150.22737 -134.38796,62.59972 -122.28666,57.0774 -122.28406,55.80327 z"
       id="path4193"
       inkscape:connector-curvature="0" />
    <path
       style="color:#000000;clip-rule:nonzero;display:inline;overflow:visible;visibility:visible;opacity:1;isolation:auto;mix-blend-mode:normal;color-interpolation:sRGB;color-interpolation-filters:linearRGB;solid-color:#000000;solid-opacity:1;fill:#ffccaa;fill-opacity:0.98000004;fill-rule:nonzero;stroke:#70e700;stroke-width:0;stroke-linecap:butt;stroke-linejoin:miter;stroke-miterlimit:4;stroke-dasharray:none;stroke-dashoffset:0;stroke-opacity:1;color-rendering:auto;image-rendering:auto;shape-rendering:auto;text-rendering:auto;enable-background:accumulate"
       d="m 140.90118,637.82207 c -1.79232,-4.6593 -6.53618,-22.81837 -8.16219,-31.2442 -4.11738,-21.33577 -5.43738,-49.13896 -3.27025,-68.88125 7.21944,-65.76804 43.74448,-123.92628 104.60926,-166.56766 23.98956,-16.80689 55.50827,-32.32996 84.94372,-41.83506 42.62269,-13.76344 93.12587,-20.19989 139.72119,-17.80696 22.34065,1.14732 46.13317,3.61529 53.96691,5.59792 1.39698,0.35356 -1.51673,1.12037 -9.12995,2.40277 -26.01525,4.38209 -58.1058,12.80089 -81.41859,21.35975 -11.906,4.37107 -12.9357,4.60218 -23.53047,5.28125 -6.09379,0.39058 -14.53698,0.72827 -18.76265,0.75042 l -7.68303,0.0403 -13.24513,9.29469 c -7.28482,5.11208 -20.6046,13.50063 -29.59951,18.64123 l -16.35437,9.34654 -26.68026,0.44033 -26.68025,0.44033 -10.72203,14.05684 -10.72202,14.05684 -13.95211,7.27853 c -15.34904,8.00729 -30.12587,16.64617 -32.84868,19.20412 -1.15192,1.08218 -2.09554,3.53999 -2.75431,7.1741 -2.35134,12.97113 -6.20578,27.36375 -9.70295,36.23113 -3.4081,8.64155 -4.2864,10.07488 -9.60019,15.66709 -3.21689,3.38544 -7.2936,7.71453 -9.05935,9.62021 l -3.21047,3.46487 -1.40579,20.33578 -1.40578,20.33579 7.37055,10.15239 7.37055,10.15238 -5.09789,10.77578 c -7.14492,15.10274 -11.80865,26.62071 -17.30737,42.74379 -4.50419,13.20694 -4.792,13.78952 -5.67659,11.48997 z"
       id="path4195"
       inkscape:connector-curvature="0" />
  </g>
</svg>
