<?xml version="1.0" encoding="utf-8"?>
<!-- Generator: Adobe Illustrator 16.0.0, SVG Export Plug-In . SVG Version: 6.00 Build 0)  -->
<!DOCTYPE svg PUBLIC "-//W3C//DTD SVG 1.1//EN" "http://www.w3.org/Graphics/SVG/1.1/DTD/svg11.dtd">
<svg version="1.1" xmlns="http://www.w3.org/2000/svg" xmlns:xlink="http://www.w3.org/1999/xlink" x="0px" y="0px" width="1400px"
	 height="709px" viewBox="0 0 1400 709" enable-background="new 0 0 1400 709" xml:space="preserve">
<g id="romeo_and_juliet">
</g>
<g id="gatsby">
</g>
<g id="big_lebowski">
</g>
<g id="_x32_001">
	<g>
		<g>
			<path fill="#010101" d="M429.212,566.243l9.2-8.265c0.937-0.871,2.107-1.873,2.107-3.312c0-1.606-1.372-2.574-2.91-2.574
				c-1.84,0-2.944,1.304-3.078,3.009l-5.018-0.367c0.301-4.884,3.713-7.26,8.363-7.26c4.316,0,7.661,2.376,7.661,7.125
				c0,3.046-1.304,4.783-3.111,6.356l-7.193,6.188h10.504v4.416h-16.526V566.243z"/>
			<path fill="#010101" d="M463.968,547.475c7.025,0,8.798,6.625,8.798,12.244c0,5.62-1.773,12.245-8.798,12.245
				c-7.025,0-8.798-6.625-8.798-12.245C455.169,554.1,456.942,547.475,463.968,547.475z M463.968,567.346
				c3.613,0,3.78-5.152,3.78-7.627c0-2.477-0.167-7.626-3.78-7.626s-3.78,5.149-3.78,7.626
				C460.188,562.193,460.355,567.346,463.968,567.346z"/>
			<path fill="#010101" d="M490.459,547.475c7.025,0,8.799,6.625,8.799,12.244c0,5.62-1.773,12.245-8.799,12.245
				c-7.025,0-8.798-6.625-8.798-12.245C481.662,554.1,483.435,547.475,490.459,547.475z M490.459,567.346
				c3.613,0,3.78-5.152,3.78-7.627c0-2.477-0.167-7.626-3.78-7.626c-3.612,0-3.78,5.149-3.78,7.626
				C486.68,562.193,486.847,567.346,490.459,567.346z"/>
			<path fill="#010101" d="M514.008,553.498l-4.75,4.181l-2.843-3.28l7.727-6.523h4.684v23.686h-4.817V553.498z"/>
			<path fill="#010101" d="M535.817,554.902c1.707,0,3.078,1.371,3.078,3.076c0,1.707-1.371,3.078-3.078,3.078
				c-1.706,0-3.078-1.371-3.078-3.078C532.739,556.273,534.111,554.902,535.817,554.902z M535.817,565.607
				c1.707,0,3.078,1.371,3.078,3.076c0,1.707-1.371,3.078-3.078,3.078c-1.706,0-3.078-1.371-3.078-3.078
				C532.739,566.979,534.111,565.607,535.817,565.607z"/>
			<path fill="#010101" d="M574.25,547.875h4.315l10.304,23.686h-5.888l-2.041-5.018h-9.2l-1.974,5.018h-5.754L574.25,547.875z
				 M576.258,554.768l-2.877,7.358h5.787L576.258,554.768z"/>
			<path fill="#010101" d="M626.231,553.662c-0.836-1.068-2.509-1.569-3.78-1.569c-1.472,0-3.512,0.669-3.512,2.44
				c0,4.315,10.906,1.539,10.906,9.834c0,5.287-4.249,7.795-9.133,7.795c-3.044,0-5.721-0.901-7.962-2.975l3.714-4.084
				c1.07,1.405,2.81,2.242,4.549,2.242c1.707,0,3.613-0.803,3.613-2.475c0-4.349-11.107-2.009-11.107-9.904
				c0-5.049,4.383-7.693,9.033-7.693c2.676,0,5.252,0.702,7.259,2.477L626.231,553.662z"/>
			<path fill="#010101" d="M640.412,547.875h8.798c4.918,0,9,1.572,9,7.192c0,5.556-3.78,7.26-8.765,7.26h-3.814v9.233h-5.219
				V547.875z M645.631,557.911h3.479c1.839,0,3.68-0.636,3.68-2.844c0-2.44-2.476-2.776-4.483-2.776h-2.676V557.911z"/>
			<path fill="#010101" d="M672.899,547.875h4.315l10.304,23.686h-5.888l-2.041-5.018h-9.2l-1.974,5.018h-5.754L672.899,547.875z
				 M674.907,554.768l-2.877,7.358h5.787L674.907,554.768z"/>
			<path fill="#010101" d="M712.07,554.032c-1.037-1.237-2.542-1.939-4.483-1.939c-3.948,0-6.858,3.21-6.858,7.626
				c0,4.417,2.911,7.627,6.691,7.627c2.107,0,3.813-0.938,4.884-2.541l4.349,3.243c-1.974,2.811-5.319,4.114-8.564,4.114
				c-7.394,0-12.779-4.85-12.779-12.443c0-7.596,5.385-12.445,12.779-12.445c2.643,0,5.988,0.903,7.996,3.479L712.07,554.032z"/>
			<path fill="#010101" d="M726.384,547.875h16.091v4.819h-10.873v4.413h10.271v4.82h-10.271v4.816h11.475v4.816h-16.693V547.875z"
				/>
			<path fill="#010101" d="M782.045,547.273c7.393,0,12.779,4.85,12.779,12.445c0,7.594-5.387,12.443-12.779,12.443
				c-7.394,0-12.779-4.85-12.779-12.443C769.266,552.123,774.652,547.273,782.045,547.273z M782.045,567.346
				c4.45,0,7.359-3.21,7.359-7.627c0-4.416-2.909-7.626-7.359-7.626c-4.449,0-7.36,3.21-7.36,7.626
				C774.685,564.136,777.596,567.346,782.045,567.346z"/>
			<path fill="#010101" d="M805.057,547.875h7.828c7.628,0,14.018,3.246,14.018,11.911c0,7.66-6.256,11.774-13.315,11.774h-8.53
				V547.875z M810.277,566.744h2.709c4.85,0,8.497-1.839,8.497-7.227c0-4.648-3.713-6.823-8.129-6.823h-3.077V566.744z"/>
			<path fill="#010101" d="M842.956,561.457l-8.898-13.582h6.49l5.019,8.866l5.319-8.866h6.188l-8.898,13.582v10.104h-5.219V561.457
				z"/>
			<path fill="#010101" d="M877.208,553.662c-0.835-1.068-2.509-1.569-3.779-1.569c-1.473,0-3.513,0.669-3.513,2.44
				c0,4.315,10.905,1.539,10.905,9.834c0,5.287-4.249,7.795-9.133,7.795c-3.045,0-5.721-0.901-7.962-2.975l3.714-4.084
				c1.07,1.405,2.81,2.242,4.549,2.242c1.706,0,3.613-0.803,3.613-2.475c0-4.349-11.106-2.009-11.106-9.904
				c0-5.049,4.383-7.693,9.033-7.693c2.676,0,5.252,0.702,7.258,2.477L877.208,553.662z"/>
			<path fill="#010101" d="M903.098,553.662c-0.835-1.068-2.509-1.569-3.779-1.569c-1.473,0-3.513,0.669-3.513,2.44
				c0,4.315,10.905,1.539,10.905,9.834c0,5.287-4.248,7.795-9.133,7.795c-3.045,0-5.72-0.901-7.962-2.975l3.714-4.084
				c1.07,1.405,2.81,2.242,4.55,2.242c1.705,0,3.612-0.803,3.612-2.475c0-4.349-11.106-2.009-11.106-9.904
				c0-5.049,4.383-7.693,9.033-7.693c2.676,0,5.252,0.702,7.259,2.477L903.098,553.662z"/>
			<path fill="#010101" d="M917.481,547.875h16.092v4.819H922.7v4.413h10.27v4.82H922.7v4.816h11.475v4.816h-16.693V547.875z"/>
			<path fill="#010101" d="M950.865,561.457l-8.899-13.582h6.491l5.018,8.866l5.319-8.866h6.188l-8.898,13.582v10.104h-5.218
				V561.457z"/>
		</g>
		<g>
			<rect x="247.831" y="246.635" width="102.594" height="7.719"/>
			<g>
				<g>
					<polygon fill="#73C6A1" points="257.157,158.134 331.099,158.134 350.424,171.84 350.424,342.854 237.832,342.854 
						237.832,171.84 					"/>
					<path d="M354.284,346.713H233.972V169.846l21.955-15.571h76.402l21.955,15.571V346.713z M241.691,338.994h104.874v-165.16
						l-16.695-11.841h-71.483l-16.695,11.841V338.994z"/>
				</g>
				<polygon points="350.424,342.854 237.832,342.854 237.832,271.271 299.619,171.84 237.832,171.84 257.157,158.134 
					331.099,158.134 350.424,171.84 350.424,294.62 				"/>
			</g>
			<g>
				<g>
					<path fill="#73C6A1" d="M465.147,325.305l-7.891-1.145l-6.399-7.132c0,0,3.045-3.893,4.792-7.366
						c1.743-3.465,8.08-4.399,16.944-9.922c8.863-5.529,22.986-30.131,37.615-49.688c14.626-19.569,53.164-58.583,53.961-64.05
						c0.796-5.465,2.208-15.174,2.208-15.174s3.746-4.414,5.92-6.577c2.176-2.161,14.403-0.999,15.782,2.3
						c1.38,3.297,17.91,17.487,17.29,21.73c-0.618,4.254-27.287,17.105-35.559,27.058c-8.262,9.952-62.506,80.156-67.384,88.127
						c-4.88,7.962-8.569,24.783-9.963,25.821c-1.392,1.033-7.55,0.756-8.508,3.098c-0.963,2.343-0.796,5.464-5.136,5.453
						c-4.334-0.015-12.216-5.503-11.949-7.322C467.134,328.691,465.147,325.305,465.147,325.305z"/>
					<path d="M577.312,163.152c4.334,0,9.866,1.243,10.767,3.398c1.38,3.297,17.91,17.487,17.29,21.73
						c-0.618,4.254-27.287,17.105-35.559,27.058c-8.262,9.952-62.506,80.156-67.384,88.127c-4.88,7.962-8.569,24.783-9.963,25.821
						c-1.392,1.033-7.55,0.756-8.508,3.098c-0.962,2.339-0.798,5.453-5.113,5.453c-0.008,0-0.015,0-0.022,0
						c-4.334-0.015-12.216-5.503-11.949-7.322c0.266-1.824-1.721-5.211-1.721-5.211l-7.891-1.145l-6.399-7.132
						c0,0,3.045-3.893,4.792-7.366c1.743-3.465,8.08-4.399,16.944-9.922c8.863-5.529,22.986-30.131,37.615-49.688
						c14.626-19.569,53.164-58.583,53.961-64.05c0.796-5.465,2.208-15.174,2.208-15.174s3.746-4.414,5.92-6.577
						C573.051,163.502,575.013,163.152,577.312,163.152 M577.312,155.433L577.312,155.433c-4.771,0.001-8.191,1.093-10.455,3.341
						c-2.342,2.331-5.961,6.583-6.366,7.061l-1.435,1.69l-0.318,2.193c0,0-1.266,8.706-2.076,14.269
						c-2.329,3.891-14.18,17.082-22.923,26.814c-11.208,12.475-22.796,25.374-29.714,34.63c-5.046,6.746-9.941,13.945-14.675,20.906
						c-7.667,11.275-16.357,24.056-20.843,26.854c-3.347,2.085-6.301,3.439-8.908,4.635c-4.437,2.034-8.627,3.956-10.846,8.367
						c-1.146,2.277-3.309,5.226-3.976,6.079l-3.986,5.096l4.32,4.815l6.399,7.132l1.869,2.082l2.769,0.402l3.156,0.457
						c0.283,1.43,0.98,3.061,2.429,4.744c3.077,3.573,10.716,8.534,17.057,8.556c4.85,0,7.703-2.114,9.251-3.888
						c1.145-1.312,1.816-2.688,2.262-3.888c0.133-0.022,0.259-0.044,0.373-0.062c2.15-0.364,4.374-0.74,6.386-2.234
						c2.573-1.915,3.364-4.434,5.478-11.164c1.609-5.123,4.041-12.865,6.465-16.82c4.374-7.146,58.213-76.957,66.742-87.23
						c3.562-4.285,12.654-10.11,19.959-14.791c11.329-7.259,16.499-10.572,17.3-16.088c0.886-6.061-4.09-11.581-12.961-20.815
						c-1.838-1.913-4.323-4.499-5.078-5.517C591.527,155.993,580.633,155.433,577.312,155.433L577.312,155.433z"/>
				</g>
				<path fill="#F15A29" d="M538.111,217.488c0.182-0.585,25.611-28.421,26.059-31.486c0.796-5.465,2.208-15.174,2.208-15.174
					s3.746-4.414,5.92-6.577c2.176-2.161,14.403-0.999,15.782,2.3c1.38,3.297,17.91,17.487,17.29,21.73
					c-0.618,4.254-27.826,19.96-35.559,27.058c-7.728,7.101-6.726-9.507-14.403-7.509c-5.474,1.433-6.454,34.332-14.128,34.581
					C537.285,242.537,535.204,226.612,538.111,217.488z"/>
				<g>
					<path fill="#73C6A1" d="M496.352,329.85c0,0-9.942-12.603-14.633-10.185c-4.688,2.413-7.872-10.565-14.898-8.374
						c-15.587,4.859-11.35-5.592-11.35-5.592"/>
					<path d="M493.323,332.241c-3.502-4.429-8.312-8.694-10.117-9.008c-4.784,2.227-8.382-2.057-10.549-4.636
						c-2.34-2.788-3.576-3.966-4.688-3.622c-2.665,0.832-10.778,3.359-14.919-1.141c-3.402-3.697-1.396-8.994-1.156-9.586l7.153,2.9
						c-0.161,0.425-0.267,1.081-0.242,1.444c0.503,0.153,2.298,0.437,6.866-0.987c6.21-1.935,10.396,3.048,12.897,6.026
						c0.621,0.739,1.498,1.783,2.082,2.294c3.081-1.132,9.153-0.61,18.732,11.532l-6.061,4.781l3.03-2.391L493.323,332.241z"/>
				</g>
				<path fill="#F15A29" d="M532.53,251.309c-2.492,3.232-6.709,4.17-9.422,2.082c-2.715-2.088-2.892-6.406-0.406-9.636
					c2.494-3.244,6.71-4.173,9.422-2.088C534.841,243.755,535.018,248.07,532.53,251.309z"/>
			</g>
			<path fill="#F15A29" d="M874.152,250.492c0,50.535-40.968,91.5-91.495,91.5c-50.531,0-91.494-40.965-91.494-91.5
				c0-50.529,40.963-91.495,91.494-91.495C833.184,158.997,874.152,199.963,874.152,250.492z"/>
			<g>
				<g>
					<path fill="#F15A29" d="M848.799,250.492c0,36.527-29.617,66.144-66.143,66.144c-36.527,0-66.139-29.616-66.139-66.144
						c0-36.523,29.612-66.139,66.139-66.139C819.182,184.354,848.799,213.969,848.799,250.492z"/>
					<path d="M782.657,320.495c-38.598,0-69.999-31.403-69.999-70.003c0-38.598,31.401-69.998,69.999-69.998
						c38.599,0,70.002,31.4,70.002,69.998C852.659,289.092,821.256,320.495,782.657,320.495z M782.657,188.213
						c-34.341,0-62.28,27.938-62.28,62.279c0,34.344,27.938,62.284,62.28,62.284c34.343,0,62.283-27.94,62.283-62.284
						C844.94,216.151,817,188.213,782.657,188.213z"/>
				</g>
				<g>
					<path fill="#FFFFFF" d="M825.384,253.414c-2.539,0-6.532-14.322-7.646-17.884c-0.761-2.419,0.588-5,3.01-5.761
						c2.419-0.762,5.003,0.59,5.762,3.01c1.394,4.45,2.104,9.084,2.104,13.782C828.614,249.095,827.926,253.414,825.384,253.414z"/>
					<path fill="#FFFFFF" d="M757.364,218.429c-1.375,0-4.823-6.671-2.815-8.229c8.112-6.274,17.833-9.597,28.108-9.597
						c9.705,0,18.98,2.984,26.83,8.635c2.059,1.49-3.313,8.943-5.373,7.465c-6.273-4.516-13.696-6.907-21.457-6.907
						c-8.219,0-15.996,2.657-22.484,7.675C759.336,218.119,758.346,218.429,757.364,218.429z"/>
					<path fill="#FFFFFF" d="M739.267,253.414c-2.536,0-2.563-4.319-2.563-6.853c0-4.45,0.635-8.85,1.889-13.081
						c0.723-2.436,3.281-3.816,5.714-3.105c2.434,0.718,3.823,3.279,3.102,5.714C746.404,239.474,741.806,253.414,739.267,253.414z"
						/>
				</g>
			</g>
			<path fill="#FFFFFF" d="M793.377,250.494c0,5.926-4.8,10.721-10.722,10.721c-5.916,0-10.718-4.795-10.718-10.721
				c0-5.925,4.802-10.719,10.718-10.719C788.578,239.775,793.377,244.569,793.377,250.494z"/>
			<path fill="#73C6A1" d="M1161.639,253.526c0,0-1.662,11.452-1.267,20.665c0.403,9.216,8.771,22.713-8.726,39.601
				c-17.497,16.903-28.691,8.969-48.203,19.057c-19.512,10.091-39.914,29.585-66.769-3.147
				c-26.849-32.734-31.616-59.316-36.755-76.627c-5.133-17.312-31.146-33.249-22.803-62.865
				c8.342-29.612,49.426-42.896,68.214-34.721c22.123,9.63,29.69,30.49,33.032,40.164c3.354,9.734,17.932-5.256,27.34,6.121
				c9.412,11.379,2.141,28.219,7.501,36.146c5.363,7.927,10.302,1.456,22.536-3.499
				C1147.989,229.461,1163.653,243.349,1161.639,253.526z"/>
			<g>
				<path fill="#FFFFFF" stroke="#000000" stroke-width="7.7192" stroke-miterlimit="10" d="M1082.116,278.688"/>
				<g>
					<path fill="#FFFFFF" d="M1108.701,285.259c0,0,13.321,10.835,14.79,10.763c0,0,13.218-7.989,15.387-7.162
						c2.167,0.821,3.695,6.222,0.247,10.573c-3.446,4.351-15.04,13.006-17.231,12.806c-2.191-0.207-25.887-12.611-25.887-12.611
						c-0.693-0.873-0.226,14.174-7.621,19.76c-7.395,5.573-21.771,17.647-44.951-12.57c-23.188-30.227-23.162-59.551-27.58-66.041
						c-4.419-6.496-9.377-12.323-13.648-19.092c-4.271-6.77-9.994-28.58,13.149-42.722c23.146-14.142,45.445,8.48,46.77,20.811
						c1.322,12.324,1.27,16.419,3.88,18.409c2.613,1.992,2.799,4.688-0.46,8.002c0,0,0.682,4.075-0.657,5.604
						c-1.343,1.528-0.48,1.276-2.303,4.08c-1.818,2.811-0.909,4.729-2.952,6.081c-2.04,1.352-5.365,1.231-5.365,1.231
						s1.09,2.717,5.754,5.74c4.659,3.026,8.998,4.668,8.998,4.668s9.774-13.406,11.338-15.046c1.563-1.651,1.229-9.737,1.97-10.078
						c0.746-0.351,2.392-2.029,3.633-2.608c1.244-0.576,3.894-6.695,5.472-6.524c1.586,0.187,2.11,2.69,1.005,6.256
						c-1.093,3.56,1.757,5.896,1.902,8.889c0.136,2.987-3.853,5.456-4.664,7.664c-0.804,2.208-5.525,22.419-10.549,26.59
						c-5.028,4.171-4.93,1.326-6.756,1.259l-0.565,8.405c4.425-4.259,18.132-11.642,18.132-11.642
						c8.075-4.062,37.543,4.428,37.543,4.428s4.334-16.502,9.832-15.836c3.48,0.423,1.948,14.791,1.819,18.514
						c-0.129,3.725,0.164,9.921-3.424,11.288C1132.12,286.51,1108.701,285.259,1108.701,285.259z"/>
					<path d="M1071.981,330.384c-10.318,0-20.657-6.94-31.61-21.218c-16.788-21.885-21.791-43.376-24.78-56.217
						c-1.038-4.456-2.017-8.664-2.928-10.002c-1.842-2.707-3.838-5.374-5.77-7.953c-2.667-3.562-5.426-7.247-7.953-11.251
						c-2.557-4.053-6.198-13.854-3.62-24.876c2.206-9.435,8.27-17.24,18.021-23.198c5.5-3.361,11.305-5.064,17.253-5.064
						c18.724,0,34.122,17.177,35.366,28.756c0.214,1.994,0.392,3.773,0.551,5.365c0.566,5.65,0.975,9.733,1.832,10.387
						c2.665,2.032,3.36,4.358,3.474,5.952c0.153,2.137-0.604,4.279-2.254,6.388c0.122,2.093-0.094,4.96-1.774,6.878
						c-0.093,0.105-0.164,0.187-0.217,0.259l-0.046,0.119c-0.287,0.764-0.656,1.645-1.707,3.263
						c-0.459,0.709-0.603,1.289-0.802,2.092c-0.348,1.404-0.874,3.526-3.256,5.104c-0.069,0.047-0.139,0.092-0.209,0.135
						c0.181,0.126,0.37,0.253,0.567,0.381c2.07,1.345,4.087,2.399,5.611,3.128c3.018-4.114,7.896-10.71,9.556-12.624
						c0.304-0.911,0.512-3.405,0.615-4.64c0.269-3.225,0.449-5.385,2.624-6.497c0.166-0.12,0.506-0.397,0.739-0.588
						c0.744-0.607,1.571-1.282,2.475-1.798c0.289-0.392,0.754-1.128,1.082-1.646c1.803-2.854,3.507-5.549,6.544-5.549l0.481,0.026
						c1.636,0.192,3.015,1.06,3.916,2.445c1.727,2.656,1.148,6.246,0.36,8.79c-0.207,0.674,0.011,1.261,0.688,2.764
						c0.574,1.277,1.29,2.867,1.383,4.795c0.154,3.398-2.051,5.879-3.662,7.69c-0.442,0.497-1.11,1.248-1.257,1.546
						c-0.074,0.216-0.402,1.402-0.691,2.448c-2.046,7.402-3.982,13.623-6.048,18.239c0.776-0.43,1.33-0.729,1.57-0.858l0.096-0.05
						c2.023-1.018,4.783-1.512,8.438-1.512c9.001,0,21.895,3.035,28.189,4.671c4.14-12.946,9.306-14.998,12.158-14.998
						c0.262,0,0.524,0.016,0.789,0.047c6.58,0.8,5.919,11.154,5.337,20.29c-0.058,0.904-0.107,1.66-0.125,2.189
						c-0.013,0.38-0.021,0.786-0.031,1.211c-0.062,2.941-0.153,7.251-2.053,10.346c1.721,0.912,3.051,2.717,3.697,5.061
						c1.042,3.774,0.125,7.97-2.452,11.222c-3.078,3.886-15.619,14.271-20.177,14.271l-0.43-0.02
						c-0.762-0.072-2.672-0.253-22.623-10.586c-0.837,5.215-2.761,12.856-8.208,16.971l-0.54,0.408
						c-3.946,2.989-9.909,7.507-18.187,7.509C1071.984,330.384,1071.982,330.384,1071.981,330.384z M1030.596,178.323
						c-4.508,0-8.958,1.323-13.229,3.933c-7.923,4.841-12.812,11.021-14.529,18.368c-2.001,8.559,0.847,16.171,2.632,19
						c2.362,3.743,5.027,7.302,7.604,10.743c1.982,2.648,4.033,5.387,5.972,8.237c1.72,2.527,2.653,6.532,4.064,12.595
						c2.848,12.232,7.614,32.707,23.387,53.268c9.262,12.074,17.837,18.197,25.485,18.197c0.001,0,0.001,0,0.002,0
						c5.685-0.001,10.033-3.295,13.526-5.941l0.552-0.418c4.189-3.164,5.217-11.529,5.656-15.102
						c0.251-2.047,0.673-5.473,4.232-5.473h1.863l0.686,0.845c9.643,5.037,20.313,10.387,23.475,11.646
						c2.922-1.382,11.358-7.694,14.125-11.186c1.167-1.474,1.293-2.975,1.151-3.943c-2.638,1.056-7.688,3.769-11.763,6.231
						l-0.834,0.504l-1.178,0.054c-1.366,0-2.914,0-17.21-11.629l-9.196-7.48l11.838,0.632c0.097,0.006,9.799,0.519,17.495,0.519
						c5.767,0,7.507-0.294,7.907-0.384c0.812-0.859,0.899-4.946,0.932-6.5c0.01-0.461,0.019-0.902,0.033-1.315
						c0.021-0.583,0.073-1.416,0.136-2.413c0.29-4.551,0.369-7.971,0.237-10.231c-1.523,2.483-3.331,6.88-4.435,11.081l-1.004,3.821
						l-3.797-1.093c-0.187-0.054-18.807-5.378-29.771-5.378c-3.158,0-4.482,0.455-4.932,0.671
						c-3.734,2.016-13.93,7.82-17.226,10.993l-7.198,6.928l1.487-22.109l3.742,0.138c1.136,0.042,2.021,0.423,2.626,0.764
						c0.33-0.208,0.826-0.557,1.524-1.136c2.104-1.747,4.958-9.097,8.482-21.843c0.476-1.722,0.713-2.572,0.904-3.097
						c0.574-1.562,1.663-2.786,2.716-3.97c0.551-0.62,1.564-1.759,1.715-2.261c-0.047-0.46-0.369-1.174-0.708-1.929
						c-0.455-1.013-1.037-2.306-1.3-3.84c-0.275,0.21-0.568,0.39-0.888,0.537c-0.281,0.141-1.032,0.754-1.435,1.083
						c-0.146,0.119-0.289,0.235-0.429,0.348c-0.044,0.445-0.087,0.964-0.124,1.398c-0.355,4.264-0.716,7.194-2.435,9.009
						c-0.902,0.955-6.31,8.204-11.022,14.666l-1.733,2.377l-2.751-1.04c-0.193-0.073-4.784-1.826-9.735-5.042
						c-5.414-3.509-6.976-6.896-7.233-7.54l-2.21-5.508l5.932,0.214c0,0,0.001,0,0.001,0c1.186,0,2.384-0.217,2.961-0.516
						c0.049-0.167,0.109-0.408,0.157-0.601c0.26-1.049,0.653-2.636,1.817-4.436c0.687-1.057,0.832-1.441,0.959-1.78
						c0.279-0.742,0.587-1.449,1.476-2.508c0.128-0.565,0.092-1.864-0.042-2.662l-0.325-1.94l1.379-1.402
						c0.99-1.007,1.245-1.615,1.307-1.819c-0.059-0.077-0.186-0.217-0.435-0.407c-3.524-2.687-3.907-6.513-4.832-15.757
						c-0.158-1.575-0.334-3.336-0.545-5.31C1057.462,192.506,1045.488,178.323,1030.596,178.323z M1120.487,289.566
						c1.128,0.837,2.113,1.542,2.864,2.045c1.123-0.66,2.286-1.327,3.451-1.97C1124.799,289.661,1122.593,289.615,1120.487,289.566z
						"/>
				</g>
			</g>
		</g>
		<g>
			<path d="M237.277,444.537c5.795,1.998,10.373,6.578,12.375,12.37c2-5.792,6.578-10.372,12.373-12.37
				c-5.795-2.006-10.373-6.584-12.373-12.377C247.65,437.953,243.072,442.531,237.277,444.537z"/>
			<path d="M284.607,444.537c5.795,1.998,10.373,6.578,12.374,12.37c2.002-5.792,6.581-10.372,12.375-12.37
				c-5.794-2.006-10.372-6.584-12.375-12.377C294.98,437.953,290.402,442.531,284.607,444.537z"/>
			<path d="M331.938,444.537c5.794,1.998,10.373,6.578,12.375,12.37c2-5.792,6.579-10.372,12.373-12.37
				c-5.794-2.006-10.372-6.584-12.373-12.377C342.311,437.953,337.732,442.531,331.938,444.537z"/>
			<path d="M379.268,444.537c5.795,1.998,10.373,6.578,12.373,12.37c2.003-5.792,6.582-10.372,12.375-12.37
				c-5.794-2.006-10.372-6.584-12.375-12.377C389.641,437.953,385.063,442.531,379.268,444.537z"/>
			<path d="M426.599,444.537c5.794,1.998,10.373,6.578,12.375,12.37c2-5.792,6.579-10.372,12.373-12.37
				c-5.794-2.006-10.372-6.584-12.373-12.377C436.971,437.953,432.393,442.531,426.599,444.537z"/>
			<path d="M473.929,444.537c5.794,1.998,10.373,6.578,12.373,12.37c2.003-5.792,6.581-10.372,12.375-12.37
				c-5.794-2.006-10.372-6.584-12.375-12.377C484.302,437.953,479.723,442.531,473.929,444.537z"/>
			<path d="M521.259,444.537c5.794,1.998,10.373,6.578,12.375,12.37c2-5.792,6.579-10.372,12.373-12.37
				c-5.794-2.006-10.373-6.584-12.373-12.377C531.632,437.953,527.053,442.531,521.259,444.537z"/>
			<path d="M568.589,444.537c5.794,1.998,10.373,6.578,12.373,12.37c2.003-5.792,6.581-10.372,12.375-12.37
				c-5.794-2.006-10.372-6.584-12.375-12.377C578.962,437.953,574.383,442.531,568.589,444.537z"/>
			<path d="M615.919,444.537c5.794,1.998,10.373,6.578,12.375,12.37c2-5.792,6.579-10.372,12.373-12.37
				c-5.794-2.006-10.373-6.584-12.373-12.377C626.292,437.953,621.714,442.531,615.919,444.537z"/>
			<path d="M663.25,444.537c5.794,1.998,10.372,6.578,12.373,12.37c2.002-5.792,6.581-10.372,12.375-12.37
				c-5.794-2.006-10.373-6.584-12.375-12.377C673.622,437.953,669.044,442.531,663.25,444.537z"/>
			<path d="M710.58,444.537c5.794,1.998,10.372,6.578,12.375,12.37c2-5.792,6.579-10.372,12.373-12.37
				c-5.794-2.006-10.373-6.584-12.373-12.377C720.952,437.953,716.375,442.531,710.58,444.537z"/>
			<path d="M757.911,444.537c5.794,1.998,10.372,6.578,12.372,12.37c2.003-5.792,6.582-10.372,12.376-12.37
				c-5.794-2.006-10.373-6.584-12.376-12.377C768.283,437.953,763.705,442.531,757.911,444.537z"/>
			<path d="M805.24,444.537c5.792,1.998,10.371,6.578,12.374,12.37c2.002-5.792,6.581-10.372,12.373-12.37
				c-5.792-2.006-10.371-6.584-12.373-12.377C815.611,437.953,811.032,442.531,805.24,444.537z"/>
			<path d="M899.901,444.537c5.795,1.998,10.373,6.578,12.373,12.37c2.005-5.792,6.583-10.372,12.375-12.37
				c-5.792-2.006-10.37-6.584-12.375-12.377C910.274,437.953,905.696,442.531,899.901,444.537z"/>
			<path d="M947.232,444.537c5.792,1.998,10.369,6.578,12.374,12.37c2.002-5.792,6.579-10.372,12.374-12.37
				c-5.795-2.006-10.372-6.584-12.374-12.377C957.601,437.953,953.024,442.531,947.232,444.537z"/>
			<path d="M852.571,444.537c5.792,1.998,10.369,6.578,12.373,12.37c2.003-5.792,6.58-10.372,12.375-12.37
				c-5.795-2.006-10.372-6.584-12.375-12.377C862.94,437.953,858.363,442.531,852.571,444.537z"/>
			<path d="M994.564,444.537c5.792,1.998,10.371,6.578,12.373,12.37c2-5.792,6.579-10.372,12.372-12.37
				c-5.793-2.006-10.372-6.584-12.372-12.377C1004.935,437.953,1000.356,442.531,994.564,444.537z"/>
			<path d="M1041.895,444.537c5.793,1.998,10.372,6.578,12.372,12.37c2.002-5.792,6.581-10.372,12.373-12.37
				c-5.792-2.006-10.371-6.584-12.373-12.377C1052.267,437.953,1047.688,442.531,1041.895,444.537z"/>
			<path d="M1089.222,444.537c5.795,1.998,10.373,6.578,12.376,12.37c2.002-5.792,6.58-10.372,12.372-12.37
				c-5.792-2.006-10.37-6.584-12.372-12.377C1099.595,437.953,1095.017,442.531,1089.222,444.537z"/>
			<path d="M1136.553,444.537c5.792,1.998,10.369,6.578,12.371,12.37c2.003-5.792,6.582-10.372,12.377-12.37
				c-5.795-2.006-10.374-6.584-12.377-12.377C1146.922,437.953,1142.345,442.531,1136.553,444.537z"/>
		</g>
	</g>
</g>
<g id="life_aquatic">
</g>
<g id="hobbit">
</g>
<g id="reservoir_dogs">
</g>
<g id="akira">
</g>
</svg>
