<?xml version="1.0" encoding="UTF-8" standalone="no"?>
<!-- Created with Inkscape (http://www.inkscape.org/) -->

<svg
   xmlns:dc="http://purl.org/dc/elements/1.1/"
   xmlns:cc="http://creativecommons.org/ns#"
   xmlns:rdf="http://www.w3.org/1999/02/22-rdf-syntax-ns#"
   xmlns:svg="http://www.w3.org/2000/svg"
   xmlns="http://www.w3.org/2000/svg"
   xmlns:sodipodi="http://sodipodi.sourceforge.net/DTD/sodipodi-0.dtd"
   xmlns:inkscape="http://www.inkscape.org/namespaces/inkscape"
   id="svg4211"
   version="1.1"
   inkscape:version="0.91 r13725"
   width="121.875"
   height="101.25"
   viewBox="0 0 121.875 101.25"
   sodipodi:docname="Delorian (2).svg">
  <metadata
     id="metadata4217">
    <rdf:RDF>
      <cc:Work
         rdf:about="">
        <dc:format>image/svg+xml</dc:format>
        <dc:type
           rdf:resource="http://purl.org/dc/dcmitype/StillImage" />
        <dc:title></dc:title>
      </cc:Work>
    </rdf:RDF>
  </metadata>
  <defs
     id="defs4215" />
  <sodipodi:namedview
     pagecolor="#ffffff"
     bordercolor="#666666"
     borderopacity="1"
     objecttolerance="10"
     gridtolerance="10"
     guidetolerance="10"
     inkscape:pageopacity="0"
     inkscape:pageshadow="2"
     inkscape:window-width="1237"
     inkscape:window-height="771"
     id="namedview4213"
     showgrid="false"
     inkscape:zoom="5.6493824"
     inkscape:cx="61.366528"
     inkscape:cy="51.054022"
     inkscape:window-x="0"
     inkscape:window-y="0"
     inkscape:window-maximized="0"
     inkscape:current-layer="svg4211" />
  <path
     style="fill:#000000"
     d="m 0.4290258,50.195969 0,-50.624994 60.9374992,0 60.937505,0 0,50.624994 0,50.625011 -60.937505,0 -60.9374992,0 0,-50.625011 z m 82.4941092,37.04674 c 0.48687,-1.28055 1.39963,-5.88622 2.02838,-10.23483 l 1.14317,-7.90656 -3.27376,-4.06205 c -1.80057,-2.23412 -4.40607,-6.41375 -5.78999,-9.28805 -1.40008,-2.90785 -3.56101,-5.78515 -4.87157,-6.486543 -3.01974,-1.616116 -2.9653,-2.138782 0.52909,-5.079114 3.70685,-3.119112 8.00894,-3.162516 12.2113,-0.123201 5.6787,4.107052 8.34177,5.391228 8.34177,4.022537 0,-2.369289 -2.99446,-5.449546 -7.5341,-7.749951 -6.40001,-3.243131 -9.99836,-3.019023 -15.96186,0.994117 -2.71391,1.826325 -5.51624,3.197419 -6.2274,3.046875 -0.71116,-0.150543 -2.72873,-3.840408 -4.48348,-8.199701 -1.75476,-4.359292 -4.16279,-8.680412 -5.35119,-9.602489 -6.64922,-5.15913 -16.69197,-7.359361 -16.69197,-3.656986 0,1.981167 4.14688,3.841711 8.56261,3.841711 3.71167,0 7.9917,4.195512 10.15794,9.957363 l 1.80504,4.801112 -3.98079,-0.448693 c -2.97032,-0.334798 -4.80198,0.05193 -7.21592,1.523508 -1.77932,1.084711 -4.50076,1.980238 -6.04763,1.990062 -3.29568,0.02093 -4.52325,0.708666 -5.83747,3.270398 -1.62122,3.160165 -4.33072,16.083535 -3.71077,17.699095 0.94842,2.47156 6.96558,4.93238 8.98178,3.67325 1.37856,-0.86093 3.70235,-0.0451 12.84352,4.50924 6.13824,3.05819 12.77051,6.04937 14.73838,6.64707 2.32646,0.70661 4.05215,2.00373 4.93366,3.70839 1.42801,2.76146 5.35052,5.38096 8.15223,5.44417 0.9303,0.021 2.05409,-0.98892 2.54903,-2.29073 z m -9.3393,-14.16706 c 0.0164,-0.46663 0.59385,-1.59162 1.28321,-2.49996 1.0417,-1.3726 1.86796,-1.50726 4.89206,-0.7973 l 3.63867,0.85424 -3.20743,0.0942 c -1.76409,0.0518 -3.97893,0.79237 -4.92188,1.64572 -0.94294,0.85336 -1.70102,1.16976 -1.68463,0.70313 z m -9.40481,-17.59328 c -9.80171,-4.32414 -15,-7.072452 -15,-7.930449 0,-1.421856 2.27738,-2.980946 4.35431,-2.980946 2.85081,0 15.5988,5.890615 18.04769,8.339505 2.1609,2.16089 2.66372,5.73749 0.80112,5.6984 -0.64453,-0.0135 -4.33593,-1.42046 -8.20312,-3.12651 z m -22.70273,-1.37651 -1.60898,-3.32576 1.93464,1.93464 c 1.06405,1.06405 1.78809,2.56064 1.60898,3.32576 -0.1971,0.84194 -0.96084,0.0782 -1.93464,-1.93464 z"
     id="path4761"
     inkscape:connector-curvature="0" />
  <path
     style="color:#000000;clip-rule:nonzero;display:inline;overflow:visible;visibility:visible;opacity:1;isolation:auto;mix-blend-mode:normal;color-interpolation:sRGB;color-interpolation-filters:linearRGB;solid-color:#000000;solid-opacity:1;fill:#999999;fill-opacity:0.98000004;fill-rule:nonzero;stroke:#70e700;stroke-width:0;stroke-linecap:butt;stroke-linejoin:miter;stroke-miterlimit:4;stroke-dasharray:none;stroke-dashoffset:0;stroke-opacity:1;color-rendering:auto;image-rendering:auto;shape-rendering:auto;text-rendering:auto;enable-background:accumulate"
     d="M 78.695856,89.137907 C 76.309931,88.381358 73.577815,86.236804 72.422253,84.213492 71.742804,83.023819 70.512228,81.776022 69.446264,81.195853 68.983067,80.943747 67.847854,80.462087 66.923572,80.125497 64.45657,79.227101 61.619541,77.959311 55.861501,75.182158 42.604685,68.788279 41.267569,68.2897 39.637537,69.132623 c -1.758724,0.909471 -6.041493,-0.484558 -8.04168,-2.617545 -0.776199,-0.827733 -0.781341,-0.841711 -0.781306,-2.124126 8.8e-5,-3.290614 2.184651,-13.07091 3.607366,-16.15019 1.20238,-2.602394 2.132054,-3.211466 5.429856,-3.55735 2.686729,-0.281792 4.269067,-0.774893 6.7713,-2.110128 2.944556,-1.571267 4.172202,-1.750014 8.510921,-1.239211 1.254919,0.147743 2.321271,0.229025 2.369669,0.180625 0.107072,-0.10707 -1.566891,-4.637283 -2.385703,-6.456383 -1.712683,-3.804951 -5.123403,-7.351459 -7.744682,-8.053013 -0.491333,-0.1315 -1.809362,-0.322559 -2.928954,-0.424577 -4.187919,-0.381607 -7.34581,-2.00597 -7.296137,-3.753004 0.03157,-1.110354 0.942269,-1.590661 3.016018,-1.590661 3.27396,0 8.114551,1.807589 12.221235,4.563693 1.148837,0.771015 1.67538,1.271302 2.351891,2.234619 1.057873,1.506358 2.972525,5.246829 4.221727,8.24758 1.203597,2.891207 2.880497,6.252831 3.643872,7.304746 0.514439,0.708886 0.698401,0.837737 1.196043,0.837737 0.755346,0 3.646899,-1.455129 6.295509,-3.168114 3.734797,-2.41548 5.798115,-3.123013 8.689879,-2.979853 4.76071,0.235684 12.09036,4.539521 13.89354,8.158031 0.50511,1.013624 0.576626,1.844504 0.172119,1.999727 -0.629052,0.241391 -3.107157,-1.104537 -6.723825,-3.6519 -3.259027,-2.295464 -5.032937,-3.014978 -7.423277,-3.010947 -2.790653,0.0047 -5.396705,1.333682 -7.933559,4.045784 -1.316696,1.407654 -1.158624,2.090428 0.740794,3.199746 2.003527,1.170124 3.438966,3.016462 5.748324,7.393813 2.208877,4.186885 3.946894,6.831577 6.792378,10.335778 l 1.944124,2.394177 -0.667492,4.590634 c -1.674691,11.517581 -2.410952,14.374093 -3.946184,15.310201 -0.641399,0.391094 -1.640928,0.426601 -2.685447,0.09539 z M 74.998549,72.729246 c 1.702924,-1.358372 3.602394,-1.922667 6.485222,-1.92663 1.046575,-0.0014 1.902863,-0.06846 1.902863,-0.148937 0,-0.130816 -4.018604,-1.0858 -5.705965,-1.355969 -1.058964,-0.169555 -1.97913,0.176256 -2.712909,1.01955 -0.635183,0.729981 -1.488526,2.296911 -1.491985,2.739623 -0.0032,0.406209 0.826608,0.227675 1.522774,-0.327637 z M 73.297035,58.295038 c 0.177195,-0.169003 0.263491,-0.589572 0.259429,-1.264329 -0.0079,-1.308471 -0.818806,-3.084369 -1.903909,-4.169472 -1.486642,-1.486642 -7.481266,-4.68588 -12.615848,-6.732885 -3.159234,-1.259491 -5.035876,-1.756153 -6.095879,-1.613302 -1.674592,0.225678 -3.538222,1.525211 -3.824816,2.667094 -0.150884,0.601166 0.362509,1.13575 2.054711,2.139527 3.664742,2.173845 15.599534,7.598323 19.648166,8.930283 1.516493,0.498911 1.991568,0.50717 2.478146,0.04308 z M 43.484224,56.029024 c 0.158826,-0.632814 -0.203112,-1.551069 -1.067114,-2.707315 -0.878464,-1.175603 -2.575059,-2.872035 -2.575059,-2.574811 0,0.110709 0.47884,1.19794 1.064089,2.416066 1.45451,3.027391 2.301317,3.968788 2.578084,2.86606 z"
     id="path4763"
     inkscape:connector-curvature="0" />
  <path
     style="color:#000000;clip-rule:nonzero;display:inline;overflow:visible;visibility:visible;opacity:1;isolation:auto;mix-blend-mode:normal;color-interpolation:sRGB;color-interpolation-filters:linearRGB;solid-color:#000000;solid-opacity:1;fill:#ffffff;fill-opacity:0.98000004;fill-rule:nonzero;stroke:#70e700;stroke-width:0;stroke-linecap:butt;stroke-linejoin:miter;stroke-miterlimit:4;stroke-dasharray:none;stroke-dashoffset:0;stroke-opacity:1;color-rendering:auto;image-rendering:auto;shape-rendering:auto;text-rendering:auto;enable-background:accumulate"
     d="m 0.5457207,50.178276 0,-50.5364968 60.8031063,0 60.803103,0 0,50.5364968 0,50.536494 -60.803103,0 -60.8031063,0 0,-50.536494 z m 81.0072273,39.01541 c 1.525344,-0.942714 2.251096,-3.716746 3.862862,-14.764971 0.340863,-2.336539 0.662984,-4.498556 0.715819,-4.804485 0.08578,-0.496681 -0.07696,-0.769608 -1.520098,-2.549291 -3.2619,-4.022592 -4.723609,-6.217766 -7.081904,-10.635516 -2.472141,-4.631018 -3.636024,-6.149766 -5.765679,-7.523626 -2.12063,-1.368036 -2.136397,-1.694003 -0.172196,-3.559802 2.49651,-2.371439 4.186064,-3.219348 6.709629,-3.367249 2.140933,-0.125474 3.929907,0.452632 6.25194,2.020311 0.916015,0.618432 2.436917,1.645098 3.379783,2.281481 2.229671,1.504906 4.100882,2.428947 4.765167,2.35313 0.483398,-0.05517 0.511934,-0.104261 0.503406,-0.866017 -0.02885,-2.576996 -3.794406,-6.01371 -9.119992,-8.323543 -3.645906,-1.581316 -6.756262,-1.812604 -9.698485,-0.721185 -1.63198,0.605383 -2.225293,0.926237 -5.020911,2.715236 -2.191783,1.402587 -4.969712,2.800266 -5.565611,2.800266 -0.792063,0 -2.305646,-2.589951 -4.458336,-7.628829 -2.209493,-5.171839 -3.966287,-8.452125 -5.215514,-9.738413 -1.851022,-1.905937 -6.810493,-4.408553 -10.683442,-5.391005 -1.995269,-0.506142 -4.479905,-0.583836 -5.468001,-0.170983 -0.825285,0.344827 -1.243453,1.276178 -0.959411,2.136828 0.56313,1.706305 3.36444,2.929407 7.660887,3.344881 2.091968,0.202296 2.598381,0.31399 3.54021,0.780818 2.295236,1.137662 4.574751,3.55029 6.200076,6.562133 0.589721,1.092794 2.993851,7.113487 2.884258,7.223081 -0.02238,0.02237 -1.031672,-0.07617 -2.242882,-0.218978 -4.234148,-0.49924 -5.730557,-0.28456 -8.568926,1.229326 -2.676728,1.427673 -4.059557,1.86543 -6.75628,2.138812 -3.365168,0.341144 -4.278556,0.930757 -5.475381,3.534489 -1.394917,3.034686 -3.384669,11.789555 -3.567204,15.695629 l -0.09637,2.062256 0.831364,0.888794 c 0.902782,0.965148 2.896828,2.105253 4.513971,2.580886 1.197062,0.352079 3.304365,0.36139 3.906356,0.01726 1.308839,-0.7482 3.464976,0.03341 13.187282,4.780445 5.80524,2.834478 10.02684,4.763659 12.744756,5.824077 4.242512,1.655254 4.948123,2.126061 6.333871,4.226177 1.063403,1.611596 1.602252,2.222682 2.78217,3.155145 2.530135,1.999509 5.255976,2.78191 6.662818,1.912432 l 0,2e-6 z"
     id="path4767"
     inkscape:connector-curvature="0" />
  <path
     style="color:#000000;clip-rule:nonzero;display:inline;overflow:visible;visibility:visible;opacity:1;isolation:auto;mix-blend-mode:normal;color-interpolation:sRGB;color-interpolation-filters:linearRGB;solid-color:#000000;solid-opacity:1;fill:#ffffff;fill-opacity:0.98000004;fill-rule:nonzero;stroke:#70e700;stroke-width:0;stroke-linecap:butt;stroke-linejoin:miter;stroke-miterlimit:4;stroke-dasharray:none;stroke-dashoffset:0;stroke-opacity:1;color-rendering:auto;image-rendering:auto;shape-rendering:auto;text-rendering:auto;enable-background:accumulate"
     d="M 70.464868,57.894409 C 63.298499,55.297237 51.007391,49.4152 49.607995,47.913137 49.222596,47.499463 49.21295,47.437961 49.459434,46.965898 c 0.668491,-1.280285 2.393329,-2.244526 4.012426,-2.243077 3.193702,0.0029 16.358471,6.219235 18.407105,8.691798 1.402414,1.692618 1.952051,4.132471 1.088693,4.832721 -0.229838,0.186414 -0.468802,0.334821 -0.531032,0.329793 -0.06223,-0.005 -0.949523,-0.312254 -1.971758,-0.682724 z"
     id="path4769"
     inkscape:connector-curvature="0" />
  <path
     style="color:#000000;clip-rule:nonzero;display:inline;overflow:visible;visibility:visible;opacity:1;isolation:auto;mix-blend-mode:normal;color-interpolation:sRGB;color-interpolation-filters:linearRGB;solid-color:#000000;solid-opacity:1;fill:#ffffff;fill-opacity:0.98000004;fill-rule:nonzero;stroke:#70e700;stroke-width:0;stroke-linecap:butt;stroke-linejoin:miter;stroke-miterlimit:4;stroke-dasharray:none;stroke-dashoffset:0;stroke-opacity:1;color-rendering:auto;image-rendering:auto;shape-rendering:auto;text-rendering:auto;enable-background:accumulate"
     d="m 42.589791,55.726671 c -0.498047,-0.591895 -1.732856,-2.943642 -1.937359,-3.689784 -0.19927,-0.727047 1.822701,1.51105 2.309401,2.556251 0.683248,1.467292 0.465931,2.129408 -0.372042,1.133533 z"
     id="path4771"
     inkscape:connector-curvature="0" />
  <path
     style="color:#000000;clip-rule:nonzero;display:inline;overflow:visible;visibility:visible;opacity:1;isolation:auto;mix-blend-mode:normal;color-interpolation:sRGB;color-interpolation-filters:linearRGB;solid-color:#000000;solid-opacity:1;fill:#ffffff;fill-opacity:0.98000004;fill-rule:nonzero;stroke:#70e700;stroke-width:0;stroke-linecap:butt;stroke-linejoin:miter;stroke-miterlimit:4;stroke-dasharray:none;stroke-dashoffset:0;stroke-opacity:1;color-rendering:auto;image-rendering:auto;shape-rendering:auto;text-rendering:auto;enable-background:accumulate"
     d="m 73.651056,73.006746 c 0,-0.303891 0.991926,-1.970002 1.522469,-2.557249 1.102737,-1.220598 1.830327,-1.25664 5.734962,-0.28409 l 1.6816,0.418846 -1.520527,0.01937 c -1.582926,0.02016 -3.772127,0.48093 -4.797283,1.009698 -0.32208,0.166126 -0.935587,0.568846 -1.363349,0.894932 -0.69848,0.532457 -1.257872,0.754144 -1.257872,0.498495 z"
     id="path4773"
     inkscape:connector-curvature="0" />
  <path
     style="color:#000000;clip-rule:nonzero;display:inline;overflow:visible;visibility:visible;opacity:1;isolation:auto;mix-blend-mode:normal;color-interpolation:sRGB;color-interpolation-filters:linearRGB;solid-color:#000000;solid-opacity:1;fill:#000000;fill-opacity:0.98000004;fill-rule:nonzero;stroke:#70e700;stroke-width:0;stroke-linecap:butt;stroke-linejoin:miter;stroke-miterlimit:4;stroke-dasharray:none;stroke-dashoffset:0;stroke-opacity:1;color-rendering:auto;image-rendering:auto;shape-rendering:auto;text-rendering:auto;enable-background:accumulate"
     d="M 78.052775,88.779742 C 75.906512,87.887777 73.979629,86.246936 72.353915,83.92687 70.834642,81.758705 70.099369,81.241939 66.620777,79.897493 64.089379,78.919131 60.646472,77.359111 54.356912,74.340599 46.331732,70.489123 43.349921,69.195268 41.718445,68.856576 40.8769,68.681872 40.59923,68.704524 39.503816,69.037246 c -1.199967,0.364479 -1.308265,0.369035 -2.58462,0.10875 -1.83606,-0.374427 -3.814201,-1.363778 -4.975223,-2.488315 l -0.952447,-0.922517 3.5e-5,-1.494572 c 8.4e-5,-3.628159 2.208164,-13.285592 3.724362,-16.289162 0.660272,-1.307991 1.298955,-2.046622 2.141244,-2.476326 0.598329,-0.305244 2.667834,-0.7205 4.79196,-0.961528 1.021514,-0.115914 3.172564,-0.892466 4.963142,-1.791748 2.521124,-1.266183 2.846556,-1.356154 5.311121,-1.468339 1.241491,-0.05651 2.277002,-0.05307 2.301136,0.0076 0.02414,0.06071 0.740623,0.167413 1.592197,0.237111 1.288351,0.105444 1.565281,0.08251 1.649352,-0.136572 0.125426,-0.326854 -1.450022,-4.606493 -2.499064,-6.788606 -1.455398,-3.027386 -4.148032,-6.053131 -6.36294,-7.150121 -0.841016,-0.416534 -1.59626,-0.598307 -3.628715,-0.873363 -3.801337,-0.514442 -5.497753,-1.059221 -6.855216,-2.201451 -1.106772,-0.931287 -1.127041,-2.110653 -0.04588,-2.669742 0.648342,-0.33527 3.171169,-0.384831 4.526919,-0.08893 3.710408,0.809818 9.417904,3.650223 11.250736,5.599064 0.355062,0.377537 0.922152,1.124531 1.260201,1.659987 0.791577,1.253826 2.85251,5.381026 3.933395,7.876968 1.158541,2.67526 2.857528,6.041876 3.50619,6.947662 0.489094,0.682966 0.608217,0.752294 1.292639,0.752294 0.423131,0 0.866691,-0.112794 1.010983,-0.257086 0.141398,-0.141398 0.302472,-0.211703 0.357942,-0.156233 0.130037,0.130039 2.688085,-1.254139 5.001045,-2.706101 3.747511,-2.352502 5.753973,-3.01686 8.618679,-2.853725 4.65091,0.264853 11.527097,4.193367 13.553226,7.74325 0.660131,1.156583 0.751481,2.124126 0.20055,2.124126 -0.605856,0 -2.626548,-1.120416 -5.710683,-3.16641 -3.2746,-2.172347 -4.191417,-2.679367 -5.601446,-3.097722 -1.181635,-0.350591 -3.659338,-0.370393 -4.90321,-0.03919 -2.460797,0.655233 -6.153413,3.54157 -6.534329,5.107566 -0.09975,0.410098 -0.01173,0.585126 0.564567,1.122646 0.375508,0.35024 1.195888,1.007813 1.823066,1.461272 1.537866,1.111896 2.63064,2.60958 4.909232,6.728262 2.363898,4.272878 4.404098,7.369503 6.866914,10.42263 l 1.889661,2.342594 -0.643984,4.383805 c -1.652501,11.249093 -2.455981,14.421043 -3.87163,15.284263 -0.761563,0.464379 -2.074285,0.428957 -3.322145,-0.08964 z M 75.386621,72.59683 c 1.619579,-1.094584 2.810649,-1.450697 5.566119,-1.664189 1.338641,-0.103718 2.433894,-0.249615 2.433894,-0.324218 0,-0.27391 -4.8438,-1.313013 -6.120641,-1.313013 -1.079238,0 -1.336795,0.06423 -1.85861,0.463477 -0.699241,0.535001 -1.933337,2.524634 -1.933337,3.116959 0,0.621641 0.739575,0.51375 1.912575,-0.279016 z m -2.067151,-14.21 c 0.815165,-0.815165 0.06943,-3.689122 -1.37394,-5.294929 -2.253862,-2.507525 -14.314717,-8.260326 -18.054763,-8.611782 -2.445596,-0.229816 -5.285057,1.718154 -4.744593,3.254956 0.101086,0.287437 0.619629,0.778851 1.316909,1.248012 3.322273,2.235376 20.538988,9.948461 21.239716,9.515389 0.08453,-0.05224 0.203723,-0.01404 0.264873,0.08491 0.190805,0.308729 0.958075,0.197165 1.351798,-0.196558 z M 43.510649,55.445282 c -0.107221,-0.951265 -1.022976,-2.367368 -2.478728,-3.833047 -1.463095,-1.473074 -1.497051,-1.047564 -0.138145,1.731092 1.236308,2.527968 1.973508,3.472762 2.420352,3.101914 0.208321,-0.17289 0.260066,-0.436187 0.196521,-0.999959 z"
     id="path4779"
     inkscape:connector-curvature="0" />
</svg>
