<svg xmlns="http://www.w3.org/2000/svg" xmlns:xlink="http://www.w3.org/1999/xlink" version="1.1" x="0px" y="0px" width="100px" height="100px" viewBox="0 0 100 100" enable-background="new 0 0 100 100" xml:space="preserve">
<g id="_x31_" display="none">
	
		</g>
<g id="Layer_3" display="none">
	<g display="inline">
		<g>
			<ellipse transform="matrix(0.0298 0.9996 -0.9996 0.0298 -71.9129 -110.579)" cx="21.005" cy="-92.333" rx="14.8" ry="11"/>
			<g>
				<path d="M-91.891-146.666c-0.167,0.5-4,14.756-4,14.756s-2.999,27.744-2.5,28.244S-96.78-76-95.168-75.333      s7.445,19.506,8.611,19.503s18.5,16.497,19,16.831s25.667,3.333,26.667,3.333s28.167,0,28.667,0S7.463-52.5,7.463-52.5      l11.162-18.667L19.443-101l-2.5-14.333l-32.5-30.167l-39-10.167L-91.891-146.666z"/>
				<ellipse cx="-97.557" cy="-101.917" rx="11" ry="12.417"/>
				<ellipse transform="matrix(0.9891 -0.1471 0.1471 0.9891 10.6176 -14.9729)" cx="-95.891" cy="-79.25" rx="11" ry="12.416"/>
				<ellipse transform="matrix(0.848 -0.53 0.53 0.848 16.8361 -55.7959)" cx="-88.856" cy="-57.25" rx="11" ry="12.416"/>
				<ellipse transform="matrix(0.848 -0.53 0.53 0.848 11.2327 -44.0381)" cx="-71.16" cy="-41.602" rx="11" ry="13.617"/>
				<ellipse transform="matrix(-0.0085 -1 1 -0.0085 -8.4331 -82.532)" cx="-45.132" cy="-37.085" rx="11" ry="15.59"/>
				<ellipse transform="matrix(-0.0085 -1 1 -0.0085 21.6318 -54.7222)" cx="-16.313" cy="-38.085" rx="11" ry="15.59"/>
				<ellipse transform="matrix(-0.7908 -0.612 0.612 -0.7908 38.0961 -86.3531)" cx="4.292" cy="-49.687" rx="11" ry="12.494"/>
				<ellipse transform="matrix(-0.9486 -0.3164 0.3164 -0.9486 57.8647 -126.9775)" cx="18.625" cy="-68.186" rx="11" ry="12.494"/>
				<ellipse cx="-63.627" cy="-157.666" rx="15.597" ry="11"/>
				<ellipse transform="matrix(0.9096 -0.4156 0.4156 0.9096 54.4741 -51.0231)" cx="-89.988" cy="-150.665" rx="12.844" ry="11"/>
				
					<ellipse transform="matrix(0.0779 -0.997 0.997 0.0779 36.0403 -214.0238)" cx="-97.674" cy="-126.494" rx="14.353" ry="10.999"/>
				<ellipse cx="-34.89" cy="-151.833" rx="15.5" ry="11"/>
				<ellipse transform="matrix(0.8686 0.4955 -0.4955 0.8686 -70.4855 -14.5721)" cx="-7.766" cy="-140.192" rx="16.794" ry="11"/>
				<ellipse transform="matrix(0.617 0.787 -0.787 0.617 -88.3474 -55.3334)" cx="12.671" cy="-118.428" rx="14.799" ry="11"/>
				<ellipse cx="-98.474" cy="-171.333" rx="0.083" ry="0.333"/>
				<path fill="#000000" d="M-64.891-99.667c-0.267-0.539,17.667-34.167,68,5.667c0,0-10.178-2.167-19.422,4.5      S-55.891-81.5-64.891-99.667z"/>
			</g>
		</g>
		<g>
			<ellipse transform="matrix(-0.0298 0.9996 -0.9996 -0.0298 -10.944 -174.0432)" cx="78.996" cy="-92.333" rx="14.8" ry="11"/>
			<g>
				<path d="M191.891-146.666c0.167,0.5,4,14.756,4,14.756s2.999,27.744,2.5,28.244S196.78-76,195.169-75.333      s-7.445,19.506-8.611,19.503s-18.5,16.497-19,16.831s-25.667,3.333-26.667,3.333s-28.167,0-28.667,0S92.538-52.5,92.538-52.5      L81.376-71.167L80.558-101l2.5-14.333l32.5-30.167l39-10.167L191.891-146.666z"/>
				<ellipse cx="197.558" cy="-101.917" rx="11" ry="12.417"/>
				
					<ellipse transform="matrix(-0.9891 -0.1471 0.1471 -0.9891 401.3113 -128.8112)" cx="195.891" cy="-79.25" rx="11" ry="12.416"/>
				<ellipse transform="matrix(-0.848 -0.53 0.53 -0.848 379.3497 -5.7039)" cx="188.857" cy="-57.25" rx="11" ry="12.416"/>
				<ellipse transform="matrix(-0.848 -0.53 0.53 -0.848 338.3527 13.8342)" cx="171.16" cy="-41.602" rx="11" ry="13.617"/>
				<ellipse transform="matrix(0.0085 -1 1 0.0085 180.9798 108.3584)" cx="145.133" cy="-37.085" rx="11" ry="15.59"/>
				<ellipse transform="matrix(0.0085 -1 1 0.0085 153.406 78.5486)" cx="116.313" cy="-38.085" rx="11" ry="15.59"/>
				<ellipse transform="matrix(0.7908 -0.612 0.612 0.7908 50.4304 48.1847)" cx="95.709" cy="-49.687" rx="11" ry="12.494"/>
				<ellipse transform="matrix(0.9486 -0.3164 0.3164 0.9486 25.7516 22.2424)" cx="81.376" cy="-68.186" rx="11" ry="12.494"/>
				<ellipse cx="163.627" cy="-157.666" rx="15.597" ry="11"/>
				
					<ellipse transform="matrix(-0.9096 -0.4156 0.4156 -0.9096 425.407 -208.7498)" cx="189.989" cy="-150.665" rx="12.844" ry="11"/>
				
					<ellipse transform="matrix(-0.0779 -0.997 0.997 -0.0779 339.1743 60.7325)" cx="197.675" cy="-126.494" rx="14.353" ry="10.999"/>
				<ellipse cx="134.891" cy="-151.833" rx="15.5" ry="11"/>
				
					<ellipse transform="matrix(-0.8686 0.4955 -0.4955 -0.8686 131.908 -315.3619)" cx="107.766" cy="-140.192" rx="16.794" ry="11"/>
				<ellipse transform="matrix(-0.617 0.787 -0.787 -0.617 48.0078 -260.221)" cx="87.329" cy="-118.428" rx="14.799" ry="11"/>
				<ellipse cx="198.474" cy="-171.333" rx="0.083" ry="0.333"/>
				<path fill="#000000" d="M164.891-99.667c0.267-0.539-17.667-34.167-68,5.667c0,0,10.178-2.167,19.422,4.5      S155.891-81.5,164.891-99.667z"/>
			</g>
		</g>
	</g>
	<path display="inline" d="M72.364-6.365c0-11.886-10.013-55.279-22.364-55.279c-12.351,0-22.364,43.394-22.364,55.279   c0,10.641,8.028,19.471,18.572,21.206L50-21.732l3.793,36.573C64.337,13.106,72.364,4.276,72.364-6.365z"/>
	<path display="inline" d="M50.667,88.667c31.48,0,57-12.76,57-28.5c0,0-13.333,1.333-25.333-4.167S56.833,47.167,50,56   c-6.833-8.833-20.333-5.5-32.333,0s-25.333,4.167-25.333,4.167c0,15.74,25.52,28.5,57,28.5H50.667z"/>
	<g display="inline">
		<g>
			<path fill="none" stroke="#000000" stroke-width="5" stroke-miterlimit="10" d="M-56.665,30c0,0,9.832,39.667,66.666,31.667"/>
			
				<line fill="none" stroke="#000000" stroke-width="5" stroke-miterlimit="10" x1="-14.999" y1="44.833" x2="-23.332" y2="78.167"/>
			<line fill="none" stroke="#000000" stroke-width="5" stroke-miterlimit="10" x1="-29.958" y1="43.833" x2="-44.624" y2="64"/>
			
				<line fill="none" stroke="#000000" stroke-width="5" stroke-miterlimit="10" x1="-46.154" y1="36.083" x2="-58.654" y2="46.583"/>
		</g>
		<g>
			<path fill="none" stroke="#000000" stroke-width="5" stroke-miterlimit="10" d="M156.665,30c0,0-9.832,39.667-66.666,31.667"/>
			
				<line fill="none" stroke="#000000" stroke-width="5" stroke-miterlimit="10" x1="114.999" y1="44.833" x2="123.332" y2="78.167"/>
			<line fill="none" stroke="#000000" stroke-width="5" stroke-miterlimit="10" x1="129.958" y1="43.833" x2="144.624" y2="64"/>
			
				<line fill="none" stroke="#000000" stroke-width="5" stroke-miterlimit="10" x1="146.154" y1="36.083" x2="158.654" y2="46.583"/>
		</g>
	</g>
</g>
<g id="Layer_3_copy">
	<g>
		<path d="M23.051,53.946c1.907-0.017,3.521-0.885,4.13-2.085c0.704,1.075,2.249,1.816,4.042,1.801    c2.441-0.021,4.409-1.435,4.394-3.157c0-0.015-0.002-0.029-0.003-0.043c1.295,0.476,2.896-0.014,3.892-1.3    c0.912-1.179,1.049-2.684,0.461-3.799c0.005,0.001,0.01,0.004,0.016,0.005c1.634,0.545,3.46-0.518,4.079-2.374    c0.512-1.535,0.036-3.13-1.068-3.945c1.162-0.633,1.957-2.186,1.903-3.982c-0.064-2.122-1.289-3.837-2.817-4.071    c1.274-1.09,1.192-3.372-0.209-5.16c-1.153-1.471-2.844-2.155-4.167-1.808c0.017-0.027,0.037-0.051,0.053-0.079    c0.854-1.497-0.306-3.766-2.591-5.069c-1.762-1.005-3.674-1.138-4.851-0.461c0.002-0.044,0.009-0.086,0.009-0.131    c0-1.722-1.968-3.119-4.395-3.119c-1.574,0-2.95,0.589-3.727,1.471c0-0.002,0-0.004,0-0.006c0-1.722-1.979-3.119-4.422-3.119    s-4.422,1.396-4.422,3.119c0,0.011,0.002,0.022,0.002,0.033c-0.873-1.23-2.706-1.637-4.351-0.885    c-1.83,0.836-2.732,2.784-2.017,4.351c0.255,0.558,0.682,0.99,1.208,1.28c-1.617,0.036-3.018,1.683-3.184,3.817    c-0.14,1.797,0.637,3.389,1.835,4.019c-1.068,0.558-1.811,1.776-1.811,3.193c0,1.525,0.86,2.819,2.061,3.309    c-1.118,0.661-1.779,2.068-1.555,3.578c0.246,1.651,1.47,2.879,2.89,3.034c-1.181,1.001-1.403,2.879-0.455,4.398    c1.001,1.603,2.936,2.207,4.385,1.401c-0.181,0.948,0.017,2.05,0.632,3.036c1.13,1.808,3.231,2.534,4.691,1.621    c0.477-0.297,0.824-0.734,1.039-1.247C19.197,52.949,20.956,53.963,23.051,53.946z M36.704,34.688c0,0-2.886-0.615-5.507,1.276    c-2.621,1.89-11.223,2.269-13.774-2.883C17.346,32.928,22.431,23.393,36.704,34.688z"/>
		<path d="M94.959,32.443c0-1.417-0.743-2.635-1.811-3.193c1.198-0.63,1.976-2.222,1.835-4.019    c-0.167-2.135-1.567-3.782-3.184-3.817c0.525-0.29,0.953-0.722,1.208-1.28c0.716-1.567-0.187-3.515-2.017-4.351    c-1.646-0.752-3.477-0.345-4.35,0.885c0-0.011,0.002-0.022,0.002-0.033c0-1.722-1.98-3.119-4.423-3.119    c-2.442,0-4.422,1.396-4.422,3.119c0,0.002,0,0.004,0,0.006c-0.776-0.882-2.153-1.471-3.727-1.471    c-2.427,0-4.395,1.397-4.395,3.119c0,0.044,0.007,0.087,0.009,0.131c-1.176-0.677-3.089-0.544-4.851,0.461    c-2.285,1.304-3.445,3.573-2.591,5.069c0.016,0.028,0.036,0.052,0.053,0.079c-1.323-0.348-3.014,0.337-4.167,1.808    c-1.402,1.789-1.484,4.07-0.209,5.16c-1.529,0.234-2.754,1.949-2.817,4.071c-0.053,1.796,0.741,3.349,1.902,3.982    c-1.104,0.815-1.581,2.41-1.068,3.945c0.619,1.856,2.446,2.918,4.08,2.374c0.005-0.001,0.009-0.004,0.014-0.005    c-0.588,1.116-0.451,2.621,0.462,3.799c0.997,1.286,2.597,1.776,3.892,1.3c0,0.015-0.003,0.028-0.003,0.043    c-0.015,1.722,1.953,3.136,4.394,3.157c1.792,0.015,3.338-0.726,4.041-1.801c0.609,1.2,2.223,2.068,4.131,2.085    c2.095,0.017,3.854-0.997,4.322-2.373c0.216,0.513,0.562,0.95,1.039,1.247c1.46,0.913,3.561,0.187,4.691-1.621    c0.616-0.985,0.813-2.087,0.632-3.036c1.449,0.806,3.384,0.201,4.386-1.401c0.949-1.519,0.725-3.396-0.456-4.398    c1.419-0.155,2.644-1.383,2.89-3.034c0.225-1.51-0.437-2.917-1.555-3.578C94.1,35.262,94.959,33.968,94.959,32.443z     M68.803,35.964c-2.621-1.891-5.507-1.276-5.507-1.276c14.272-11.295,19.357-1.76,19.281-1.607    C80.026,38.232,71.425,37.854,68.803,35.964z"/>
		<path d="M48.924,65.55L50,55.18l1.075,10.37c2.99-0.492,5.266-2.996,5.266-6.013c0-3.371-2.839-15.675-6.341-15.675    c-3.502,0-6.342,12.305-6.342,15.675C43.658,62.555,45.934,65.059,48.924,65.55z"/>
		
			<line fill="none" stroke="#000000" stroke-width="0" stroke-linecap="round" stroke-linejoin="round" x1="20.442" y1="69.678" x2="20.442" y2="69.678"/>
		<path d="M80.934,70.02l-1.376-0.343c-0.03,0.121-0.264,0.988-0.911,2.133l-0.926-0.778l-0.912,1.085l1.062,0.892    c-0.676,0.92-1.603,1.904-2.857,2.778l-1.768-2.432l-1.147,0.834l1.705,2.344c-1.038,0.565-2.254,1.046-3.677,1.382l-1.008-4.031    l-1.375,0.344l0.99,3.959c-0.743,0.114-1.537,0.188-2.381,0.22c0-0.001,0-0.002,0-0.003c0,0-0.021,0.002-0.058,0.005    c-0.878,0.03-1.81,0.014-2.802-0.059c-1.284-0.135-2.839-0.447-4.324-1.127c-3.403-1.559-7.231-2.504-9.168,0    c-1.938-2.504-5.766-1.559-9.168,0c-1.483,0.68-3.038,0.991-4.32,1.126c-0.996,0.074-1.929,0.09-2.809,0.06    c-0.034-0.003-0.054-0.005-0.054-0.005c0,0.001,0,0.001,0,0.002c-0.844-0.031-1.638-0.105-2.381-0.22l0.99-3.958l-1.375-0.344    l-1.008,4.031c-1.423-0.335-2.64-0.817-3.678-1.382l1.704-2.344l-1.146-0.834l-1.768,2.431c-1.254-0.874-2.18-1.858-2.857-2.777    l1.062-0.892l-0.912-1.085l-0.926,0.778c-0.644-1.141-0.878-2.006-0.911-2.131c0,0,0-0.001,0-0.002l-0.688,0.173l-0.688,0.17    c0.019,0.076,0.312,1.219,1.199,2.703l-1.531,1.286l0.913,1.085l1.414-1.188c0.444,0.592,0.978,1.204,1.619,1.802    c0.478,0.444,0.976,0.841,1.49,1.202l-1.574,2.164l1.147,0.833l1.627-2.238c1.329,0.746,2.738,1.259,4.166,1.598l-1.017,4.068    l1.375,0.344l1.033-4.134c0.999,0.162,1.997,0.248,2.974,0.275c1.34,3.788,7.951,6.664,15.91,6.664h0.378    c7.958,0,14.569-2.876,15.91-6.664c0.977-0.027,1.975-0.113,2.974-0.275l1.034,4.134l1.375-0.344l-1.017-4.068    c1.428-0.339,2.837-0.852,4.166-1.598l1.628,2.238l1.146-0.833l-1.574-2.164c0.514-0.361,1.013-0.757,1.489-1.202    c0.642-0.598,1.176-1.21,1.62-1.802l1.414,1.188l0.912-1.085l-1.531-1.286C80.621,71.238,80.914,70.095,80.934,70.02z"/>
	</g>
</g>
</svg>