<svg xmlns="http://www.w3.org/2000/svg" xmlns:xlink="http://www.w3.org/1999/xlink" version="1.1" id="Layer_1" x="0px" y="0px" viewBox="0 0 100 100" enable-background="new 0 0 100 100" xml:space="preserve" height="100px" width="100px">
<g>
	<path fill="#000000" d="M66.4,48.3c0,0-14.3,0.1-21.6,0l-0.6,0c-5.1,0-6.2-0.1-8.9,1.2c-2.9,1.4-3.1,5.5-3.1,6   c-0.1,1-1.3,13.4-0.8,19.6c0.5,5.7,5.7,7.5,8.4,7.7l24.4,0.6c0,0,1,0.1,2.4,0.1h0c3.2,0,7.5-0.5,10-3.1c1.3-1.3,1.9-2.9,1.8-4.9   c0-0.5,0-1.8,0-3.5c0.1-8.4,0.2-16.7-0.5-18.6C76.2,48.3,70.2,48.3,66.4,48.3z M76.5,72c0,1.8,0,3.1,0,3.6c0,1.4-0.4,2.6-1.3,3.5   c-2.1,2.1-6.3,2.5-8.6,2.5h0c-1.3,0-2.1-0.1-2.2-0.1l-24.4-0.6c-0.2,0-6.1-0.5-6.5-5.9c-0.5-6.1,0.8-19.1,0.8-19.2c0,0,0-0.1,0-0.1   c0,0,0-3.4,2-4.3c1.8-0.9,2.7-1,6-1c0.6,0,1.3,0,2.1,0l0.6,0c7.3,0.1,21.6,0,21.7,0c4.2,0,8.4,0.3,9.5,3.7   C76.7,55.8,76.5,67.1,76.5,72z"/>
	<path fill="#000000" d="M85.3,53.9c0-0.3-0.2-7-6.3-10.2c-5.4-2.9-20-3.1-22.4-3.1c-0.5-0.3-1.5-1-3-1.5l14.5-17.7   c0.2,0.1,0.5,0.1,0.7,0.1c1.3,0,2.3-1,2.3-2.3c0-1.3-1-2.3-2.3-2.3s-2.3,1-2.3,2.3c0,0.3,0.1,0.5,0.1,0.8L51.5,38.5   c-0.7-0.1-1.4-0.2-2.1-0.2c-1,0-1.9,0.1-2.8,0.4c0-0.1-0.1-0.3-0.1-0.4l-16-26c0.2-0.4,0.4-0.9,0.4-1.4c0-1.5-1.2-2.6-2.6-2.6   s-2.6,1.2-2.6,2.6c0,1.5,1.2,2.6,2.6,2.6c0.2,0,0.4,0,0.6-0.1l15.9,25.8c0,0,0,0,0,0c-0.7,0.3-1.5,0.8-2.1,1.3H31   c-0.3,0-6.7,0-10.5,3.1c-4.2,3.3-4.8,7.6-5.1,9.1c0,0.3-0.1,0.7-0.2,1.2c-1.9,11-3.8,26.2,1.5,30.8c3.5,3.1,9.3,4.3,9.5,4.4   l2.2,0.5c0.3,1.7,0.8,2.4,1.6,2.4h0c0.1,0,0.3,0,0.5,0.1c0.6,0.1,1.5,0.3,2.2,0.3c0.4,0,1.5,0,1.9-0.9c0.2-0.4,0.3-1,0.4-1.5h33.7   c0.2,0.8,0.7,1.6,1.6,1.9c0.2,0.1,0.6,0.1,1.5,0.1c1.1,0,2.3-0.1,2.4-0.1c0.3,0,0.7-0.2,0.8-0.5c0.1-0.1,0.5-1,0.7-1.8   c0.6,0,1.5-0.2,2.9-0.8c2.7-1.2,7.3-4.5,7.5-9.5C86.4,74.7,85.3,54.7,85.3,53.9z M68.8,18.8c0.2,0,0.3,0.1,0.3,0.3   s-0.1,0.3-0.3,0.3s-0.3-0.1-0.3-0.3S68.6,18.8,68.8,18.8z M27.5,10.9c0-0.4,0.3-0.6,0.6-0.6s0.6,0.3,0.6,0.6c0,0.4-0.3,0.6-0.6,0.6   S27.5,11.2,27.5,10.9z M84.2,79c-0.2,4-4.1,6.8-6.3,7.8c-1.2,0.5-1.9,0.6-2.4,0.6c-0.5,0-1.5,0.1-1.6,1.3c0,0.3-0.2,0.8-0.3,1.1   c-0.4,0-1.1,0.1-1.6,0.1c-0.5,0-0.8,0-0.9,0c-0.1-0.2-0.3-0.7-0.4-1.2c-0.1-0.5-0.5-0.8-1-0.8H34.4c-0.5,0-0.9,0.4-1,0.8   c0,0.3-0.2,1.1-0.4,1.6c-0.1,0-0.1,0-0.2,0c-0.6,0-1.4-0.1-1.9-0.2c-0.1,0-0.2,0-0.3,0c-0.1-0.3-0.2-0.9-0.3-1.4   c-0.1-0.4-0.4-0.7-0.8-0.8l-2.9-0.6c-0.1,0-5.5-1.2-8.6-3.9c-3.3-2.9-3.6-12.7-0.8-29c0.1-0.5,0.2-0.9,0.2-1.2   c0.2-1.2,0.8-5,4.3-7.8c3.3-2.6,9.2-2.7,9.3-2.7h11.9c0.2,0,0.4-0.1,0.6-0.2c1.8-1.4,3.8-2.1,5.8-2.1c3.5,0,6.2,2.1,6.2,2.1   c0.2,0.1,0.4,0.2,0.6,0.2c0.2,0,16.4,0,21.8,2.9c5,2.7,5.2,8.2,5.2,8.5C83.3,54.2,84.4,74.7,84.2,79z"/>
	<path fill="#000000" d="M24.5,68.3c1.8,0,3.2-1.5,3.2-3.3c0-1.8-1.5-3.2-3.2-3.2s-3.2,1.5-3.2,3.2C21.3,66.9,22.8,68.3,24.5,68.3z    M24.5,63.8c0.7,0,1.2,0.6,1.2,1.2s-0.6,1.3-1.2,1.3s-1.2-0.6-1.2-1.3S23.9,63.8,24.5,63.8z"/>
	<path fill="#000000" d="M24.3,72c-2,0-3.6,1.6-3.6,3.6s1.6,3.6,3.6,3.6s3.6-1.6,3.6-3.6S26.3,72,24.3,72z M24.3,77.1   c-0.9,0-1.6-0.7-1.6-1.6s0.7-1.6,1.6-1.6s1.6,0.7,1.6,1.6S25.2,77.1,24.3,77.1z"/>
</g>
</svg>