<svg xmlns="http://www.w3.org/2000/svg" xmlns:xlink="http://www.w3.org/1999/xlink" version="1.1" id="Layer_1" x="0px" y="0px" width="100px" height="100px" viewBox="0 0 100 100" enable-background="new 0 0 100 100" xml:space="preserve">
<path d="M77.031,80.779l-3.637-7.834l4.367-36.49c0-14.845-12.649-26.88-28.252-26.88c-15.604,0-28.252,12.035-28.252,26.88  l4.367,36.49l-3.637,7.834h-3.188v9.646H80.22v-9.646H77.031z M60.944,38.663c3.795,0,5.417,3.08,5.417,5.083  c0,2.003-3.077,3.627-6.873,3.627c-3.795,0-6.872-3.627-6.872-3.627S57.148,38.663,60.944,38.663z M62.872,62.137  c0,0-5.982,2.171-13.363,2.171c-7.38,0-13.363-2.171-13.363-2.171s5.983-5.083,13.363-5.083  C56.89,57.054,62.872,62.137,62.872,62.137z M38.325,38.663c3.795,0,8.328,5.083,8.328,5.083s-3.077,3.627-6.872,3.627  c-3.796,0-6.873-1.624-6.873-3.627C32.908,41.743,34.529,38.663,38.325,38.663z"/>
</svg>