<svg xmlns="http://www.w3.org/2000/svg" xmlns:xlink="http://www.w3.org/1999/xlink" version="1.1" id="Your_Icon" x="0px" y="0px" width="100px" height="100px" viewBox="0 0 100 100" enable-background="new 0 0 100 100" xml:space="preserve">
<path d="M85.963,31.348c-1.436-1.721-3.403-3.008-5.811-3.855c-0.035-0.018-0.066-0.04-0.103-0.055  c-21.563-8.858-43.621-5.56-57.561,8.602c-12.036,12.226-14.804,29.806-7.41,47.028c0.002,0.004,0.005,0.006,0.006,0.01  c0.059,0.133,0.135,0.257,0.229,0.369c0.037,0.044,0.084,0.076,0.126,0.115c0.059,0.057,0.11,0.118,0.179,0.165  c0.007,0.005,0.015,0.006,0.022,0.011c0.091,0.061,0.191,0.102,0.293,0.142c0.04,0.016,0.076,0.041,0.116,0.054  C16.193,83.977,16.344,84,16.495,84c0.114,0,0.229-0.016,0.343-0.041c0.037-0.009,0.072-0.022,0.108-0.033  c0.054-0.017,0.108-0.027,0.161-0.05c0.021-0.009,0.039-0.023,0.06-0.033c0.017-0.008,0.036-0.011,0.053-0.02l70.417-37.269  c0.418-0.217,0.712-0.619,0.797-1.086C89.552,39.41,88.719,34.659,85.963,31.348z M24.69,38.207  C35.206,27.521,50.736,23.49,67.036,26.708c-5.18,0.732-10.443,2.389-14.773,4.324l-0.644,0.083l-4.518,0.221l-3.383,2.708  l-4.514,2.937l-7.226,0.148l-2.937,4.365c0,0-6.545,3.685-6.545,4.365c0,0.68-0.901,4.814-0.901,4.814l-1.054,3.014l-2.41,2.86  l-0.374,6.171l2.025,3.201c-1.612,3.549-2.877,7.142-3.754,10.7C11.708,62.334,14.774,48.28,24.69,38.207z M85.521,44.182  L18.515,79.64C21.58,63.966,33.07,47.126,47.902,36.912c5.29-3.645,15.693-7.52,24.557-7.52c3.584,0,8.424,0.685,11.131,3.935  C85.625,35.773,86.277,39.422,85.521,44.182z"/>
</svg>