<svg xmlns="http://www.w3.org/2000/svg" xmlns:xlink="http://www.w3.org/1999/xlink" xml:space="preserve" width="90px" height="90px" version="1.1" style="shape-rendering:geometricPrecision; text-rendering:geometricPrecision; image-rendering:optimizeQuality; fill-rule:evenodd; clip-rule:evenodd" viewBox="0 0 269340 269340">
 <defs>
  <style type="text/css">
   
    .fil0 {fill:#373435;fill-rule:nonzero}
   
  </style>
 </defs>
 <g id="Layer_x0020_1">
  <metadata id="CorelCorpID_0Corel-Layer"/>
  <path class="fil0" d="M12223 134670c0,33385 13361,63645 35025,85733 -9583,-15595 -15107,-33947 -15107,-53592 0,-28313 11477,-53946 30030,-72499 18553,-18557 44187,-30034 72499,-30034 28313,0 53946,11477 72499,30034 18554,18553 30031,44186 30031,72499 0,19645 -5525,37997 -15107,53592 21664,-22088 35025,-52348 35025,-85733 0,-33812 -13708,-64426 -35863,-86585 -22159,-22155 -52772,-35862 -86585,-35862 -33812,0 -64426,13707 -86585,35862 -22155,22159 -35862,52773 -35862,86585zm64281 64278c0,16065 6511,30606 17037,41133 1711,1710 3528,3315 5443,4803 -1657,-4277 -2566,-8932 -2566,-13796 0,-10561 4284,-20122 11205,-27047 6921,-6921 16486,-11205 27047,-11205 10562,0 20127,4284 27047,11205 6921,6925 11205,16486 11205,27047 0,4864 -908,9519 -2566,13796 1916,-1488 3733,-3093 5443,-4803 10527,-10527 17037,-25068 17037,-41133 0,-16062 -6510,-30603 -17037,-41129 -10522,-10527 -25067,-17037 -41129,-17037 -16061,0 -30606,6510 -41129,17037 -10526,10526 -17037,25067 -17037,41129zm-3651 33696c-5465,-10007 -8575,-21487 -8575,-33696 0,-19437 7882,-37033 20617,-49772 12739,-12738 30338,-20617 49775,-20617 19437,0 37036,7879 49775,20617 12736,12739 20618,30335 20618,49772 0,12209 -3111,23689 -8575,33696 689,-647 1371,-1308 2039,-1976 16341,-16344 26450,-38920 26450,-63857 0,-24941 -10109,-47517 -26450,-63857 -16340,-16344 -38920,-26450 -63857,-26450 -24937,0 -47516,10106 -63857,26450 -16340,16340 -26450,38916 -26450,63857 0,24937 10110,47513 26450,63857 668,668 1350,1329 2040,1976zm-33410 -2747c-24368,-24371 -39443,-58039 -39443,-95227 0,-37188 15075,-70855 39443,-95227 24372,-24368 58039,-39443 95227,-39443 37188,0 70856,15075 95227,39443 24368,24372 39443,58039 39443,95227 0,37188 -15075,70856 -39443,95227 -24081,24078 -57236,39079 -93898,39436 -442,4 -883,7 -1329,7 -445,0 -887,-3 -1329,-7 -36661,-357 -69816,-15358 -93898,-39436z"/>
 </g>
</svg>