<?xml version="1.0" encoding="utf-8"?>
<!-- Generator: Adobe Illustrator 16.0.0, SVG Export Plug-In . SVG Version: 6.00 Build 0)  -->
<!DOCTYPE svg PUBLIC "-//W3C//DTD SVG 1.1//EN" "http://www.w3.org/Graphics/SVG/1.1/DTD/svg11.dtd">
<svg version="1.1" xmlns="http://www.w3.org/2000/svg" xmlns:xlink="http://www.w3.org/1999/xlink" x="0px" y="0px" width="1400px"
	 height="700px" viewBox="0 0 1400 700" enable-background="new 0 0 1400 700" xml:space="preserve">
<g id="romeo_and_juliet">
</g>
<g id="gatsby">
</g>
<g id="big_lebowski">
</g>
<g id="_x32_001">
</g>
<g id="life_aquatic">
</g>
<g id="hobbit">
</g>
<g id="reservoir_dogs">
</g>
<g id="akira">
	<polygon fill="#FFFFFF" points="246.92,227.832 284.203,227.832 295.59,218.434 308.986,227.832 318.193,227.832 315.301,216.424 
		343.506,212.544 347.119,227.832 358.492,227.832 352.547,302.148 252.865,302.148 	"/>
	<g>
		<g>
			<path fill="#010101" d="M502.047,547.254h-4.215v16.594h2.107v3.412h-9.1v-3.412h2.107v-16.594h-4.215l-0.201,3.213h-4.014
				l0.201-6.624h21.342l0.201,6.624h-4.014L502.047,547.254z"/>
			<path fill="#010101" d="M531.35,547.254h-2.107v-3.411h9.098v3.411h-2.107v16.594h2.107v3.412h-9.098v-3.412h2.107v-6.49h-9.635
				v6.49h2.107v3.412h-9.1v-3.412h2.107v-16.594h-2.107v-3.411h9.1v3.411h-2.107v6.49h9.635V547.254z"/>
			<path fill="#010101" d="M560.65,559.901h4.016l-0.27,7.358H547.57v-3.412h2.107v-16.594h-2.51v-3.411h17.129l0.201,6.89h-4.016
				l-0.199-3.479h-5.721v6.157h5.887v3.613h-5.887v6.823h5.82L560.65,559.901z"/>
			<path fill="#010101" d="M592.793,547.254h-2.508v-3.411h8.998c3.312,0,5.053,0.134,6.559,1.105
				c1.236,0.8,2.441,2.272,2.441,4.716c0,3.781-3.078,5.287-4.783,5.287v0.064c3.244,0,6.188,1.976,6.188,5.787
				c0,3.079-2.342,6.457-8.799,6.457h-10.402v-3.412h2.307V547.254z M597.678,553.411h2.275c2.006,0,3.646-1.105,3.646-3.213
				c0-1.973-1.271-2.944-3.58-2.944h-2.342V553.411z M597.678,563.848h2.643c2.844,0,4.082-1.539,4.082-3.411
				c0-1.809-1.406-3.213-3.881-3.213h-2.844V563.848z"/>
			<path fill="#010101" d="M621.158,547.254h-2.107v-3.411h9.1v3.411h-2.107v16.594h2.107v3.412h-9.1v-3.412h2.107V547.254z"/>
			<path fill="#010101" d="M650.629,555.684h9.234v3.613h-2.143v7.26c-2.742,0.736-5.084,1.105-7.895,1.105
				c-7.828,0-12.512-4.651-12.512-11.944c0-6.487,4.082-12.275,12.879-12.275c3.814,0,6.023,0.77,7.863,1.405v6.523h-4.217v-3.848
				c-1.137-0.37-2.408-0.468-3.311-0.468c-5.922,0-7.93,4.08-7.93,8.362c0,3.546,1.539,8.43,7.896,8.43
				c1.002,0,1.672-0.066,2.543-0.201v-4.35h-2.41V555.684z"/>
			<path fill="#010101" d="M698.16,559.666h4.049l-0.334,7.594h-16.729v-3.412h2.107v-16.594h-2.107v-3.411h9.1v3.411h-2.107v16.594
				h5.754L698.16,559.666z"/>
			<path fill="#010101" d="M723.916,559.901h4.016l-0.268,7.358h-16.828v-3.412h2.107v-16.594h-2.508v-3.411h17.127l0.201,6.89
				h-4.014l-0.201-3.479h-5.721v6.157h5.887v3.613h-5.887v6.823h5.82L723.916,559.901z"/>
			<path fill="#010101" d="M739.469,547.254h-2.508v-3.411h8.998c3.312,0,5.053,0.134,6.559,1.105
				c1.236,0.8,2.441,2.272,2.441,4.716c0,3.781-3.078,5.287-4.783,5.287v0.064c3.244,0,6.188,1.976,6.188,5.787
				c0,3.079-2.342,6.457-8.799,6.457h-10.402v-3.412h2.307V547.254z M744.354,553.411h2.275c2.006,0,3.646-1.105,3.646-3.213
				c0-1.973-1.271-2.944-3.58-2.944h-2.342V553.411z M744.354,563.848h2.643c2.844,0,4.082-1.539,4.082-3.411
				c0-1.809-1.406-3.213-3.881-3.213h-2.844V563.848z"/>
			<path fill="#010101" d="M777.102,543.442c7.963,0,11.576,5.217,11.576,12.11c0,6.588-3.379,12.109-11.576,12.109
				c-8.195,0-11.574-5.521-11.574-12.109C765.527,549.163,769.709,543.442,777.102,543.442z M777.102,563.848
				c4.617,0,6.289-3.781,6.289-8.295c0-4.518-1.873-8.299-6.289-8.299s-6.289,3.781-6.289,8.299
				C770.812,560.066,772.484,563.848,777.102,563.848z"/>
			<path fill="#010101" d="M823.465,543.843h9.1v3.411h-1.873l-7.83,20.006h-5.184l-3.715-10.971h-0.066l-4.014,10.971h-5.287
				l-7.828-20.006h-1.871v-3.411h9.498v3.411h-1.973l4.584,13.384c0.299,0.868,0.568,1.839,0.703,2.81h0.066
				c0.131-0.971,0.4-1.941,0.703-2.81l3.512-10.104l-1.207-3.28h-2.207v-3.411h9.301v3.411h-2.107l4.115,13.384
				c0.268,0.868,0.535,1.839,0.67,2.81h0.066c0.133-0.971,0.4-1.941,0.703-2.81l4.582-13.384h-2.441V543.843z"/>
			<path fill="#010101" d="M853.133,547.422c-0.869-0.302-2.008-0.568-3.145-0.568c-3.246,0-4.281,1.674-4.281,2.979
				c0,1.704,1.236,2.208,2.775,2.574l2.811,0.703c3.445,0.87,7.26,2.006,7.26,6.856c0,4.45-3.012,7.696-9.67,7.696
				c-2.574,0-5.25-0.268-8.396-1.304v-6.19h4.885v3.078c1.24,0.501,2.578,0.602,3.949,0.602c2.877,0,4.146-1.371,4.146-3.146
				c0-1.203-0.668-2.074-3.814-2.877l-2.574-0.669c-4.816-1.237-6.457-3.109-6.457-6.723c0-3.714,2.609-6.991,9.234-6.991
				c2.842,0,5.686,0.468,7.693,1.237v5.586h-4.416V547.422z"/>
			<path fill="#010101" d="M868.082,563.848h2.107v-16.594h-2.107v-3.411h9.1v3.411h-2.107v7.462l6.289-5.923
				c0.904-0.836,1.473-1.27,2.039-1.472v-0.067h-2.473v-3.411h9.502v3.411h-1.842l-8.633,7.728l9.035,8.866h1.873v3.412h-10.305
				v-3.412h2.744v-0.066c-0.504-0.334-1.172-0.804-1.605-1.204l-6.625-6.456v7.727h2.107v3.412h-9.1V563.848z"/>
			<path fill="#010101" d="M901.029,547.254h-2.107v-3.411h9.102v3.411h-2.107v16.594h2.107v3.412h-9.102v-3.412h2.107V547.254z"/>
		</g>
		<g>
			<g>
				<g>
					<rect x="487.578" y="180.115" fill="#C4A006" width="164.676" height="126.068"/>
					<path d="M656.113,310.043H483.719V176.256h172.395V310.043z M491.438,302.324h156.957v-118.35H491.438V302.324z"/>
				</g>
				<g>
					<rect x="505.59" y="198.126" fill="#F1645D" width="128.652" height="90.047"/>
					<path d="M638.102,292.032H501.73v-97.766h136.371V292.032z M509.449,284.313h120.934v-82.328H509.449V284.313z"/>
				</g>
				<g>
					<polygon fill="#C4A006" points="534.752,243.153 569.916,218.676 605.08,243.149 569.916,267.629 					"/>
					<path d="M569.916,272.331l-41.92-29.178l41.92-29.18l41.92,29.176L569.916,272.331z M541.508,243.153l28.408,19.773
						l28.408-19.777l-28.408-19.771L541.508,243.153z"/>
				</g>
				<rect x="652.254" y="176.256" width="19.721" height="7.719"/>
				<rect x="652.254" y="190.264" width="19.721" height="7.719"/>
				<rect x="652.254" y="204.272" width="19.721" height="7.719"/>
				<rect x="652.254" y="218.278" width="19.721" height="7.719"/>
				<rect x="652.254" y="232.287" width="19.721" height="7.719"/>
				<rect x="652.254" y="246.295" width="19.721" height="7.719"/>
				<rect x="652.254" y="260.302" width="19.721" height="7.719"/>
				<rect x="652.254" y="274.31" width="19.721" height="7.719"/>
				<rect x="652.254" y="288.318" width="19.721" height="7.719"/>
				<rect x="652.254" y="302.324" width="19.721" height="7.719"/>
				<rect x="467.857" y="176.256" width="19.721" height="7.719"/>
				<rect x="467.857" y="190.264" width="19.721" height="7.719"/>
				<rect x="467.857" y="204.272" width="19.721" height="7.719"/>
				<rect x="467.857" y="218.278" width="19.721" height="7.719"/>
				<rect x="467.857" y="232.287" width="19.721" height="7.719"/>
				<rect x="467.857" y="246.295" width="19.721" height="7.719"/>
				<rect x="467.857" y="260.302" width="19.721" height="7.719"/>
				<rect x="467.857" y="274.308" width="19.721" height="7.719"/>
				<rect x="467.857" y="288.318" width="19.721" height="7.719"/>
				<rect x="467.857" y="302.324" width="19.721" height="7.719"/>
			</g>
			<g>
				<g>
					<circle fill="#C4A006" cx="1086.324" cy="243.149" r="74.615"/>
					<path d="M1086.326,321.627c-43.272,0-78.477-35.205-78.477-78.478c0-43.271,35.204-78.473,78.477-78.473
						c43.271,0,78.473,35.202,78.473,78.473C1164.799,286.422,1129.597,321.627,1086.326,321.627z M1086.326,172.396
						c-39.016,0-70.758,31.74-70.758,70.754c0,39.017,31.742,70.759,70.758,70.759c39.014,0,70.754-31.742,70.754-70.759
						C1157.08,204.136,1125.34,172.396,1086.326,172.396z"/>
				</g>
				<g>
					<path d="M1081.1,198.217c0,5.85-4.74,10.588-10.59,10.588c-5.844,0-10.588-4.738-10.588-10.588
						c0-5.845,4.744-10.585,10.588-10.585C1076.359,187.632,1081.1,192.372,1081.1,198.217z"/>
					<path d="M1112.725,198.217c0,5.85-4.738,10.588-10.584,10.588c-5.85,0-10.588-4.738-10.588-10.588
						c0-5.845,4.738-10.585,10.588-10.585C1107.986,187.632,1112.725,192.372,1112.725,198.217z"/>
					<path d="M1096.914,233.381c0,5.849-4.744,10.587-10.588,10.587c-5.852,0-10.59-4.738-10.59-10.587
						c0-5.846,4.738-10.586,10.59-10.586C1092.17,222.795,1096.914,227.535,1096.914,233.381z"/>
				</g>
			</g>
			<g>
				<g>
					<path fill="#FFFFFF" d="M789.832,297.872c0,0-2.062-21.378-0.117-51.843c1.945-30.47,12.91-39.853,12.91-39.853
						c4.861-23.323,23.402-38.43,42.609-33.294c19.211,5.131,34.99,21.299,34.99,33.294c0,33.048-7.773,39.853-7.773,39.853
						s15.551,17.829,0,54.764"/>
					<path d="M876.009,302.291l-7.115-2.996c14.299-33.959,1.193-50.083,0.628-50.753l-2.665-3.16l2.984-2.206
						c0.647-0.779,6.524-8.647,6.524-36.999c0-9.704-14.034-24.732-32.127-29.565c-6.91-1.848-13.925-0.756-20.283,3.162
						c-8.665,5.336-15.062,15.247-17.552,27.19l-0.269,1.289l-1,0.856c-0.061,0.055-9.778,9.134-11.568,37.166
						c-1.9,29.761,0.087,51.016,0.107,51.227l-7.684,0.741c-0.085-0.886-2.07-22.036-0.127-52.46
						c1.7-26.63,10.233-38.223,13.228-41.514c3.089-13.517,10.633-24.797,20.816-31.069c8.21-5.056,17.311-6.458,26.324-4.046
						c20.164,5.386,37.853,22.686,37.853,37.022c0,24.398-4.109,35.331-6.881,39.929
						C881.182,252.609,889.109,271.175,876.009,302.291z"/>
				</g>
				<g>
					<path fill="#C4A006" d="M789.832,297.872c-1.662-14.916,14.254-24.293,40.98-24.293c26.729,0,41.639,7.764,41.639,24.293
						c0,10.699-26.727,16.042-41.369,16.529C816.438,314.889,790.912,307.551,789.832,297.872z"/>
					<path d="M829.668,318.284c-14.463,0-42.208-6.863-43.672-19.984c-0.678-6.08,1.101-11.681,5.142-16.196
						c7.146-7.986,21.235-12.384,39.675-12.384c20.756,0,45.498,4.884,45.498,28.152c0,15.416-33.399,19.997-45.101,20.387
						C830.708,318.275,830.192,318.284,829.668,318.284z M830.812,277.438c-15.979,0-28.343,3.576-33.922,9.812
						c-2.608,2.915-3.662,6.25-3.223,10.194c0.643,5.763,20.83,13.12,36,13.12c0.437,0,0.867-0.007,1.286-0.021
						c20.27-0.675,37.638-7.531,37.638-12.672C868.592,284.313,855.881,277.438,830.812,277.438z"/>
				</g>
				<path fill="#F1645D" d="M815.619,295.449c-0.623-5.588,5.342-9.105,15.363-9.105s15.609,2.909,15.609,9.105
					c0,4.011-10.021,6.021-15.51,6.202C825.59,301.832,816.021,299.084,815.619,295.449z"/>
				<path fill="#F1645D" d="M830.221,186.166c15.758-2.71,36.324,7.693,26.746,35.574c0,0-26.312-10.366-40.518-8.783
					C811.182,213.544,821.379,187.688,830.221,186.166z"/>
			</g>
			<g>
				
					<rect x="230.724" y="193.864" transform="matrix(0.298 0.9546 -0.9546 0.298 372.841 -111.5513)" fill="#F1645D" width="63.084" height="7.72"/>
				<path fill="#C4A006" d="M352.547,302.18c0,0.593-2.109,1.07-4.713,1.07H257.58c-2.604,0-4.715-0.478-4.715-1.07V281.65
					c0-0.588,2.111-1.07,4.715-1.07h90.254c2.604,0,4.713,0.482,4.713,1.07V302.18z"/>
				<path d="M352.547,306.008h-99.682c-2.013,0-3.687-1.546-3.848-3.552l-8.678-108.5c-0.086-1.073,0.281-2.135,1.012-2.926
					s1.759-1.241,2.836-1.241h117.039c1.077,0,2.105,0.45,2.836,1.241c0.73,0.792,1.098,1.853,1.012,2.926l-8.68,108.5
					C356.233,304.462,354.56,306.008,352.547,306.008z M256.429,298.289h92.555l8.062-100.781H248.368L256.429,298.289z"/>
				<path d="M358.492,231.691h-11.373c-1.79,0-3.345-1.23-3.756-2.972l-2.807-11.874l-20.454,2.813l1.832,7.225
					c0.293,1.154,0.036,2.379-0.695,3.318s-1.855,1.489-3.046,1.489h-9.207c-0.793,0-1.567-0.244-2.217-0.7l-10.99-7.71
					l-9.119,7.527c-0.691,0.571-1.561,0.883-2.457,0.883H246.92v-7.719h35.896l10.316-8.516c1.341-1.107,3.252-1.182,4.674-0.183
					l12.398,8.698h3.028l-1.674-6.601c-0.27-1.064-0.073-2.193,0.54-3.104c0.614-0.911,1.587-1.518,2.675-1.667l28.205-3.88
					c1.976-0.272,3.825,1,4.282,2.936l2.911,12.316h8.319V231.691z"/>
			</g>
		</g>
		<g>
			<polygon points="316.672,451.473 322.957,430.028 329.236,451.473 			"/>
			<polygon points="356.361,451.473 362.643,430.028 368.928,451.473 			"/>
			<polygon points="237.295,451.473 243.58,430.028 249.857,451.473 			"/>
			<polygon points="276.984,451.473 283.266,430.028 289.551,451.473 			"/>
			<polygon points="396.047,451.473 402.332,430.028 408.617,451.473 			"/>
			<polygon points="435.74,451.473 442.023,430.028 448.303,451.473 			"/>
			<polygon points="515.115,451.473 521.4,430.028 527.682,451.473 			"/>
			<polygon points="475.43,451.473 481.711,430.028 487.992,451.473 			"/>
			<polygon points="554.805,451.473 561.09,430.028 567.373,451.473 			"/>
			<polygon points="594.496,451.473 600.777,430.028 607.061,451.473 			"/>
			<polygon points="634.184,451.473 640.467,430.028 646.748,451.473 			"/>
			<polygon points="673.871,451.473 680.156,430.028 686.438,451.473 			"/>
			<polygon points="753.25,451.473 759.533,430.028 765.816,451.473 			"/>
			<polygon points="713.561,451.473 719.846,430.028 726.127,451.473 			"/>
			<polygon points="832.629,451.473 838.912,430.028 845.195,451.473 			"/>
			<polygon points="792.939,451.473 799.221,430.028 805.506,451.473 			"/>
			<polygon points="872.316,451.473 878.6,430.028 884.883,451.473 			"/>
			<polygon points="912.006,451.473 918.291,430.028 924.572,451.473 			"/>
			<polygon points="951.697,451.473 957.979,430.028 964.262,451.473 			"/>
			<polygon points="991.385,451.473 997.67,430.028 1003.951,451.473 			"/>
			<polygon points="1031.074,451.473 1037.357,430.028 1043.641,451.473 			"/>
			<polygon points="1110.453,451.473 1116.738,430.028 1123.016,451.473 			"/>
			<polygon points="1070.764,451.473 1077.045,430.028 1083.328,451.473 			"/>
			<polygon points="1150.141,451.473 1156.422,430.028 1162.705,451.473 			"/>
		</g>
	</g>
</g>
</svg>
