<svg xmlns="http://www.w3.org/2000/svg" xmlns:xlink="http://www.w3.org/1999/xlink" version="1.1" id="Layer_1" x="0px" y="0px" width="100px" height="100px" viewBox="0 0 100 100" enable-background="new 0 0 100 100" xml:space="preserve">
<g>
	<path d="M29.106,31.295c0,0-9.335-4.67-2.969-15.277c6.365-10.607,16.12-14.851,16.12-14.851s5.947-4.669,13.159,4.668   L29.106,31.295z"/>
	<path d="M68.676,69.064c0,0,4.674,9.335,15.274,2.971c10.61-6.367,14.854-16.125,14.854-16.125s4.669-5.942-4.669-13.156   L68.676,69.064z"/>
	<polygon points="32.075,56.333 43.533,67.791 55.417,56.333 65.172,64.393 87.666,41.479 57.535,12.2 35.471,33.418 43.958,44.452     "/>
	<rect x="14.117" y="59.335" transform="matrix(0.7032 0.711 -0.711 0.7032 62.3948 8.916)" width="12.803" height="39.706"/>
	<circle cx="6.402" cy="93.146" r="6.402"/>
</g>
</svg>