<svg xmlns="http://www.w3.org/2000/svg" xmlns:xlink="http://www.w3.org/1999/xlink" version="1.1" x="0px" y="0px" width="100px" height="100px" viewBox="0 0 100 100" enable-background="new 0 0 100 100" xml:space="preserve">
<g id="Captions">
</g>
<g id="Your_Icon">
	<g>
		<path d="M66.092,57.413l6.814-3.987l8.287,10.28c0,0,1.444,3.892-2.104,3.447c-3.549-0.443-6.211-2.512-8.43-4.878    C68.443,59.91,66.092,57.413,66.092,57.413z"/>
		<path d="M76.024,51.091l3.667,3.809l11.741,3.386c0,0,3.777,1.269,6.032-0.423c2.26-1.694,3.246-4.495,0-5.211    c-3.243-0.716-15.939-5.229-15.939-5.229l-5.501,3.104"/>
		<polygon points="56.725,55 51.786,55 49,61.779 49,100 60,100 60,61.779   "/>
		<polygon points="51.762,46 56.699,46 60,39.221 60,0 49,0 49,39.221   "/>
		<path d="M88.979,30.019c0,0-15.103,8.841-20.138,11.358c-5.034,2.518-7.582,3.754-7.582,3.754L59.19,48h-9.228l-2.571-2.373    c0,0-17.81-5.277-21.45-7.988c-3.227-2.402-5.496-0.549-5.496-0.549L0,43.085v26.398l22.13-14.326l10.251,10.071    c0,0,0.209,13.579,0.209,16.098c0,2.517-0.749,9.43,4.348,10.411c3.526,0.68,5.594-5.188,5.885-7.688    c0.735-6.291,1.566-21.247,1.566-21.247L51.224,53h7.137l3.229,4.269c0,0,21.097-13.477,24.873-15.995    c3.775-2.518,5.034-3.745,6.293-8.778C94.013,27.462,88.979,30.019,88.979,30.019z"/>
	</g>
</g>
</svg>