<svg xmlns="http://www.w3.org/2000/svg" xmlns:xlink="http://www.w3.org/1999/xlink" version="1.1" id="Layer_1" x="0px" y="0px" width="50px" height="50px" viewBox="0 0 50 50" enable-background="new 0 0 50 50" xml:space="preserve">
<g>
	<path fill="#000000" d="M42.37,14.838c-0.43,0-0.846,0.053-1.256,0.122c-1.689-3.792-5.654-6.454-10.277-6.454   c-1.376,0-2.684,0.254-3.901,0.688c-1.173-0.816-2.601-1.31-4.154-1.31c-3.287,0-6.025,2.163-6.868,5.093   c-0.451-0.094-0.917-0.156-1.399-0.156c-2.969,0-5.451,1.87-6.275,4.426c-0.383-0.066-0.775-0.111-1.179-0.111   c-3.64,0-6.59,2.793-6.59,6.238c0,3.447,2.951,6.24,6.59,6.24c0.397,0,0.779-0.047,1.156-0.109   c-0.472-0.652-0.801-1.398-0.986-2.197c1.063,1.619,2.907,2.713,5.034,2.789l-2.767,9.109l6.656-10.283   c0.15-0.105,0.311-0.201,0.451-0.32c0.72,1.209,1.801,2.182,3.095,2.795l-3.254,10.719l6.493-10.033   c1.668-0.037,3.179-0.637,4.38-1.6c0.127,0.146,0.266,0.283,0.404,0.418L25,39.869l4.865-7.518   c0.883,0.389,1.858,0.613,2.896,0.613c3.172,0,5.832-2.016,6.772-4.793c0.87,0.365,1.828,0.572,2.837,0.572   c3.955,0,7.16-3.113,7.16-6.954C49.53,17.952,46.325,14.838,42.37,14.838z"/>
</g>
</svg>