<svg xmlns="http://www.w3.org/2000/svg" xmlns:xlink="http://www.w3.org/1999/xlink" version="1.1" id="Layer_1" x="0px" y="0px" width="100px" height="100px" viewBox="0 0 100 100" enable-background="new 0 0 100 100" xml:space="preserve">
<path d="M77.735,32.046H21.949c-11.259,0-20.389,8.919-20.389,19.92v26.279c0,11.001,9.129,19.921,20.389,19.921h55.786  c11.259,0,20.391-8.92,20.391-19.921V51.967C98.126,40.966,88.994,32.046,77.735,32.046z M73.211,88.761H17.552V40.899h55.659  V88.761z M83.33,76.308c-3.597,0-6.514-2.846-6.514-6.36c0-3.516,2.917-6.362,6.514-6.362s6.515,2.847,6.515,6.362  C89.845,73.462,86.927,76.308,83.33,76.308z M83.33,56.944c-3.597,0-6.514-2.846-6.514-6.362c0-3.514,2.917-6.363,6.514-6.363  s6.515,2.849,6.515,6.363C89.845,54.099,86.927,56.944,83.33,56.944z"/>
<path d="M67.115,30.356L67.115,30.356c0-7.104-5.893-12.865-13.167-12.865h-8.21c-7.274,0-13.168,5.76-13.168,12.865l0,0H67.115z"/>
<path d="M75.014,3.584c1.892,1.935,2.37,4.48,1.074,5.688L60.683,23.618c-1.298,1.204-3.877,0.615-5.766-1.323l0,0  c-1.889-1.936-2.369-4.482-1.073-5.688L69.249,2.261C70.545,1.055,73.126,1.647,75.014,3.584L75.014,3.584z"/>
<path d="M25.498,2.729c1.998-1.832,4.606-2.279,5.833-1.002l14.559,15.165c1.221,1.277,0.597,3.793-1.4,5.622l0,0  c-1.998,1.83-4.608,2.278-5.833,1.001L24.097,8.351C22.873,7.075,23.501,4.559,25.498,2.729L25.498,2.729z"/>
</svg>