<?xml version="1.0" encoding="utf-8"?>
<!-- Generator: Adobe Illustrator 16.0.0, SVG Export Plug-In . SVG Version: 6.00 Build 0)  -->
<!DOCTYPE svg PUBLIC "-//W3C//DTD SVG 1.1//EN" "http://www.w3.org/Graphics/SVG/1.1/DTD/svg11.dtd">
<svg version="1.1" id="Layer_1" xmlns="http://www.w3.org/2000/svg" xmlns:xlink="http://www.w3.org/1999/xlink" x="0px" y="0px"
	 width="99.999px" height="100px" viewBox="-18 -18 99.999 100" enable-background="new -18 -18 99.999 100" xml:space="preserve">
<path fill="#231F20" d="M47.341,69.83c-1.97,1.813-4.789,3.21-5.897,5.308c-1.206,2.284-0.332,5.112,1.946,6.322
	c2.282,1.203,5.112,0.331,6.318-1.951c1.108-2.098,0.684-5.214,1.067-7.865c0.582-3.973,1.247-6.512,1.247-6.512
	S50.3,67.108,47.341,69.83z"/>
<path fill="#231F20" d="M22.753,69.83c-1.976,1.813-4.789,3.21-5.896,5.308c-1.208,2.284-0.333,5.112,1.942,6.322
	c2.285,1.203,5.114,0.331,6.322-1.951c1.107-2.098,0.679-5.214,1.066-7.865c0.58-3.973,1.249-6.512,1.249-6.512
	C27.434,65.132,25.711,67.108,22.753,69.83z"/>
<path fill="#231F20" d="M-1.834,69.83c-1.974,1.813-4.789,3.21-5.895,5.308c-1.208,2.284-0.337,5.112,1.943,6.322
	c2.285,1.203,5.112,0.331,6.321-1.951c1.106-2.098,0.68-5.214,1.067-7.865c0.578-3.973,1.244-6.512,1.244-6.512
	S1.125,67.108-1.834,69.83z"/>
<path fill="#231F20" d="M-0.895,60.168v0.072h55.146c8.303,0,15.039-6.736,15.039-15.037c0-8.305-6.736-15.041-15.039-15.041
	c-0.859,0-1.692,0.088-2.514,0.226c-2.772-8.89-10.795-15.453-20.434-16.088v0.017c-0.509-0.035-1.013-0.078-1.53-0.078
	c-0.702,0-1.389,0.042-2.072,0.103c-0.178,0.019-0.358,0.033-0.535,0.054c-0.63,0.072-1.256,0.163-1.871,0.285
	c-0.05,0.007-0.104,0.016-0.152,0.026c-0.636,0.129-1.257,0.296-1.875,0.478c-0.201,0.06-0.402,0.122-0.599,0.187
	c-0.495,0.159-0.979,0.337-1.454,0.53c-0.19,0.078-0.382,0.152-0.573,0.235c-0.485,0.209-0.956,0.438-1.422,0.679
	c-0.243,0.127-0.485,0.256-0.724,0.394c-0.324,0.185-0.646,0.382-0.965,0.583c-0.369,0.233-0.728,0.474-1.082,0.728
	c-0.285,0.206-0.572,0.411-0.85,0.629c-0.269,0.212-0.531,0.433-0.793,0.654c-0.198,0.172-0.387,0.348-0.578,0.524
	c-0.463,0.425-0.909,0.872-1.334,1.331c-0.145,0.159-0.29,0.311-0.43,0.472c-0.254,0.287-0.493,0.583-0.731,0.883
	c-0.134,0.171-0.265,0.344-0.391,0.518c-0.194,0.263-0.369,0.543-0.554,0.813c-2.087,3.315-3.313,7.228-3.32,11.437H4.235
	c0-4.141,1.032-8.041,2.827-11.468c-2.019-0.771-4.189-1.23-6.478-1.23C-9.677,23.087-18,31.403-18,41.664
	C-18,51.426-10.464,59.413-0.895,60.168z"/>
<path fill="#231F20" d="M53.498,5.352c-2.89-1.838-6.119-2.716-9.318-2.716c-5.704,0-11.293,2.802-14.62,7.908
	c0.072-0.002,0.144-0.006,0.212-0.006c0.546,0,1.082,0.036,1.619,0.074l0.155-0.005c9.919,0.653,18.687,6.896,22.663,15.853h0.038
	c1.982,0,3.894,0.315,5.689,0.889C63.541,19.567,60.926,10.083,53.498,5.352z"/>
<path fill="#231F20" d="M15.563,14.655c0.362-0.228,0.728-0.451,1.104-0.665c0.281-0.159,0.564-0.313,0.854-0.463
	c0.588-0.306,1.127-0.565,1.635-0.783c0.176-0.078,0.35-0.146,0.528-0.219l0.148-0.057c0.568-0.231,1.142-0.439,1.674-0.611
	c0.235-0.076,0.47-0.152,0.721-0.226c0.82-0.24,1.511-0.415,2.114-0.539c0.102-0.021,0.215-0.042,0.319-0.06
	c0.14-0.025,0.294-0.048,0.438-0.075c0.369-0.771,0.771-1.53,1.233-2.262C30.226,2.584,36.9-1.068,44.18-1.068
	c4.015,0,7.923,1.139,11.309,3.296c4.748,3.024,8.036,7.726,9.263,13.243c1.009,4.557,0.489,9.198-1.422,13.35
	c1.382,0.769,2.644,1.711,3.783,2.789c1.125-0.674,2.564-1.07,4.268-1.087l10.619-0.113l-9.246-5.548
	c-5.072-3.052-5.521-8.342-0.998-11.752L79.994,6.9L69.418,7.587c-5.802,0.373-9.331-3.783-7.84-9.24l2.713-9.937l-7.855,6.663
	c-4.312,3.657-9.57,2.218-11.688-3.2L40.897-18L38.756-7.909c-1.175,5.545-6.162,7.372-11.073,4.062l-8.94-6.034l4.391,9.672
	c2.406,5.312-0.391,9.704-6.22,9.767L6.29,9.672l8.818,5.291C15.259,14.863,15.404,14.757,15.563,14.655z"/>
</svg>
