<svg xmlns="http://www.w3.org/2000/svg" xmlns:xlink="http://www.w3.org/1999/xlink" version="1.1" id="Layer_1" x="0px" y="0px" width="90px" height="90px" viewBox="0 0 90 90" enable-background="new 0 0 90 90" xml:space="preserve">
<path d="M85.243,50.877c-2.62-1.15-5.678,0.043-6.825,2.665c-0.15,0.341-0.254,0.689-0.327,1.04l-10.332-4.524  c1.158-2.853,1.809-5.965,1.809-9.232c0-0.964-0.069-1.91-0.177-2.845l9.101-3.558c0.06,0.352,0.15,0.704,0.287,1.05  c1.045,2.665,4.045,3.981,6.712,2.938c2.664-1.041,3.982-4.045,2.941-6.711c-0.715-1.817-2.34-2.982-4.143-3.226  c1.161-1.402,1.565-3.361,0.854-5.178c-1.045-2.665-4.046-3.98-6.709-2.938c-2.668,1.04-3.985,4.044-2.942,6.71  c0.136,0.347,0.308,0.667,0.505,0.966l-8.347,3.263c-3.721-8.837-12.459-15.04-22.649-15.04c-9.824,0-18.277,5.779-22.208,14.11  l-8.135-3.562c0.208-0.29,0.392-0.604,0.542-0.944c1.148-2.622-0.045-5.676-2.666-6.824c-2.624-1.146-5.678,0.045-6.826,2.667  c-0.783,1.786-0.456,3.76,0.646,5.209c-1.811,0.172-3.483,1.27-4.266,3.056c-1.146,2.624,0.052,5.678,2.67,6.823  c2.622,1.149,5.673-0.044,6.821-2.666c0.148-0.34,0.255-0.688,0.327-1.038l8.857,3.879c-0.199,1.259-0.333,2.542-0.333,3.857  c0,2.937,0.542,5.74,1.487,8.353L11.504,53.25c-0.059-0.352-0.15-0.704-0.286-1.052c-1.042-2.665-4.044-3.981-6.711-2.938  c-2.664,1.041-3.98,4.046-2.939,6.711c0.711,1.817,2.336,2.982,4.139,3.226c-1.16,1.402-1.564,3.361-0.853,5.178  c1.042,2.665,4.047,3.979,6.709,2.938c2.667-1.042,3.982-4.044,2.939-6.71c-0.135-0.347-0.307-0.667-0.502-0.966l11.161-4.362  c1.853,2.54,4.176,4.704,6.848,6.375v9.53c0,1.415,1.148,2.563,2.563,2.563c1.416,0,2.564-1.148,2.564-2.563v-7.095  c0.597,0.201,1.207,0.372,1.822,0.528v6.566c0,1.415,1.148,2.563,2.563,2.563c1.416,0,2.564-1.148,2.564-2.563v-5.833  c0.305,0.012,0.605,0.046,0.915,0.046c0.307,0,0.604-0.034,0.907-0.046v5.833c0,1.415,1.148,2.563,2.563,2.563  s2.563-1.148,2.563-2.563v-6.564c0.618-0.157,1.229-0.327,1.826-0.53v7.095c0,1.415,1.148,2.563,2.563,2.563  s2.563-1.148,2.563-2.563V61.65c2.41-1.506,4.54-3.408,6.294-5.632l11.059,4.844c-0.207,0.29-0.393,0.604-0.541,0.944  c-1.146,2.622,0.045,5.675,2.67,6.823c2.62,1.148,5.675-0.045,6.822-2.667c0.778-1.786,0.454-3.761-0.647-5.207  c1.81-0.172,3.481-1.271,4.267-3.058C89.056,55.074,87.864,52.021,85.243,50.877z M33.041,51.39c-3.592,0-6.502-2.913-6.502-6.504  c0-3.592,2.911-6.504,6.502-6.504c3.591,0,6.504,2.912,6.504,6.504C39.545,48.477,36.632,51.39,33.041,51.39z M47.26,55.215  c-0.006,0-0.02,0-0.029,0h-4.49c-0.534,0-1.026-0.272-1.308-0.723c-0.284-0.451-0.314-1.014-0.083-1.492l2.247-4.639  c0.516-1.067,2.263-1.067,2.78,0l2.122,4.387c0.194,0.257,0.306,0.577,0.306,0.924C48.804,54.525,48.114,55.215,47.26,55.215z   M56.957,51.39c-3.594,0-6.504-2.913-6.504-6.504c0-3.592,2.91-6.504,6.504-6.504c3.592,0,6.504,2.912,6.504,6.504  C63.461,48.477,60.549,51.39,56.957,51.39z"/>
</svg>