<svg xmlns="http://www.w3.org/2000/svg" xmlns:xlink="http://www.w3.org/1999/xlink" version="1.1" id="Your_Icon" x="0px" y="0px" width="100px" height="100px" viewBox="0 0 100 100" enable-background="new 0 0 100 100" xml:space="preserve">
<g>
	<path d="M67.297,87.7c-5.89,0-12.59-0.586-19.908-1.741c-0.167-0.022-17.248-2.554-37.862-2.554c-0.264,0-0.485-0.202-0.502-0.466   c-0.017-0.256-0.389-6.392,2.74-22.234c0.944-4.781,0.508-7.471-1.708-19.38l-0.122-0.658C8.62,33.626,8.62,33.626,8.215,15.169   C8.154,12.396,8.084,9.206,8,5.513C7.997,5.377,8.048,5.248,8.142,5.152C8.238,5.055,8.367,5,8.502,5h45.749   c0.142,0,0.281,0.062,0.373,0.171c0.098,0.106,0.144,0.251,0.122,0.394c-0.028,0.233-3.011,23.407-4.221,34.497   c-0.065,0.598-0.139,1.22-0.216,1.862c-1.336,11.224-3.354,28.187,28.124,32.203c0.527,0.046,13.44,1.208,13.44,6.691   c0,0.104-0.033,0.206-0.095,0.289C91.586,81.379,86.833,87.7,67.297,87.7z M10.016,82.403c20.474,0.043,37.358,2.54,37.527,2.562   c7.271,1.149,13.918,1.73,19.754,1.73c17.434,0,22.794-5.187,23.562-6.049c-0.268-3.673-9.099-5.229-12.537-5.522   c-14.298-1.826-23.179-6.389-27.171-13.953c-3.383-6.41-2.527-13.593-1.841-19.365c0.075-0.638,0.149-1.257,0.215-1.854   c1.103-10.13,3.686-30.32,4.151-33.951H9.018c0.08,3.478,0.146,6.5,0.204,9.144c0.405,18.375,0.405,18.375,1.702,25.338   l0.122,0.659c2.246,12.062,2.687,14.79,1.707,19.754C10.127,74.189,9.993,80.699,10.016,82.403z"/>
</g>
<g>
	<path d="M72.135,95h-5.43c-0.276,0-0.5-0.224-0.5-0.501v-2.003h-0.413l-1.529,2.127c-0.092,0.13-0.246,0.209-0.411,0.209H58.54   c-0.275,0-0.499-0.217-0.504-0.49l-0.046-2.625h-0.506l-0.522,2.261c-0.062,0.257-0.307,0.421-0.571,0.381l-6.042-0.979   c-0.16-0.028-0.298-0.127-0.37-0.271l-0.881-1.757l-14.872-1.314v2.957c0,0.277-0.225,0.499-0.502,0.499h-2.989   c-0.137,0-0.269-0.053-0.364-0.156l-3.208-3.348h-1.148v3.005c0,0.277-0.225,0.499-0.504,0.499h-3.281   c-0.134,0-0.263-0.051-0.357-0.146l-3.339-3.357h-0.992v3.005c0,0.277-0.225,0.499-0.504,0.499H9.526   c-0.277,0-0.503-0.222-0.503-0.499v-7.27c0-0.277,0.226-0.502,0.503-0.502c20.695,0,37.845,2.54,38.017,2.564   c7.271,1.146,13.918,1.729,19.754,1.729c9.899,0,15.812-1.683,19.028-3.097c3.469-1.521,4.624-3.06,4.635-3.077   c0.127-0.172,0.351-0.246,0.553-0.184c0.205,0.06,0.352,0.243,0.36,0.457c0.134,3.216,0.137,4.127,0.119,4.426l0,0   c0,3.331-6.504,4.491-7.245,4.613c-0.145,0.023-0.296-0.017-0.408-0.112c-0.111-0.096-0.177-0.234-0.177-0.381V90.99h-0.848   l-1.785,2.692c-0.079,0.121-0.202,0.197-0.346,0.218l-5.398,0.779c-0.141,0.02-0.288-0.022-0.396-0.114   c-0.111-0.09-0.177-0.226-0.18-0.37l-0.042-1.757h-0.825l-1.808,2.364C72.44,94.928,72.292,95,72.135,95z M67.209,94h4.675   l1.808-2.365c0.095-0.125,0.242-0.196,0.403-0.196h1.565c0.271,0,0.495,0.216,0.503,0.489l0.04,1.678l4.613-0.664l1.808-2.725   c0.093-0.145,0.25-0.225,0.418-0.225h1.622c0.278,0,0.504,0.223,0.504,0.501v1.065c2.042-0.427,5.818-1.604,5.818-3.516   c0-0.029,0.002-0.062,0.009-0.088c0.016-0.241-0.024-1.628-0.082-3.128c-2.071,1.808-8.301,5.693-23.616,5.693   c-5.89,0-12.59-0.588-19.908-1.742c-0.165-0.027-16.97-2.511-37.358-2.551v6.267h6.503v-3.007c0-0.275,0.226-0.5,0.503-0.5h1.708   c0.134,0,0.262,0.052,0.358,0.147l3.337,3.359h2.567v-3.007c0-0.275,0.226-0.5,0.503-0.5h1.868c0.138,0,0.27,0.056,0.364,0.155   l3.208,3.352h2.269v-3.007c0-0.14,0.06-0.273,0.164-0.368c0.104-0.095,0.246-0.141,0.385-0.132l15.698,1.395   c0.174,0.016,0.329,0.121,0.406,0.273l0.892,1.776l5.322,0.863l0.511-2.192c0.053-0.229,0.257-0.389,0.489-0.389h1.397   c0.276,0,0.499,0.218,0.505,0.494l0.048,2.624h4.561l1.526-2.13c0.097-0.128,0.245-0.209,0.409-0.209h1.174   c0.279,0,0.504,0.226,0.504,0.501V94z"/>
</g>
</svg>