<svg xmlns="http://www.w3.org/2000/svg" xmlns:xlink="http://www.w3.org/1999/xlink" version="1.1" x="0px" y="0px" width="97.113px" height="99.104px" viewBox="0 0 97.113 99.104" enable-background="new 0 0 97.113 99.104" xml:space="preserve">
<g id="Your_Icon">
</g>
<g id="_x31_col">
	<path d="M95.236,43.507c-1.889-4.561-4.437-8.862-7.764-12.526c-0.634-0.702-1.268-1.454-1.975-1.913   c2.013-2.873,3.209-6.27,3.224-9.967c-0.009-1.996-0.355-3.908-0.99-5.695c1.587-1.203,2.464-3.094,2.088-5.015   c-0.558-2.794-3.522-4.561-6.637-3.945c-0.575,0.112-1.098,0.32-1.593,0.566c-3.755-2.97-8.676-4.767-14.017-4.777   c-2.654,0.004-5.199,0.465-7.559,1.272c-1.113-2.017-5.629-1.965-7.381-0.111c-1.611,1.705-1.356,3.386-0.786,5.122   c-3.339,3.31-5.411,7.686-5.434,12.583c0.013,3.184,0.904,6.144,2.428,8.74c-3.985,2.42-6.827,6.28-7.511,10.811   c-2.48-1.092-5.626-0.264-10.458,2.928c-2.613,1.725-3.771,4.485-3.308,7.229c-1.686,1.72-3.155,3.604-4.356,5.632   c-4.263,2.771-6.916,6.542-6.916,10.722c0,1.22,0.248,2.413,0.681,3.56c-1.932,0.236-4.31,0.498-6.904,0.729   c-2.831,0.248-6.198,1.251-8.793,3.853c-1.985,1.997-2.408,5.974,4.393,5.974c2.388,0,9.901,0.224,16.79,0.44   c0.569,1.1,1.232,2.15,1.948,3.175c-0.044,0.371-0.091,0.74-0.091,1.119c0,1.22,0.246,2.416,0.682,3.561   c-1.929,0.237-4.303,0.492-6.904,0.722c-2.84,0.255-6.198,1.258-8.792,3.858c-1.982,1.992-2.409,5.98,4.396,5.98   c4.388,0,26.199,0.733,29.385,0.845c1.786,0.274,4.259,0.015,6.184,0.015c4.762,0,9.116-0.829,12.77-2.26   c15.537-2.912,27.401-14.557,27.461-28.969c-0.003-0.479-0.041-0.936-0.065-1.398C95.355,61.902,99.789,54.499,95.236,43.507z    M67.573,4.058c4.388,0.006,8.288,1.462,11.303,3.75c-0.376,0.876-0.519,1.839-0.328,2.812c0.487,2.447,2.827,4.105,5.487,4.062   c0.511,1.414,0.859,2.881,0.862,4.419c-0.013,8.118-7.587,15.03-17.324,15.044c-9.748-0.015-17.312-6.926-17.328-15.044   C50.26,10.985,57.818,4.071,67.573,4.058z M71.446,89.429c0.978-1.669,1.53-3.487,1.53-5.417c0-8.512-10.896-15.4-24.331-15.4   c-10.241,0-18.986,4.007-22.576,9.679c-1.756-3.238-2.754-6.801-2.761-10.526c-0.013-5.656,2.218-10.939,6.024-15.245   c0.221,0.275,0.414,0.555,0.675,0.813c3.376,3.347,5.538,2.322,7.573,0.223c1.715-1.772,3.342-4.296,5.52-5.644   c0,0,3.42-2.066,1.979-5.423l-0.062-0.931c-0.028-0.376-0.053-0.66-0.053-0.847c-0.006-3.98,2.37-7.583,6.164-9.764   c3.904,4.3,9.856,7.008,16.444,7.021c1.713-0.003,3.378-0.209,4.986-0.559c0.166,0.528,0.694,1.164,1.815,2.013   c3.792,2.877,7.539,7.403,6.812,12.48c-1.048,7.324-11.951,9.023-11.951,9.023s-4.971,0.697-3.769,5.619   c1.199,4.923,4.32,6.516,12.6,4.954c2.075-0.388,4.798-1.289,7.534-2.717C85.173,77.325,79.707,84.946,71.446,89.429z    M77.133,22.704c2.567-0.839,3.71-4.387,2.549-7.928c-1.158-3.541-4.179-5.719-6.742-4.891c-2.574,0.84-3.716,4.399-2.562,7.934   C71.539,21.36,74.568,23.55,77.133,22.704z M61.305,17.719c1.543-3.391,0.804-7.05-1.656-8.164   c-2.457-1.126-5.705,0.709-7.244,4.101c-1.548,3.391-0.803,7.045,1.651,8.158C56.51,22.94,59.76,21.104,61.305,17.719z    M64.345,25.069c1.58,0.218,3.498-1.338,3.632-2.365c0.133-1.014-1.023-2.01-2.598-2.215c-1.575-0.217-2.956,0.442-3.094,1.463   C62.148,22.965,62.772,24.864,64.345,25.069z"/>
</g>
</svg>