<svg xmlns="http://www.w3.org/2000/svg" xmlns:xlink="http://www.w3.org/1999/xlink" version="1.1" x="0px" y="0px" width="50.4px" height="50.4px" viewBox="0 0 50.4 50.4" enable-background="new 0 0 50.4 50.4" xml:space="preserve">
<g id="Layer_1">
	<g id="Layer_1_1_">
	</g>
	<g id="Layer_2">
	</g>
	<path d="M49.024,34.218c0-0.004-0.594-1.252-0.594-1.252l-1.059,1.189l-0.262-1.42l-1.244,1.369L45.71,32.63l-2.475,1.752   l0.006-0.846l4.336-3.234c0,0-1.287-2.939-5.812-2.725c-4.246,0.201-6.348,3.68-6.348,3.68l-2.895-1.686   c-0.035-0.021-0.068-0.029-0.094-0.029c-0.152,0.008-0.223,0.117-0.205,0.324c-0.002,0.041,0.016,0.092,0.053,0.158l1.809,2.686   l-1.471,2.918c-0.027,0.061-0.037,0.111-0.029,0.16c0.01,0.207,0.09,0.311,0.24,0.295c0.035,0,0.061-0.018,0.086-0.037l2.674-2.059   c0,0,2.363,3.082,7.383,2.906c2.955-0.104,5.098-1.529,6.039-2.658l0.027-0.006L49.024,34.218z M44.946,29.512   c0.4-0.029,0.748,0.273,0.775,0.68c0.031,0.393-0.273,0.748-0.676,0.775c-0.396,0.027-0.744-0.271-0.773-0.67   C44.239,29.891,44.544,29.534,44.946,29.512z"/>
	<path d="M37.032,47.421c0-0.004-0.633-1.328-0.633-1.328l-1.127,1.262l-0.277-1.51L33.669,47.3l-0.166-1.568l-2.637,1.865   l0.008-0.902l4.615-3.445c0,0-1.371-3.129-6.189-2.898c-4.524,0.215-6.76,3.92-6.76,3.92l-3.082-1.799   c-0.039-0.021-0.074-0.029-0.101-0.029c-0.16,0.008-0.279,0.086-0.259,0.309c-0.004,0.041,0.059,0.133,0.099,0.203l1.923,2.861   l-1.564,3.107c-0.029,0.064-0.059,0.184-0.052,0.234c0.011,0.223,0.132,0.264,0.25,0.25c0.078,0.016,0.176-0.059,0.203-0.078   l2.762-2.152c0,0,2.517,3.281,7.864,3.096c3.145-0.109,5.428-1.627,6.432-2.828l0.027-0.012L37.032,47.421z M32.624,42.485   c0.432-0.031,0.809,0.297,0.838,0.734c0.035,0.428-0.295,0.811-0.732,0.842c-0.428,0.029-0.807-0.297-0.84-0.729   C31.856,42.895,32.188,42.51,32.624,42.485z"/>
	<path d="M24.863,34.616c0.002-0.008-0.858-1.797-0.858-1.797l-1.517,1.709l-0.37-2.037l-1.787,1.961l-0.224-2.113l-3.554,2.51   l0.014-1.215l6.215-4.641c0,0-1.845-4.212-8.332-3.901C8.356,25.38,5.342,30.37,5.342,30.37l-4.15-2.42   c-0.05-0.033-0.099-0.045-0.137-0.045c-0.214,0.012-0.358,0.156-0.333,0.455c-0.006,0.059,0.064,0.141,0.112,0.238l2.598,3.848   l-2.105,4.191c-0.044,0.088-0.078,0.25-0.084,0.316c-0.021,0.234,0.229,0.396,0.381,0.338c0.049-0.004,0.089-0.025,0.127-0.049   l3.826-2.955c0,0,3.396,4.42,10.594,4.16c4.24-0.146,7.31-2.189,8.667-3.811l0.031-0.008L24.863,34.616z M18.996,28.016   c0.513-0.031,0.959,0.35,0.995,0.869c0.035,0.502-0.35,0.955-0.867,0.992c-0.505,0.037-0.951-0.35-0.989-0.857   C18.095,28.501,18.484,28.052,18.996,28.016z"/>
	<path d="M49.069,16.531c0.002-0.007-1.486-3.106-1.486-3.106l-2.627,2.953l-0.643-3.53l-3.098,3.399l-0.389-3.662l-6.156,4.355   l0.023-2.11l10.77-8.038c0,0-3.199-7.298-14.439-6.765c-10.562,0.5-15.785,9.148-15.785,9.148L8.047,4.982   C7.963,4.927,7.88,4.905,7.81,4.905C7.442,4.927,7.169,5.151,7.212,5.673C7.205,5.775,7.347,5.938,7.43,6.106l4.501,6.673   l-3.65,7.26c-0.074,0.146-0.124,0.489-0.132,0.603c-0.031,0.438,0.344,0.594,0.65,0.529c0.084-0.011,0.153-0.044,0.219-0.088   l6.633-5.122c0,0,5.88,7.663,18.357,7.217c7.348-0.252,12.666-3.8,15.02-6.607l0.053-0.015L49.069,16.531z M38.786,5.383   c0.814-0.055,1.518,0.555,1.576,1.376c0.055,0.795-0.555,1.519-1.371,1.573c-0.803,0.054-1.512-0.555-1.57-1.362   C37.358,6.15,37.975,5.438,38.786,5.383z"/>
</g>
<g id="Layer_3">
</g>
</svg>