<svg xmlns="http://www.w3.org/2000/svg" xmlns:xlink="http://www.w3.org/1999/xlink" version="1.1" id="Layer_1" x="0px" y="0px" width="100px" height="100px" viewBox="0 0 100 100" enable-background="new 0 0 100 100" xml:space="preserve">
<g>
	<g>
		<rect x="11.589" y="16.82" fill="#000000" width="70.042" height="3.321"/>
	</g>
</g>
<g>
	<g>
		<path fill="#000000" d="M82.021,20.53H11.2v-4.1h70.82V20.53z M11.978,19.752h69.264v-2.544H11.978V19.752z"/>
	</g>
</g>
<g>
	<g>
		<rect x="46.562" y="3.171" fill="#000000" width="13.312" height="13.696"/>
	</g>
</g>
<g>
	<g>
		<path fill="#000000" d="M60.213,17.208H46.221V2.831h13.992V17.208z M46.903,16.525h12.628V3.512H46.903V16.525z"/>
	</g>
</g>
<g>
	<g>
		<circle fill="#000000" cx="44.46" cy="32.666" r="11.592"/>
	</g>
</g>
<g>
	<g>
		<path fill="none" d="M44.473,44.648c-0.751,0-1.508-0.071-2.251-0.213c-6.49-1.234-10.765-7.517-9.532-14.008    c1.073-5.646,6.019-9.744,11.756-9.744c0.751,0,1.508,0.072,2.251,0.214c6.49,1.233,10.764,7.517,9.532,14.007    C55.155,40.551,50.21,44.648,44.473,44.648z M44.445,21.461c-5.364,0-9.987,3.832-10.993,9.112    c-1.152,6.068,2.846,11.944,8.915,13.098c0.695,0.132,1.404,0.198,2.105,0.198c5.364,0,9.987-3.832,10.992-9.111    c1.154-6.068-2.844-11.943-8.913-13.097C45.857,21.529,45.148,21.461,44.445,21.461z"/>
	</g>
</g>
<g>
	<g>
		<path fill="#000000" d="M53.226,40.268c2.14-1.362,6.03-6.419,5.253-10.701c-0.779-4.279-6.279-13.135-4.865-14.786    c1.168-1.361,4.631-0.619,5.763,0.666C61.628,18,67.04,25.676,65.482,34.043c-1.557,8.366-4.67,11.867-4.086,14.007    c0.584,2.142,8.24,14.69,15.663,21.694c7.763,7.328,10.312,9.729,8.754,11.479c0,0-2.738,2.301-7.295,0.488    c-3.156-1.258-17.317-14.594-19.263-14.982c-1.945-0.391,3.373,28.156,2.205,29.713c-1.167,1.559-3.891,1.559-6.42,0    c-2.529-1.557-7.263-28.74-7.847-30.879c-0.585-2.141-2.399-13.426-4.67-12.453c-2.838,1.217-5.021,3.398-9.66,4.648    c-4.827,1.297-12.077,1.635-13.168,1.238c-2.14-0.779-3.235-1.061-3.308-3.893c-0.07-2.707,5.123-1.799,10.732-2.928    c3.868-0.783,8.904-4.378,12.94-6.848c1.765-1.082,5.315-0.973,6.382-1.565L53.226,40.268z"/>
	</g>
</g>
<g>
	<g>
		<path fill="none" d="M58.762,98c-1.248,0-2.641-0.436-3.926-1.225c-1.748-1.078-4.093-10.061-7.074-26.217    c-0.474-2.57-0.816-4.43-0.944-4.895c-0.112-0.412-0.264-1.133-0.457-2.045c-0.588-2.783-2.152-10.18-3.558-10.18    c-0.041,0-0.081,0.01-0.125,0.027c-1,0.43-1.931,0.988-2.915,1.58c-1.771,1.066-3.779,2.273-6.796,3.084    c-3.434,0.928-8.294,1.41-11.319,1.41c-1.054,0-1.755-0.061-2.085-0.18l-0.246-0.09c-2.02-0.73-3.241-1.17-3.317-4.158    c-0.056-2.178,2.542-2.395,5.835-2.67c1.582-0.133,3.376-0.281,5.209-0.65c3.059-0.617,6.962-3.097,10.408-5.287    c0.827-0.526,1.634-1.039,2.406-1.511c1.09-0.668,2.732-0.898,4.18-1.101c0.941-0.131,1.831-0.255,2.216-0.472l6.793-3.499    c2.166-1.38,5.763-6.354,5.048-10.286c-0.317-1.75-1.474-4.345-2.589-6.852c-1.965-4.411-3.12-7.168-2.188-8.256    c0.484-0.566,1.294-0.865,2.34-0.865c1.545,0,3.232,0.642,4.01,1.524c0.822,0.931,7.974,9.375,6.196,18.926    c-0.834,4.491-2.107,7.575-3.037,9.827c-0.777,1.888-1.293,3.133-1.055,4.008c0.524,1.923,8.059,14.439,15.553,21.512    c8.137,7.68,10.586,9.99,8.78,12.021c-0.104,0.092-1.589,1.313-4.179,1.313c-1.15,0-2.344-0.242-3.553-0.725    c-1.685-0.67-6.199-4.494-10.564-8.195c-3.476-2.945-7.394-6.264-8.487-6.719c-0.489,1.332,0.58,10.131,1.367,16.611    c1.19,9.781,1.652,12.148,1.083,12.908C61.133,97.527,60.063,98,58.762,98z M42.803,52.66c1.704,0,2.874,3.961,4.32,10.799    c0.19,0.9,0.341,1.611,0.446,2c0.135,0.498,0.464,2.271,0.958,4.957c1.468,7.955,4.905,24.58,6.717,25.693    c1.163,0.715,2.412,1.111,3.518,1.111c1.051,0,1.898-0.359,2.389-1.012c0.418-0.768-0.496-6.297-1.231-12.346    c-1.352-11.117-1.903-16.449-1.128-17.326c0.115-0.131,0.268-0.201,0.43-0.201l0.111,0.012c0.992,0.197,4.06,2.764,8.979,6.934    c4.116,3.488,8.784,7.445,10.35,8.066c1.117,0.445,2.215,0.668,3.266,0.668c2.291,0,3.624-1.08,3.639-1.09    c1.263-1.428-1.464-4-8.75-10.877c-7.6-7.17-15.192-19.689-15.794-21.896c-0.309-1.129,0.248-2.474,1.087-4.508    c0.916-2.22,2.171-5.261,2.992-9.673c1.709-9.187-5.221-17.365-6.016-18.267c-0.623-0.708-2.128-1.261-3.427-1.261    c-0.8,0-1.422,0.209-1.749,0.591c-0.661,0.771,0.985,4.466,2.308,7.434c1.136,2.551,2.309,5.187,2.645,7.031    c0.806,4.434-3.162,9.658-5.428,11.098l-6.812,3.512c-0.502,0.279-1.418,0.408-2.478,0.556c-1.373,0.193-2.928,0.411-3.882,0.996    c-0.766,0.469-1.569,0.979-2.395,1.504c-3.501,2.225-7.47,4.746-10.67,5.391c-1.877,0.379-3.695,0.531-5.3,0.666    c-3.294,0.273-5.157,0.496-5.121,1.873c0.063,2.455,0.866,2.744,2.804,3.445l0.249,0.09c0.085,0.033,0.472,0.133,1.818,0.133    c2.974,0,7.748-0.475,11.117-1.381c2.911-0.783,4.869-1.963,6.598-3.002c1.008-0.605,1.961-1.178,3.008-1.627    C42.512,52.691,42.656,52.66,42.803,52.66z"/>
	</g>
</g>
<rect x="56.1" y="-1.155" transform="matrix(0.6975 0.7166 -0.7166 0.6975 23.1108 -38.5159)" fill="#000000" width="2.155" height="18.543"/>
<rect x="47.685" y="7.354" transform="matrix(0.6998 0.7143 -0.7143 0.6998 23.1854 -38.3121)" fill="#000000" width="18.984" height="2.153"/>
</svg>