<?xml version="1.0" encoding="utf-8"?>
<!-- Generator: Adobe Illustrator 16.0.0, SVG Export Plug-In . SVG Version: 6.00 Build 0)  -->
<!DOCTYPE svg PUBLIC "-//W3C//DTD SVG 1.1//EN" "http://www.w3.org/Graphics/SVG/1.1/DTD/svg11.dtd">
<svg version="1.1" id="Layer_1" xmlns="http://www.w3.org/2000/svg" xmlns:xlink="http://www.w3.org/1999/xlink" x="0px" y="0px"
	 width="425.2px" height="226.77px" viewBox="0 0 425.2 226.77" enable-background="new 0 0 425.2 226.77" xml:space="preserve">
<g>
	<polygon fill="#B89860" points="64,62.789 44.265,70.386 24.938,61.802 17.342,42.066 25.926,22.74 45.661,15.145 64.987,23.728 
		72.583,43.463 	"/>
	<g>
		<rect x="24.186" y="38.959" fill="#FFFFFF" width="1.677" height="7.612"/>
		<path fill="#FFFFFF" d="M31.787,45.001c-0.267,0.144-0.57,0.216-0.914,0.216c-0.302,0-0.583-0.062-0.845-0.184
			c-0.262-0.121-0.489-0.292-0.683-0.511S29,44.046,28.889,43.748c-0.11-0.296-0.167-0.624-0.167-0.983
			c0-0.351,0.057-0.677,0.167-0.978c0.111-0.302,0.266-0.562,0.463-0.78s0.43-0.388,0.698-0.511
			c0.269-0.121,0.562-0.183,0.876-0.183c0.316,0,0.594,0.054,0.834,0.162c0.239,0.107,0.442,0.262,0.607,0.462l1.29-1.054
			c-0.165-0.208-0.352-0.383-0.559-0.526c-0.208-0.144-0.426-0.259-0.651-0.344c-0.226-0.087-0.455-0.149-0.688-0.189
			c-0.232-0.038-0.457-0.059-0.672-0.059c-0.595,0-1.144,0.093-1.645,0.279c-0.503,0.188-0.936,0.454-1.302,0.801
			c-0.365,0.348-0.65,0.769-0.854,1.264c-0.204,0.494-0.307,1.047-0.307,1.655c0,0.609,0.103,1.161,0.307,1.655
			c0.204,0.495,0.489,0.916,0.854,1.264c0.366,0.349,0.799,0.615,1.302,0.802c0.501,0.187,1.05,0.279,1.645,0.279
			c0.523,0,1.031-0.108,1.526-0.322c0.494-0.216,0.903-0.549,1.227-1l-1.398-1.043C32.27,44.657,32.052,44.857,31.787,45.001z"/>
		<path fill="#FFFFFF" d="M41.397,39.846c-0.365-0.347-0.799-0.613-1.301-0.801c-0.502-0.187-1.05-0.279-1.645-0.279
			s-1.144,0.093-1.645,0.279c-0.503,0.188-0.936,0.454-1.302,0.801c-0.365,0.348-0.65,0.769-0.854,1.264
			c-0.204,0.494-0.307,1.047-0.307,1.655c0,0.609,0.103,1.161,0.307,1.655c0.204,0.495,0.489,0.916,0.854,1.264
			c0.366,0.349,0.799,0.615,1.302,0.802c0.501,0.187,1.05,0.279,1.645,0.279s1.143-0.093,1.645-0.279s0.936-0.453,1.301-0.802
			c0.366-0.348,0.65-0.769,0.855-1.264c0.204-0.494,0.306-1.046,0.306-1.655c0-0.608-0.102-1.161-0.306-1.655
			C42.048,40.614,41.764,40.193,41.397,39.846z M36.086,42.765c0-0.351,0.057-0.677,0.167-0.978c0.111-0.302,0.271-0.562,0.479-0.78
			s0.457-0.388,0.748-0.511c0.29-0.121,0.614-0.183,0.973-0.183c0.357,0,0.683,0.062,0.973,0.183
			c0.243,0.103,0.451,0.247,0.637,0.417l-3.451,3.451c-0.146-0.184-0.271-0.384-0.357-0.616
			C36.143,43.452,36.086,43.124,36.086,42.765z M40.65,43.748c-0.11,0.298-0.271,0.556-0.479,0.774s-0.456,0.39-0.747,0.511
			c-0.29,0.122-0.615,0.184-0.973,0.184c-0.358,0-0.683-0.062-0.973-0.184c-0.112-0.047-0.214-0.107-0.313-0.169l3.352-3.354
			c0.047,0.091,0.097,0.177,0.133,0.276c0.111,0.301,0.167,0.627,0.167,0.978C40.817,43.124,40.762,43.452,40.65,43.748z"/>
		<polygon fill="#FFFFFF" points="43,40.442 45.172,40.442 45.172,46.571 46.849,46.571 46.849,40.442 49.021,40.442 49.021,38.959 
			43,38.959 		"/>
		<path fill="#FFFFFF" d="M55.267,42.642c0.279-0.376,0.42-0.834,0.42-1.371c0-0.444-0.078-0.815-0.232-1.113
			c-0.153-0.297-0.361-0.533-0.623-0.709c-0.261-0.175-0.566-0.301-0.914-0.376c-0.347-0.075-0.715-0.113-1.102-0.113H49.87v7.612
			h1.677v-3.043h0.828l1.59,3.043h2.011l-1.935-3.215C54.579,43.256,54.987,43.018,55.267,42.642z M53.81,41.744
			c-0.089,0.114-0.202,0.198-0.339,0.252c-0.136,0.054-0.288,0.086-0.456,0.097c-0.169,0.011-0.328,0.016-0.479,0.016h-0.989v-1.73
			h1.097c0.15,0,0.305,0.011,0.462,0.032c0.158,0.022,0.297,0.063,0.42,0.124c0.121,0.061,0.222,0.148,0.301,0.263
			c0.079,0.115,0.118,0.27,0.118,0.463C53.944,41.468,53.899,41.629,53.81,41.744z"/>
		<rect x="56.815" y="38.959" fill="#FFFFFF" width="1.677" height="7.612"/>
		<path fill="#FFFFFF" d="M65.507,40.147c-0.153-0.298-0.361-0.534-0.623-0.71s-0.568-0.299-0.92-0.371
			c-0.351-0.071-0.724-0.107-1.118-0.107h-2.827v7.612h1.678v-2.968h1.225c0.401,0,0.774-0.037,1.118-0.113
			c0.345-0.075,0.643-0.202,0.893-0.382c0.251-0.178,0.448-0.419,0.592-0.72s0.215-0.674,0.215-1.118
			C65.738,40.819,65.661,40.444,65.507,40.147z M63.895,41.717c-0.068,0.118-0.158,0.212-0.27,0.279
			c-0.11,0.068-0.236,0.117-0.376,0.145c-0.139,0.029-0.284,0.043-0.435,0.043h-1.118v-1.806h0.86c0.157,0,0.321,0.009,0.494,0.027
			c0.172,0.018,0.328,0.059,0.467,0.123c0.14,0.065,0.255,0.156,0.345,0.274c0.09,0.119,0.134,0.274,0.134,0.468
			C63.996,41.45,63.962,41.599,63.895,41.717z"/>
	</g>
</g>
<path d="M331.864,94.568c-1.676-0.297-3.007-1.595-3.353-3.254c-0.562,0.545-1.33,0.882-2.176,0.882
	c-1.73,0-3.131-1.402-3.131-3.131c0-0.121,0.007-0.24,0.021-0.357c-0.066,0.003-0.131,0.01-0.197,0.01
	c-2.21,0-4.002-1.792-4.002-4.002c0-0.453,0.08-0.886,0.219-1.292c-0.237,0.049-0.486,0.075-0.738,0.075
	c-2.019,0-3.655-1.636-3.655-3.654c0-0.225,0.022-0.443,0.062-0.657c-1.48-0.743-2.498-2.271-2.498-4.04
	c0-1.942,1.226-3.593,2.945-4.234c-0.055-0.195-0.095-0.396-0.121-0.601c-2.474-0.937-5.156-1.429-7.971-1.429
	c-0.311,0-0.617,0.013-0.922,0.028c-0.424-0.015-0.985-0.028-1.238-0.028c-7.666,0-14.377,3.619-18.441,10.091
	c-14.57,23.2-8.35,76.896-8.35,76.896c-0.52,6.992,9.939,12.051,19.483,14.039v21.802c0,4.611,3.739,8.35,8.351,8.35
	c4.613,0,8.353-3.738,8.353-8.35v-21.787c9.562-1.979,20.077-7.045,19.557-14.054C334.062,155.871,338.181,120.315,331.864,94.568z
	 M323.603,161.512c-2.438,1.371-5.61,2.125-7.357,2.363c-3.038,0.417,2.195-1.06,6.637-3.187c3.923-1.88,7.63-4.468,7.63-4.468
	S327.489,159.325,323.603,161.512z"/>
<g>
	<path d="M171.668,103.722h26.35l-5.677-13.175h-24.208l-4.071-15.318h-16.496l-4.07,15.318h-23.244l-5.355,12.961h25.707
		l-25.493,0.856l3.213,17.675l2.571,1.499l1.071-0.75l2.035,0.428l5.142-0.642l1.286-1.5l0.856,1.071l1.071-0.429l1.821,1.071h2.007
		l-11.219,48.952l4.606,23.672c0,0,4.499-1.606,5.035-1.606c0.535,0,4.82-0.642,4.82-0.642l1.072,0.642l0.963-0.964l1.285,1.929
		l2.25-2.464c0,0,1.5,0.749,2.25,0.749s2.785,1.715,2.785,1.715l1.928-0.75l0.536-1.285l1.928,0.643l2.57-2.144l0.536-0.856
		l3.535-0.428l1.821-1.606l4.606,0.213l2.356-1.606l1.286,0.108l0.856-0.43h2.463l2.356-0.855l2.679,0.214l1.5-1.715l1.392-0.106
		l1.178-2.143l1.393-0.856l1.392,0.534l1.714-11.46l-11.46-46.514l2.354-0.832l1.179,0.214l1.607-0.429l0.963,0.429l2.785-1.393
		l2.464-0.106l3.642-0.321l3.106-1.18l3.107-15.531L171.668,103.722z M184.952,171.955l-6.856,0.535h-6.641l-8.141,1.071
		l-6.427-0.43l-6.641,0.43l-3.535-0.214l-2.678-0.321l-3.642,0.105l-4.284,0.43l-2.679-0.321l-6.534-1.285l7.499,0.749l6.962-0.214
		l3.213-0.75l2.892,1.179l3.642,0.213l4.82-0.856l5.249,0.429h5.249l4.606-0.856l2.249,0.322l5.035-0.751L184.952,171.955z"/>
	<path d="M190.842,198.198c-0.428,0,0.107,1.071,0.107,1.071l-0.428,0.856l0.321,3.319h0.964l0.214-4.07
		C192.021,199.375,191.271,198.198,190.842,198.198z"/>
	<path d="M198.876,190.914c0,0,0.214-1.072-0.429-1.072c-0.642,0-0.535,1.286-0.535,1.286l-0.428,0.535l0.534,1.072l-0.106,2.892
		l0.643-0.429l0.428-2.57L198.876,190.914z"/>
</g>
<path fill="#010101" d="M104.387,78.345c-1.309-1.415-2.059-0.136-2.059-0.136l-27.002,71.86l-12.012-4.241
	c3.75-0.959,9.321-3.951,15.979-12.363c6.732-8.503,20.301-52.133,20.301-52.133l-36.062,0.234c0,0-7.256,19.383-13.902,32.729
	l-0.411-2.373l14.313-30.355c0,0,0.84-1.985,0.419-2.439c-1.308-1.415-2.526,0.333-2.526,0.333l-13.589,28.045
	c-0.405-0.32-0.927-0.511-1.46-0.103c-0.608,0.465-0.42,3.031-0.42,3.031l0.093,0.759l-9.453,19.508
	c-3.642,2.747-6.804,4.536-9.484,5.678l-13.16-0.502c0,0-1.236-0.214-1.84,1.108c-0.896,1.961,0.123,2.481,0.123,2.481l17.734,4.907
	l-16.312,33.667c0,0-0.793,1.391,1.01,2.13c1.161,0.479,2.268,0.212,2.268,0.212l1.46-3.097l41.158,14.764l-1.248,3.321
	c0,0-0.792,1.387,1.01,2.131c1.161,0.477,2.268,0.21,2.268,0.21l14.901-40.822l25.673,5.841l0.624-2.967l-5.883-2.076l-2.235-47.097
	h-1.278l11.048-30.271C104.435,80.317,104.807,78.8,104.387,78.345z M46.778,117.1l0.26,2.122c-1.514,2.695-2.935,4.854-4.155,6.134
	L46.778,117.1z M61.337,187.3l-40.946-14.249l13.067-27.714l35.759,9.896l3.84,0.873L61.337,187.3z M93.53,156.494l-14.974-5.286
	l12.831-35.146L93.53,156.494z"/>
<path d="M277.371,197.488c0,0-14.405-10.733-15.421-14.398c-1.017-3.664-4.357-20.557-8.028-27.35
	c-3.675-6.793-12.824-47.582-13.003-54.246c-0.179-6.662-3.12-26.229-3.12-26.229l-1.828,4.413l-3.746-3.681l1.422,8.8l-4.338-4.94
	l-0.292,12.448l-2.528-6.622l-0.033,0.133c-2.768-9.919-6.188-23.325-6.787-30.889c0.121-0.017,0.241-0.018,0.362-0.044
	c2.367-0.511,3.901-2.7,3.429-4.889c-0.473-2.188-2.774-3.548-5.141-3.036c-0.683,0.147-1.284,0.446-1.8,0.832
	c-0.986-0.771-2.336-1.124-3.718-0.825c-2.366,0.51-3.901,2.699-3.428,4.888c0.416,1.922,2.243,3.202,4.284,3.14
	c1.398,4.518,5.436,18.049,7.885,31.221l-1.317-3.025l-0.642,6.932l-6.861-5.706l-0.217,11.287l-5.111-12.862
	c0,0,13.375,46.493,17.414,56.072c4.038,9.58,4.574,11.223,4.574,11.223s1.256,2.04-0.243,4.256
	c-2.332,3.445-5.947,8.483-5.947,8.483s-4.291,5.218-0.106,8.572c4.186,3.357,16.601,9.109,18.706,13.326
	c2.104,4.217,7.841,12.878,7.841,12.878s1.762,1.922,3.153,2.422c4.374,1.574,13.038,1.552,13.038,1.552s7.909,1.958,6.342-0.617
	C270.594,198.431,276.843,203.655,277.371,197.488z"/>
<path d="M413.686,197.802l-3.648,0.781l-1.562-3.126l-3.388,0.781l-1.042-2.865l-2.866,0.26l-0.26-2.345l-2.344,2.085l-2.478,0.197
	l3.519-5.147l-2.865,2.345l0.781-4.169l-1.679,2.323l-4.844-92.671c1.574-0.066,2.832-1.354,2.832-2.942v-2.244
	c1.462-0.817,2.302-1.741,2.302-2.723c0-0.673-0.407-1.319-1.123-1.923c0.882-0.694,1.383-1.448,1.383-2.245
	c0-1.104-0.928-2.132-2.562-3.021V67.922c0-0.138-0.022-0.269-0.042-0.401c0.008-0.056,0.031-0.111,0.031-0.168
	c0-0.606-0.401-1.185-1.101-1.723c-0.08-0.063-0.156-0.129-0.242-0.185c-2.679-1.833-9.096-3.126-16.595-3.126
	c-7.444,0-13.828,1.273-16.544,3.084c-0.204,0.126-0.399,0.268-0.569,0.437c-0.535,0.478-0.826,0.986-0.826,1.513
	c0,0.03,0.014,0.059,0.017,0.088c-0.027,0.157-0.049,0.316-0.049,0.48v12.87c-2.079,0.968-3.288,2.124-3.288,3.38
	c0,0.797,0.501,1.551,1.383,2.245c-0.716,0.604-1.123,1.25-1.123,1.923c0,1.134,1.12,2.189,3.028,3.09v1.877
	c0,1.519,1.152,2.757,2.627,2.922l-4.933,94.372l-2.111-1.92l1.957,4.888l-4.562-5.147l2.604,5.471h-4.429l-1.562,3.387
	l-3.127-3.387v5.731l-2.084-1.563l-8.337,3.647h81.803L413.686,197.802z M393.843,81.749c1.291,0.741,2.041,1.562,2.041,2.424
	c0,0.672-0.465,1.318-1.271,1.923c-0.231-0.164-0.492-0.322-0.77-0.478V81.749z M357.923,85.25c-0.57,0.27-1.077,0.551-1.496,0.846
	c-0.807-0.605-1.271-1.251-1.271-1.923c0-1.013,1.023-1.972,2.768-2.806V85.25z M392.562,185.832l-13.84-13.893l12.46-12.508
	L392.562,185.832z M391.047,156.817h-1.411l1.341-1.346L391.047,156.817z M390.824,152.555l0.003,0.056l-0.053-0.056H390.824z
	 M390.596,148.193l-11.986-12.717l10.728-11.358L390.596,148.193z M389.147,120.489l-0.217-0.17l0.196-0.207L389.147,120.489z
	 M389.053,118.672l-0.951,1.009l-3.245-2.509h4.118L389.053,118.672z M388.545,121.34h-0.574l0.242-0.256L388.545,121.34z
	 M388.864,115.059l-8.732-6.751l8.053-6.227L388.864,115.059z M377.474,96.263h9.794l-9.794,7.573V96.263z M377.474,105.153
	l10.45-8.08l0.195,3.742l-8.84,6.834l-1.806-1.396V105.153z M377.474,107.569l0.955,0.738l-0.955,0.74V107.569z M377.474,110.364
	l1.806-1.397l9.266,7.164h-5.036l-6.035-4.667V110.364z M377.474,112.779l4.332,3.351h-4.332V112.779z M377.474,117.172h5.681
	l4.23,3.271l-0.846,0.897h-9.065V117.172z M377.474,122.382h8.082l-8.082,8.575V122.382z M377.474,132.475l9.515-10.093h2.258
	l0.016,0.297l-11.369,12.039l-0.419-0.445V132.475z M377.474,136.68l0.418-0.444l12.788,13.567l0.09,1.71h-0.98l-12.315-13.042
	V136.68z M377.474,139.989l10.882,11.523h-10.882V139.989z M377.474,152.555h11.867l1.493,1.582l-2.669,2.681h-10.691V152.555z
	 M377.474,157.859h9.653l-9.653,9.688V157.859z M377.474,169.025l11.124-11.166h2.503l0.009,0.169L377.986,171.2l-0.513-0.516
	V169.025z M377.474,173.192l0.513-0.515l14.658,14.713l0.148,2.84l-15.319-15.377V173.192z M374.347,152.555v4.263h-10.691
	l-2.669-2.681l1.494-1.582H374.347z M363.465,151.513l10.882-11.523v11.523H363.465z M374.347,157.859v9.688l-9.653-9.688H374.347z
	 M374.347,169.025v1.659l-0.513,0.516l-13.293-13.341h2.683L374.347,169.025z M374.347,110.364v1.099l-6.035,4.667h-5.035
	l9.265-7.164L374.347,110.364z M373.393,108.307l0.954-0.738v1.478L373.393,108.307z M374.347,112.779v3.351h-4.332L374.347,112.779
	z M368.667,117.172h5.68v4.168h-9.064l-0.846-0.897L368.667,117.172z M374.347,122.382v8.575l-8.081-8.575H374.347z M374.347,96.263
	v7.573l-9.794-7.573H374.347z M363.647,96.879l10.699,8.273v1.1l-1.806,1.396l-9.089-7.028L363.647,96.879z M363.385,101.887
	l8.305,6.42l-9.004,6.962L363.385,101.887z M362.586,117.172h4.379l-3.246,2.509l-1.105-1.174l-0.102,0.096L362.586,117.172z
	 M363.851,121.34h-0.574l0.331-0.256L363.851,121.34z M362.445,119.85l0.444,0.47l-0.488,0.379L362.445,119.85z M362.314,122.382
	h2.518l9.515,10.093v1.798l-0.419,0.445l-11.616-12.299L362.314,122.382z M362.236,123.855l10.975,11.621l-12.262,13.01
	L362.236,123.855z M360.864,150.094l13.064-13.858l0.418,0.444v1.791l-12.316,13.042h-1.239L360.864,150.094z M360.736,152.555
	h0.311l-0.329,0.349L360.736,152.555z M360.597,155.223l1.589,1.595h-1.673L360.597,155.223z M360.39,159.182l12.709,12.758
	l-14.116,14.169L360.39,159.182z M358.901,187.665l14.933-14.987l0.513,0.515v1.661l-15.595,15.653L358.901,187.665z
	 M371.481,191.028l-1.042,1.303l-1.303-2.605l-0.261,3.386l-1.823-1.302l-0.781,1.563l-3.387-2.085l-1.563,1.823l-0.521-1.562
	l-2.129,0.518l15.675-15.735v16.716l-0.521,0.326L371.481,191.028z M389.457,191.028l-0.261,1.823l-1.823-1.303l-1.563,1.562
	l-2.083-1.042l-1.042,1.563l-1.563-2.084l-2.346,1.303l-1.302-0.356v-16.164l12.644,12.69l-0.139-0.077l2.084,3.387L389.457,191.028
	z"/>
</svg>
