<?xml version="1.0" encoding="utf-8"?>
<!-- Generator: Adobe Illustrator 16.0.0, SVG Export Plug-In . SVG Version: 6.00 Build 0)  -->
<!DOCTYPE svg PUBLIC "-//W3C//DTD SVG 1.1//EN" "http://www.w3.org/Graphics/SVG/1.1/DTD/svg11.dtd">
<svg version="1.1" id="Layer_1" xmlns="http://www.w3.org/2000/svg" xmlns:xlink="http://www.w3.org/1999/xlink" x="0px" y="0px"
	 width="1400px" height="430px" viewBox="0 0 1400 430" enable-background="new 0 0 1400 430" xml:space="preserve">
<g>
	<g>
		<circle fill="#FF5408" cx="578.962" cy="94.339" r="84.812"/>
		<path fill="#E03A07" d="M647.217,59.133c-8.949,1.234-99.536,71.854-111.314,81.865c-10.578,8.99-9.359,18.432-9.004,20.267
			c14.375,11.196,32.431,17.883,52.062,17.883c46.841,0,84.813-37.971,84.813-84.809c0-11.994-2.504-23.399-6.993-33.741
			C655.364,59.548,652.552,58.397,647.217,59.133z"/>
		<g>
			<path fill="#A02302" d="M609.063,50.438l-1.263,0.33c-0.187,0.047-0.442,0.093-0.629,0.093c-0.841,0-1.565-0.705-1.565-1.55
				c0-0.729,0.47-1.34,1.19-1.552l2.312-0.681c0.675-0.188,1.189-0.306,1.68-0.306h0.048c0.979,0,1.772,0.8,1.772,1.787v13.255
				c0,0.987-0.794,1.787-1.772,1.787c-0.979,0-1.772-0.799-1.772-1.787V50.438z"/>
			<path fill="#A02302" d="M616.601,61.86c-0.325-0.282-0.607-0.775-0.607-1.293c0-0.939,0.794-1.738,1.729-1.738
				c0.513,0,0.862,0.211,1.142,0.446c0.934,0.8,1.913,1.223,3.197,1.223c1.357,0,2.311-0.776,2.311-1.998v-0.047
				c0-1.34-1.189-2.092-3.196-2.092h-0.56c-0.842,0-1.542-0.705-1.542-1.551c0-0.493,0.21-0.917,0.772-1.48l3.172-3.22H618
				c-0.838,0-1.538-0.705-1.538-1.551s0.7-1.551,1.538-1.551h7.959c1.052,0,1.82,0.611,1.82,1.598c0,0.893-0.421,1.387-1.072,2.021
				l-3.198,3.079c2.219,0.376,4.388,1.551,4.388,4.606v0.047c0,3.102-2.242,5.381-5.881,5.381
				C619.681,63.739,617.932,63.011,616.601,61.86z"/>
		</g>
		<g>
			<path fill="#A02302" d="M571.374,75.194c0,0,12.036,26.205,13.84,30.137c1.806,3.93,6.41,13.428,15.699,12.064
				c9.292-1.366,13.812-7.851,7.218-16.408c0,0-1.045,2.449-1.754,3.014c-0.714,0.564-3.988-13.95-2.646-13.78
				c0,0,6.73,8.454,7.767,10.185c1.043,1.736,7.566,13.312-5.418,19.275c-14.478,6.646-22.028-8.751-23.86-12.976
				c-1.174-2.697-13.844-30.137-13.844-30.137L571.374,75.194z"/>
			<path fill="#A02302" d="M599.168,121.787c-9.856,0-15.434-10.418-17.373-14.897c-1.16-2.66-13.715-29.852-13.841-30.126
				l-0.196-0.422l3.846-1.762l0.191,0.42c0,0,12.037,26.206,13.84,30.138c2.354,5.12,6.312,11.927,13.497,11.927
				c0.56,0,1.134-0.044,1.713-0.128c4.812-0.707,8.264-2.819,9.467-5.795c1.072-2.655,0.352-5.84-2.083-9.246
				c-0.384,0.81-1.027,2.041-1.563,2.469l-0.127,0.101l-0.204,0.017l0,0c-0.355,0-0.541-0.325-0.613-0.447
				c-0.879-1.52-3.474-12.382-2.579-13.931c0.127-0.22,0.333-0.347,0.567-0.347l0.187,0.023l0.198,0.153
				c0.275,0.346,6.761,8.498,7.802,10.235c0.909,1.512,3.749,6.855,2.135,12.078c-1.023,3.32-3.634,5.963-7.758,7.856
				C603.839,121.221,601.446,121.787,599.168,121.787z M568.991,76.796c1.606,3.479,12.571,27.238,13.654,29.724
				c1.867,4.312,7.216,14.34,16.522,14.34c2.145,0,4.404-0.538,6.717-1.6c3.874-1.779,6.316-4.231,7.261-7.288
				c1.499-4.855-1.187-9.897-2.046-11.327c-0.85-1.418-5.693-7.561-7.25-9.527c-0.075,2.347,1.697,10.329,2.531,12.189
				c0.442-0.61,1.013-1.772,1.323-2.502l0.31-0.728l0.484,0.626c3.813,4.948,3.558,8.596,2.673,10.784
				c-1.329,3.29-5.044,5.609-10.191,6.366c-0.623,0.091-1.243,0.137-1.848,0.137c-8.609,0-12.923-9.383-14.339-12.466
				c-1.671-3.638-12.094-26.335-13.647-29.716L568.991,76.796z"/>
		</g>
		<g>
			<path fill="#A02302" d="M563.73,74.292c1.152,2.511,4.131,3.611,6.646,2.458c2.512-1.156,3.617-4.13,2.464-6.646
				c-1.155-2.515-4.136-3.622-6.648-2.463C563.674,68.797,562.577,71.774,563.73,74.292z M565.79,73.345
				c-0.635-1.382-0.03-3.009,1.35-3.642c1.377-0.633,3.011-0.033,3.64,1.347c0.634,1.38,0.023,3.007-1.35,3.64
				C568.047,75.319,566.428,74.718,565.79,73.345z"/>
			<path fill="#A02302" d="M568.287,77.672L568.287,77.672c-2.137,0-4.09-1.25-4.978-3.187c-1.259-2.748-0.053-6.006,2.689-7.264
				c0.723-0.333,1.49-0.502,2.282-0.502c2.137,0,4.09,1.253,4.981,3.193c1.259,2.741,0.049,5.998-2.692,7.26
				C569.845,77.504,569.078,77.672,568.287,77.672z M568.281,67.646c-0.656,0-1.293,0.14-1.895,0.417
				c-2.277,1.044-3.28,3.752-2.232,6.036c0.735,1.607,2.359,2.645,4.133,2.645l0,0c0.656,0,1.295-0.14,1.895-0.416
				c2.279-1.047,3.283-3.753,2.236-6.031C571.68,68.688,570.055,67.646,568.281,67.646z M568.285,75.403
				c-1.246,0-2.39-0.731-2.916-1.863c-0.358-0.783-0.392-1.655-0.094-2.458c0.298-0.804,0.891-1.443,1.671-1.8
				c1.571-0.723,3.548,0.019,4.255,1.576c0.738,1.604,0.029,3.513-1.577,4.253C569.196,75.305,568.748,75.403,568.285,75.403z
				 M568.285,69.916c-0.328,0-0.65,0.07-0.951,0.209c-0.556,0.254-0.978,0.708-1.188,1.279c-0.212,0.571-0.188,1.191,0.066,1.748
				c0.51,1.102,1.902,1.625,3.025,1.116c1.142-0.525,1.646-1.882,1.121-3.023C569.99,70.436,569.177,69.916,568.285,69.916z"/>
		</g>
		<g>
			<path fill="#A02302" d="M585.949,75.063c0,0-11.572,26.416-13.31,30.381c-1.734,3.958-6.173,13.535-15.483,12.333
				c-9.317-1.203-13.95-7.606-7.51-16.281c0,0,1.097,2.431,1.814,2.984c0.716,0.556,3.74-14.018,2.401-13.83
				c0,0-6.579,8.573-7.582,10.327c-1.016,1.75-7.333,13.44,5.751,19.175c14.588,6.395,21.871-9.133,23.629-13.389
				c1.123-2.716,13.312-30.375,13.312-30.375L585.949,75.063z"/>
			<path fill="#A02302" d="M558.737,122.141L558.737,122.141c-2.207,0-4.525-0.526-6.892-1.563c-4.16-1.823-6.815-4.424-7.898-7.731
				c-1.701-5.208,1.049-10.578,1.933-12.1c1.005-1.759,7.345-10.025,7.614-10.377l0.115-0.15l0.188-0.026
				c0.25-0.017,0.625,0.056,0.777,0.641c0.06,0.23,0.09,0.54,0.09,0.947c0,1.864-1.718,13.179-3.161,13.179h-0.16l-0.168-0.113
				c-0.541-0.418-1.211-1.639-1.61-2.442c-2.375,3.45-3.039,6.648-1.919,9.284c1.256,2.955,4.743,5.006,9.57,5.63
				c0.511,0.066,1.022,0.099,1.518,0.099c7.309,0,11.193-6.939,13.48-12.159l13.496-30.805l3.873,1.699l-0.188,0.425
				c-0.121,0.276-12.2,27.685-13.309,30.365C574.204,111.511,568.738,122.141,558.737,122.141z M553.759,91.55
				c-1.521,1.995-6.255,8.223-7.077,9.659c-0.834,1.439-3.436,6.506-1.852,11.348c0.995,3.046,3.481,5.458,7.389,7.171
				c2.248,0.985,4.439,1.484,6.519,1.485c9.442,0,14.681-10.228,16.493-14.626c1.038-2.505,11.588-26.457,13.13-29.96l-2.172-0.953
				l-13.123,29.957c-1.38,3.144-5.572,12.714-14.331,12.714c-0.536,0-1.087-0.036-1.638-0.107
				c-5.161-0.667-8.916-2.922-10.304-6.188c-0.924-2.172-1.242-5.815,2.48-10.831l0.471-0.633l0.324,0.719
				c0.327,0.725,0.92,1.875,1.375,2.479C552.245,101.902,553.874,93.895,553.759,91.55z"/>
		</g>
		<g>
			<path fill="#A02302" d="M590.999,67.424c-2.537-1.111-5.491,0.044-6.601,2.578c-1.111,2.534,0.045,5.49,2.582,6.604
				c2.532,1.111,5.488-0.047,6.596-2.576C594.686,71.492,593.534,68.537,590.999,67.424z M587.885,74.528
				c-1.388-0.607-2.019-2.228-1.412-3.614c0.611-1.39,2.229-2.021,3.618-1.412c1.388,0.608,2.019,2.225,1.411,3.617
				C590.893,74.503,589.271,75.138,587.885,74.528z"/>
			<path fill="#A02302" d="M588.986,77.492L588.986,77.492c-0.757,0-1.496-0.155-2.192-0.461c-2.768-1.215-4.033-4.452-2.821-7.215
				c0.872-1.992,2.841-3.278,5.018-3.278c0.756,0,1.496,0.156,2.194,0.462c2.762,1.212,4.025,4.449,2.817,7.217
				C593.129,76.207,591.161,77.492,588.986,77.492z M588.99,67.465c-1.809,0-3.441,1.069-4.167,2.723
				c-1.007,2.296,0.044,4.984,2.345,5.994c0.578,0.254,1.19,0.383,1.818,0.383c1.807,0,3.44-1.069,4.164-2.722
				c1.005-2.298-0.044-4.987-2.338-5.995C590.23,67.595,589.617,67.465,588.99,67.465z M588.984,75.224
				c-0.444,0-0.877-0.092-1.286-0.271c-1.619-0.708-2.36-2.604-1.651-4.226c0.691-1.573,2.644-2.347,4.23-1.649
				c1.618,0.708,2.357,2.604,1.651,4.227C591.414,74.471,590.259,75.224,588.984,75.224z M588.99,69.734
				c-0.909,0-1.729,0.536-2.093,1.366c-0.504,1.152,0.021,2.5,1.173,3.004c1.127,0.497,2.516-0.057,3.009-1.172
				c0.502-1.153-0.023-2.501-1.174-3.005C589.613,69.799,589.306,69.734,588.99,69.734z"/>
		</g>
	</g>
	<g>
		<circle fill="#FF5408" cx="94.812" cy="335.662" r="84.812"/>
		<path fill="#E03A07" d="M163.066,300.456c-8.949,1.234-99.535,71.854-111.314,81.865c-10.576,8.99-9.361,18.432-9.003,20.267
			c14.373,11.196,32.432,17.883,52.062,17.883c46.838,0,84.812-37.97,84.812-84.81c0-11.994-2.505-23.398-6.995-33.741
			C171.216,300.87,168.4,299.72,163.066,300.456z"/>
		<g>
			<path fill="#A02302" d="M124.911,291.759l-1.261,0.329c-0.188,0.048-0.442,0.094-0.629,0.094c-0.842,0-1.564-0.705-1.564-1.551
				c0-0.729,0.468-1.34,1.19-1.551l2.309-0.682c0.677-0.188,1.19-0.306,1.682-0.306h0.047c0.979,0,1.773,0.799,1.773,1.787v13.255
				c0,0.987-0.794,1.786-1.773,1.786s-1.773-0.799-1.773-1.786V291.759z"/>
			<path fill="#A02302" d="M132.451,303.182c-0.326-0.282-0.606-0.775-0.606-1.293c0-0.939,0.794-1.738,1.727-1.738
				c0.513,0,0.864,0.211,1.144,0.446c0.935,0.799,1.914,1.222,3.197,1.222c1.352,0,2.312-0.776,2.312-1.998v-0.047
				c0-1.34-1.19-2.092-3.197-2.092h-0.562c-0.84,0-1.54-0.705-1.54-1.552c0-0.493,0.21-0.916,0.77-1.48l3.173-3.22h-5.016
				c-0.841,0-1.541-0.705-1.541-1.551c0-0.846,0.7-1.551,1.541-1.551h7.958c1.05,0,1.82,0.611,1.82,1.598
				c0,0.893-0.419,1.387-1.074,2.021l-3.197,3.079c2.217,0.376,4.388,1.551,4.388,4.606v0.047c0,3.102-2.24,5.381-5.881,5.381
				C135.533,305.062,133.78,304.333,132.451,303.182z"/>
		</g>
		<g>
			<path fill="#A02302" d="M75.722,294.672c0,0-6.304-2.502-10.633,0.779c0,0-4.747,3.062-2.347,8.641c0,0-0.532,4.016,0.072,5.302
				c0.604,1.295,4.553,4.367,4.553,4.367s1.053,0.448,0.467-1.477c-0.588-1.923-0.562-2.981-0.089-4.67
				c0.463-1.683,0.463-1.683,0.463-1.683s5.158-2.407,3.561-6.272c0,0,0.229-0.628,2.116,0.056
				c1.894,0.689,4.445-0.932,7.655,15.901c3.354,17.645,4.429,17.085,8.803,20.176c4.374,3.084,10.869,6.431,10.869,6.431
				s6.106,1.647,11.637,1.156c5.529-0.491,10.271,4.725,13.016,5.217c2.744,0.498,1.506-1.426,0.735-3.583
				c-1.045-2.894-7.68-18.222-18.353-22.438c-9.92-3.92-14.312,5.671-17.583,3.038c-4.388-3.526-4.653-14.09-6.642-19.905
				C81.303,297.746,78.385,296.171,75.722,294.672z"/>
			<path fill="#A02302" d="M126.62,349.146c-0.233,0-0.511-0.027-0.84-0.087c-1.073-0.192-2.352-0.999-3.83-1.933
				c-2.508-1.583-5.69-3.586-9.061-3.278c-0.697,0.062-1.442,0.094-2.21,0.094c-4.851,0-9.398-1.213-9.591-1.264
				c-0.157-0.07-6.665-3.434-11.016-6.501c-0.339-0.239-0.655-0.455-0.955-0.66c-3.672-2.504-4.911-3.347-8.041-19.813
				c-2.772-14.54-4.979-15.006-6.592-15.347c-0.263-0.056-0.518-0.11-0.761-0.199c-0.778-0.282-1.184-0.299-1.38-0.288
				c0.972,3.083-1.876,5.454-3.739,6.392l-0.406,1.477c-0.47,1.671-0.45,2.659,0.084,4.408c0.264,0.868,0.264,1.438-0.003,1.797
				c-0.158,0.214-0.4,0.333-0.683,0.333c-0.205,0-0.368-0.064-0.416-0.083l-0.103-0.062c-0.413-0.322-4.058-3.181-4.691-4.54
				c-0.603-1.279-0.228-4.646-0.128-5.435c-2.412-5.802,2.523-9.07,2.573-9.102c1.538-1.166,3.503-1.767,5.814-1.767
				c2.832,0,5.15,0.907,5.249,0.945l0.137,0.073c2.663,1.499,5.684,3.197,8.434,11.247c0.656,1.922,1.121,4.309,1.611,6.836
				c0.963,4.96,2.055,10.583,4.881,12.855c1.048,0.843,2.447-0.002,4.273-1.138c2.121-1.318,4.76-2.958,8.319-2.958
				c1.572,0,3.21,0.333,4.868,0.987c11.827,4.673,18.558,22.538,18.622,22.717c0.119,0.333,0.25,0.661,0.374,0.974
				c0.479,1.205,0.857,2.158,0.417,2.808C127.602,348.974,127.196,349.146,126.62,349.146z M113.588,342.876
				c3.393,0,6.426,1.915,8.863,3.454c1.396,0.881,2.603,1.643,3.496,1.803c0.649,0.118,1.053,0.05,1.107-0.026
				c0.161-0.238-0.229-1.217-0.515-1.932c-0.128-0.323-0.261-0.661-0.385-1.003c-0.062-0.173-6.638-17.639-18.08-22.159
				c-1.549-0.612-3.07-0.922-4.523-0.922c-3.29,0-5.803,1.561-7.823,2.816c-1.415,0.88-2.638,1.641-3.789,1.641
				c-0.572,0-1.102-0.191-1.57-0.568c-3.095-2.488-4.173-8.04-5.215-13.41c-0.484-2.494-0.941-4.851-1.576-6.709
				c-2.636-7.712-5.366-9.247-8.007-10.732c-0.045-0.026-2.277-0.897-4.924-0.897c-2.101,0-3.876,0.538-5.274,1.596
				c-0.206,0.138-4.408,2.946-2.197,8.08l0.051,0.119l-0.019,0.129c-0.143,1.079-0.415,4.088,0.033,5.041
				c0.439,0.946,3.156,3.207,4.305,4.109c0.003-0.088,0-0.348-0.165-0.883c-0.588-1.929-0.609-3.083-0.089-4.935l0.521-1.889
				l0.195-0.093c0.193-0.091,4.731-2.266,3.326-5.667l-0.07-0.169l0.062-0.172c0.035-0.096,0.253-0.573,1.119-0.573
				c0.426,0,0.964,0.118,1.601,0.348c0.204,0.074,0.416,0.117,0.635,0.164c1.974,0.417,4.433,0.937,7.321,16.091
				c3.058,16.083,4.121,16.81,7.645,19.212c0.305,0.207,0.626,0.427,0.969,0.668c4.296,3.03,10.748,6.365,10.812,6.397l0,0
				c0.041,0,4.574,1.195,9.252,1.195c0.741,0,1.457-0.031,2.127-0.09C113.068,342.887,113.329,342.876,113.588,342.876z"/>
		</g>
		<g>
			<path fill="#A02302" d="M109.94,338.775c0,0-0.775,3.886-0.568,6.763c0.204,2.875,0.709,5.122,0.709,5.122l0.245,1.283
				l-1.424,0.92l-1.886-2.922c0,0-3.821-3.925-5.396,2.732l-2.488-1.343c0,0,3.633-10.323-0.758-13.841L109.94,338.775z"/>
			<path fill="#A02302" d="M108.482,354.816l-2.562-3.968c-0.279-0.248-0.853-0.644-1.299-0.644c-0.596,0-1.22,1.07-1.628,2.794
				l-0.424,1.792L97.402,352l0.397-1.138c0.916-2.611,2.645-9.906-0.308-12.271l-3.798-3.043l17.933,1.995l-0.301,1.509
				c-0.008,0.038-0.736,3.738-0.547,6.386c0.194,2.725,0.674,4.893,0.68,4.915l0.434,2.259L108.482,354.816z M101.281,339.232
				c1.381,3.585,0.387,8.426-0.318,10.961c1.039-2.271,2.502-2.813,3.659-2.813c1.819,0,3.25,1.415,3.406,1.576l0.173,0.22
				l0.227,0.349c-0.159-0.957-0.354-2.331-0.465-3.887c-0.136-1.902,0.12-4.163,0.337-5.625L101.281,339.232z"/>
		</g>
		<g>
			<line fill="#A02302" x1="105.551" y1="343.858" x2="115.524" y2="377.562"/>
			<path fill="#A02302" d="M115.523,379.604c-0.881,0-1.693-0.575-1.957-1.463l-9.974-33.704c-0.32-1.081,0.297-2.217,1.378-2.537
				c1.08-0.317,2.218,0.296,2.538,1.378l9.974,33.704c0.32,1.081-0.297,2.217-1.378,2.537
				C115.911,379.578,115.716,379.604,115.523,379.604z"/>
		</g>
		<g>
			<line fill="#A02302" x1="103.397" y1="343.438" x2="94.234" y2="377.367"/>
			<path fill="#A02302" d="M94.234,379.409c-0.175,0-0.354-0.023-0.533-0.071c-1.089-0.294-1.732-1.415-1.438-2.502l9.163-33.93
				c0.293-1.088,1.417-1.733,2.503-1.438c1.089,0.294,1.732,1.415,1.438,2.502l-9.161,33.929
				C95.96,378.81,95.135,379.409,94.234,379.409z"/>
		</g>
	</g>
	<g>
		<circle fill="#FF5408" cx="821.039" cy="335.662" r="84.81"/>
		<path fill="#E03A07" d="M889.295,300.457c-8.95,1.234-99.537,71.853-111.314,81.865c-10.578,8.99-9.361,18.433-9.005,20.268
			c14.374,11.196,32.432,17.882,52.062,17.882c46.84,0,84.811-37.97,84.811-84.81c0-11.992-2.502-23.398-6.994-33.741
			C897.441,300.872,894.629,299.722,889.295,300.457z"/>
		<g>
			<path fill="#A02302" d="M851.137,291.76l-1.259,0.329c-0.187,0.047-0.444,0.095-0.632,0.095c-0.838,0-1.562-0.707-1.562-1.552
				c0-0.729,0.467-1.339,1.191-1.55l2.31-0.683c0.676-0.188,1.19-0.305,1.681-0.305h0.046c0.982,0,1.774,0.799,1.774,1.786v13.255
				c0,0.987-0.792,1.787-1.774,1.787c-0.98,0-1.774-0.799-1.774-1.787V291.76z"/>
			<path fill="#A02302" d="M858.677,303.182c-0.325-0.281-0.606-0.775-0.606-1.292c0-0.939,0.793-1.739,1.728-1.739
				c0.515,0,0.863,0.212,1.144,0.446c0.934,0.8,1.912,1.222,3.198,1.222c1.354,0,2.31-0.775,2.31-1.997v-0.046
				c0-1.34-1.19-2.092-3.197-2.092h-0.56c-0.843,0-1.54-0.706-1.54-1.552c0-0.493,0.208-0.917,0.771-1.48l3.173-3.22h-5.018
				c-0.842,0-1.539-0.705-1.539-1.551s0.697-1.551,1.539-1.551h7.957c1.051,0,1.822,0.61,1.822,1.598
				c0,0.893-0.422,1.387-1.074,2.021l-3.197,3.08c2.217,0.375,4.388,1.55,4.388,4.607v0.046c0,3.103-2.243,5.382-5.881,5.382
				C861.758,305.063,860.009,304.334,858.677,303.182z"/>
		</g>
		<path fill="#A02302" d="M830.586,371.991c0,0-0.01-5.771-0.011-8.297c-0.009-2.526-0.23-30.657-0.599-32.461
			c-0.362-1.803-3.796-7.568-3.796-7.568c0.348-7.752-1.661-20.738-1.661-20.738c0.898-0.001,0.541-1.082,0.541-1.082l-0.8-3.167
			l0.628-0.014c0,0,0.363,0,0.603-0.422c0.239-0.422,0.299-0.9,0.057-1.623c-0.114-0.34-0.9-0.417-0.9-0.417
			c-0.964-0.542-6.371-0.289-7.214-0.105c-0.842,0.179-1.14,0.601-1.14,0.601s-0.181,0.723,0.004,1.445
			c0.18,0.717,0.901,0.655,0.901,0.655l0.339-0.004l-0.761,3.067c0,0-0.356,1.08,0.543,1.082c0,0-1.96,12.987-1.588,20.743
			c0,0-3.421,5.774-3.773,7.578c-0.357,1.809-0.486,29.939-0.484,32.467c0.005,2.526,0.016,8.293,0.016,8.293
			s-0.357,3.432,2.526,3.427c2.373-0.008,5.73-0.014,6.835-0.015c0.241,0,0.377,0,0.377,0c1.114,0,4.466-0.01,6.84-0.012
			C830.953,375.417,830.586,371.991,830.586,371.991z"/>
	</g>
	<g>
		<circle fill="#FF5408" cx="578.964" cy="335.662" r="84.81"/>
		<path fill="#E03A07" d="M647.221,300.456c-8.949,1.234-99.537,71.854-111.314,81.865c-10.578,8.99-9.361,18.432-9.004,20.267
			c14.374,11.196,32.43,17.883,52.06,17.883c46.839,0,84.812-37.97,84.812-84.81c0-11.993-2.504-23.398-6.993-33.74
			C655.367,300.872,652.555,299.721,647.221,300.456z"/>
		<g>
			<path fill="#A02302" d="M609.063,291.761l-1.261,0.329c-0.186,0.047-0.444,0.094-0.631,0.094c-0.841,0-1.562-0.705-1.562-1.551
				c0-0.729,0.466-1.339,1.189-1.551l2.311-0.682c0.675-0.188,1.19-0.306,1.681-0.306h0.045c0.979,0,1.772,0.799,1.772,1.787v13.255
				c0,0.987-0.794,1.786-1.772,1.786c-0.979,0-1.772-0.799-1.772-1.786V291.761z"/>
			<path fill="#A02302" d="M616.602,303.183c-0.326-0.282-0.605-0.775-0.605-1.293c0-0.939,0.793-1.738,1.726-1.738
				c0.513,0,0.864,0.211,1.145,0.446c0.935,0.799,1.914,1.223,3.197,1.223c1.354,0,2.312-0.777,2.312-1.998v-0.047
				c0-1.34-1.19-2.092-3.198-2.092h-0.562c-0.839,0-1.54-0.705-1.54-1.552c0-0.492,0.212-0.916,0.771-1.48l3.172-3.22h-5.014
				c-0.842,0-1.542-0.705-1.542-1.551s0.7-1.552,1.542-1.552h7.957c1.05,0,1.818,0.611,1.818,1.599c0,0.893-0.418,1.387-1.072,2.021
				l-3.198,3.079c2.219,0.376,4.388,1.552,4.388,4.606v0.047c0,3.102-2.238,5.381-5.881,5.381
				C619.684,305.063,617.932,304.335,616.602,303.183z"/>
		</g>
		<path fill="#A02302" d="M542.124,345.867c0,0,5.199-2.868,10.524-2.869c5.325,0,6.536,3.15,10.523,2.867
			c3.988-0.283,5.195-2.863,10.525-2.863c5.331,0,4.955,2.883,10.526,2.865c5.569-0.017,6.951-2.868,10.528-2.865
			c3.576,0,6.254,3.167,10.524,2.865c4.271-0.302,10.526-2.867,10.526-2.867l0.004,11.679c0,0-7.11,4.273-10.53,4.273
			c-3.417,0.001-7.267-4.273-10.524-4.273c-3.262,0-4.505,4.273-10.524,4.273c-6.026,0.001-6.666-4.273-10.528-4.272
			c-3.863,0-4.011,2.848-10.527,3.133c-6.515,0.286-7.306-3.133-10.523-3.134c-3.219,0-10.524,4.273-10.524,4.273V345.867z"/>
		<path fill="none" stroke="#FF5D60" stroke-width="1.0625" stroke-miterlimit="10" d="M612.834,350.249
			c0,0-4.131,2.073-7.449,2.071c-3.318,0.002-7.054-4.144-10.217-4.146c-3.163,0-4.371,4.146-10.213,4.148
			c-5.847,0-6.465-4.146-10.215-4.146c-3.751,0-3.892,2.763-10.212,3.041c-6.327,0.275-7.093-3.041-10.218-3.043
			c-3.123,0-8.499,3.004-8.499,3.004"/>
		<path fill="#A02302" d="M542.124,322.312c0,0,5.199-2.867,10.524-2.868c5.325,0,6.536,3.152,10.523,2.867
			c3.988-0.284,5.195-2.864,10.525-2.866c5.331,0.001,4.955,2.883,10.526,2.868c5.569-0.019,6.951-2.869,10.528-2.866
			c3.576,0,6.254,3.167,10.524,2.863c4.271-0.299,10.53-2.864,10.53-2.864v11.681c0,0-7.11,4.271-10.53,4.271
			c-3.417,0.001-7.267-4.272-10.524-4.272c-3.262,0-4.505,4.272-10.524,4.272c-6.026,0.002-6.666-4.272-10.528-4.27
			c-3.863,0-4.011,2.848-10.527,3.132c-6.515,0.284-7.306-3.133-10.523-3.135c-3.219,0-10.524,4.274-10.524,4.274V322.312z"/>
		<path fill="none" stroke="#FF5D60" stroke-width="1.0625" stroke-miterlimit="10" d="M612.834,326.695
			c0,0-4.131,2.071-7.449,2.071s-7.051-4.144-10.217-4.146c-3.16,0-4.371,4.146-10.213,4.146c-5.847,0-6.465-4.144-10.215-4.144
			c-3.751,0-3.892,2.762-10.212,3.04c-6.327,0.276-7.093-3.039-10.218-3.041c-3.123-0.001-8.499,3.001-8.499,3.001"/>
	</g>
	<g>
		<circle fill="#FF5408" cx="94.811" cy="94.339" r="84.811"/>
		<path fill="#E03A07" d="M163.066,59.133c-8.949,1.234-99.536,71.854-111.314,81.865c-10.578,8.99-9.361,18.432-9.004,20.267
			c14.374,11.196,32.433,17.883,52.062,17.883c46.84,0,84.812-37.971,84.812-84.809c0-11.994-2.503-23.399-6.994-33.741
			C171.214,59.548,168.4,58.397,163.066,59.133z"/>
		<g>
			<path fill="#A02302" d="M124.909,50.438l-1.26,0.33c-0.187,0.047-0.443,0.093-0.632,0.093c-0.838,0-1.562-0.705-1.562-1.55
				c0-0.729,0.466-1.34,1.189-1.552l2.311-0.681c0.677-0.188,1.19-0.306,1.681-0.306h0.045c0.982,0,1.776,0.8,1.776,1.787v13.255
				c0,0.987-0.794,1.787-1.776,1.787c-0.979,0-1.772-0.799-1.772-1.787V50.438z"/>
			<path fill="#A02302" d="M132.447,61.86c-0.324-0.282-0.605-0.775-0.605-1.293c0-0.939,0.793-1.738,1.727-1.738
				c0.516,0,0.864,0.211,1.146,0.446c0.933,0.8,1.913,1.223,3.197,1.223c1.353,0,2.31-0.776,2.31-1.998v-0.047
				c0-1.34-1.189-2.092-3.198-2.092h-0.559c-0.841,0-1.541-0.705-1.541-1.551c0-0.493,0.21-0.917,0.771-1.48l3.173-3.22h-5.018
				c-0.841,0-1.539-0.705-1.539-1.551s0.698-1.551,1.539-1.551h7.958c1.052,0,1.82,0.611,1.82,1.598
				c0,0.893-0.421,1.387-1.072,2.021l-3.197,3.079c2.216,0.376,4.388,1.551,4.388,4.606v0.047c0,3.102-2.242,5.381-5.881,5.381
				C135.529,63.739,133.78,63.011,132.447,61.86z"/>
		</g>
		<circle fill="#A02302" cx="122.057" cy="113.954" r="10.26"/>
		<circle fill="#FF5408" cx="122.057" cy="113.955" r="5.361"/>
		<path fill="#A02302" d="M51.635,114.351c0.031,5.666,4.652,10.234,10.316,10.203c5.67-0.033,10.237-4.653,10.206-10.318
			c-0.035-5.666-4.652-10.235-10.32-10.202C56.173,104.065,51.602,108.684,51.635,114.351z"/>
		<circle fill="#FF5408" cx="61.896" cy="114.294" r="5.36"/>
		<path fill="#A02302" d="M125.867,91.156c0,0-0.021-3.527-0.023-4.478c-0.006-0.954-1.249-1.709-3.726-1.599
			c-2.479,0.107-25.141-0.241-27.342-0.229c-2.201,0.012-1.513,3.438-1.609,4.107c-0.093,0.668,0.307,3.315,6.122,3.816
			c5.812,0.5,11.338,0.106,14.87,0.413C117.688,93.488,125.875,92.683,125.867,91.156z"/>
		<path fill="#A02302" d="M137.988,111.101c0,0-6.869-18.127-19.654-20.504c-12.782-2.377-22.973-1.491-22.973-1.491l0.02,3.754
			c0,0,6.602,4.529,6.621,8.056c0.021,3.524-1.59,5.271-8.166,5.308c-6.573,0.037-9.133,0.197-10.856-1.509
			c-1.728-1.707-2.383-5.976-1.737-11.272c0.616-5.07-1.978-9.149-1.978-9.149l0.69-2.066c0,0,5.267,3.274,5.854,3.234
			c0.59-0.04,0.7-0.168,1.137-0.686c0.413-0.486,0.307-1.341-0.358-1.74c-0.353-0.212-5.191-3.401-5.191-3.401
			s-0.434-0.523-0.531-0.855c-0.163-0.57-0.484-1.994-1.112-2.711c-0.979-1.118-2.823-2.556-4.734-3.119
			c-1.907-0.559-5.501-0.254-5.592,0.033c-0.093,0.287-0.126,3.004,0.025,4.479c0.152,1.478,0.591,3.573,0.591,3.573l4.363,0.268
			c0,0,1.299,0.698,1.254,1.176c-0.045,0.476-1.166,0.841-1.964,1.09c-1.775,0.559-5.645,10.294-5.906,11.469
			c-0.162,0.725-1.342,4.266-1.342,4.266s-6.458-1.171-10.131,0.819c-3.674,1.99-5.044,6.636-4.916,6.953
			c0.128,0.318,4.449,0.547,9.791,1.342c5.343,0.798,8.288,4.783,11.087,5.274c2.797,0.495,5.273-0.029,5.273-0.029l-0.396-2.412
			c0,0,3.968,4.428,6.824,4.664c2.858,0.239,22.042-0.631,22.485-1.016c0.442-0.383,0.052-2.033,0.052-2.033
			s30.935-0.937,31.474-1.13C138.528,111.543,137.988,111.101,137.988,111.101z"/>
		<polygon fill="#A02302" points="126.23,96.343 135.189,97.281 136.604,98.612 138.168,100.577 138.182,103.113 128.807,103.168 		
			"/>
		
			<rect x="75.444" y="71.901" transform="matrix(-0.6432 0.7657 -0.7657 -0.6432 189.0333 57.4877)" fill="#A02302" width="11.359" height="1.765"/>
		<circle fill="#A02302" cx="85.445" cy="67.862" r="3.74"/>
	</g>
	<g>
		<circle fill="#FF5408" cx="336.886" cy="94.339" r="84.81"/>
		<path fill="#E03A07" d="M405.142,59.133c-8.949,1.234-99.537,71.854-111.314,81.865c-10.577,8.99-9.36,18.432-9.004,20.267
			c14.375,11.196,32.432,17.883,52.062,17.883c46.839,0,84.812-37.971,84.812-84.809c0-11.994-2.504-23.399-6.995-33.741
			C413.289,59.548,410.476,58.397,405.142,59.133z"/>
		<g>
			<path fill="#A02302" d="M366.985,50.438l-1.26,0.33c-0.187,0.047-0.442,0.093-0.63,0.093c-0.841,0-1.564-0.705-1.564-1.55
				c0-0.729,0.468-1.34,1.19-1.552l2.31-0.681c0.677-0.188,1.19-0.306,1.681-0.306h0.049c0.979,0,1.772,0.8,1.772,1.787v13.255
				c0,0.987-0.793,1.787-1.772,1.787c-0.981,0-1.775-0.799-1.775-1.787V50.438z"/>
			<path fill="#A02302" d="M374.526,61.86c-0.327-0.282-0.608-0.775-0.608-1.293c0-0.939,0.795-1.738,1.728-1.738
				c0.514,0,0.864,0.211,1.145,0.446c0.933,0.8,1.911,1.223,3.198,1.223c1.352,0,2.31-0.776,2.31-1.998v-0.047
				c0-1.34-1.19-2.092-3.197-2.092h-0.561c-0.841,0-1.538-0.705-1.538-1.551c0-0.493,0.207-0.917,0.768-1.48l3.174-3.22h-5.017
				c-0.841,0-1.542-0.705-1.542-1.551s0.701-1.551,1.542-1.551h7.957c1.05,0,1.821,0.611,1.821,1.598
				c0,0.893-0.42,1.387-1.074,2.021l-3.197,3.079c2.217,0.376,4.388,1.551,4.388,4.606v0.047c0,3.102-2.241,5.381-5.881,5.381
				C377.607,63.739,375.855,63.011,374.526,61.86z"/>
		</g>
		<path fill="#A02302" d="M360.793,74.626c0,0,3.389,0.969,5.309,1.461c1.916,0.49,6.054,1.332,4.715,7.832
			c-1.345,6.499-5.785,24.654-6.439,27.163c-0.652,2.51-1.176,7.576-6.556,7.12c-5.375-0.458-7.725-1.225-7.725-1.225
			L360.793,74.626z"/>
		<g>
			<polygon fill="#A02302" points="314.766,74.861 317.996,70.189 321.328,73.683 324.549,69.308 326.816,73.814 330.336,69.444 
				332.625,73.062 335.381,69.563 336.661,73.308 340.721,69.691 343.444,73.615 347.396,69.85 350.521,75.714 341.119,121.514 
				338.291,120.76 337.024,119.173 335.021,120.42 333.511,119.097 331.354,120.458 328.788,119.115 327.294,121.271 325.5,120.831 
				324.354,121.114 313.241,76.606 			"/>
			<path fill="#A02302" d="M341.119,122.339c-0.071,0-0.144-0.009-0.213-0.028l-2.828-0.753c-0.172-0.045-0.322-0.144-0.432-0.282
				l-0.81-1.014l-1.381,0.859c-0.307,0.192-0.704,0.159-0.979-0.081l-1.049-0.917l-1.635,1.032c-0.246,0.156-0.563,0.17-0.822,0.033
				l-1.921-1.004l-1.079,1.557c-0.193,0.281-0.536,0.411-0.875,0.332l-1.597-0.392l-0.949,0.234
				c-0.456,0.112-0.888-0.161-0.998-0.601L312.44,76.806c-0.065-0.262,0.002-0.539,0.179-0.743l1.526-1.745l3.171-4.598
				c0.142-0.205,0.367-0.334,0.614-0.354c0.242-0.021,0.49,0.074,0.661,0.253l2.655,2.783l2.638-3.584
				c0.171-0.231,0.453-0.366,0.734-0.333c0.287,0.024,0.539,0.194,0.669,0.451l1.689,3.36l2.714-3.372
				c0.168-0.206,0.426-0.335,0.689-0.306c0.267,0.015,0.509,0.157,0.65,0.383l1.667,2.632l2.035-2.583
				c0.187-0.237,0.491-0.35,0.786-0.303c0.298,0.051,0.543,0.261,0.643,0.547l0.878,2.568l3.133-2.791
				c0.177-0.157,0.417-0.227,0.646-0.203c0.235,0.028,0.447,0.155,0.58,0.349l2.175,3.132l3.253-3.101
				c0.188-0.178,0.444-0.26,0.701-0.217c0.255,0.041,0.475,0.199,0.598,0.426l3.127,5.863c0.089,0.17,0.117,0.366,0.078,0.555
				l-9.404,45.8c-0.046,0.223-0.181,0.417-0.374,0.536C341.421,122.297,341.27,122.339,341.119,122.339z M338.765,120.033
				l1.721,0.458l9.167-44.652l-2.474-4.643l-3.165,3.017c-0.175,0.167-0.396,0.244-0.653,0.224
				c-0.239-0.024-0.458-0.152-0.595-0.351l-2.191-3.159l-3.365,2.998c-0.207,0.184-0.492,0.25-0.758,0.182
				c-0.266-0.07-0.48-0.27-0.571-0.532l-0.789-2.31l-1.818,2.308c-0.163,0.21-0.423,0.333-0.689,0.313
				c-0.269-0.014-0.513-0.157-0.655-0.383l-1.674-2.644l-2.795,3.473c-0.176,0.218-0.453,0.332-0.73,0.303
				c-0.278-0.029-0.523-0.199-0.65-0.45l-1.66-3.304l-2.425,3.292c-0.145,0.196-0.368,0.318-0.612,0.334
				c-0.239,0.009-0.48-0.077-0.65-0.254l-2.633-2.761l-2.651,3.838l-1.301,1.494l10.81,43.292l0.346-0.085
				c0.132-0.032,0.266-0.032,0.396-0.001l1.244,0.305l1.17-1.689c0.234-0.342,0.69-0.455,1.06-0.261l2.145,1.122l1.756-1.107
				c0.311-0.193,0.711-0.162,0.983,0.077l1.051,0.921l1.485-0.924c0.355-0.218,0.819-0.142,1.08,0.187L338.765,120.033z"/>
		</g>
		<path fill="#A02302" d="M314.714,70.852c0,0-8.796,1.574-9.548,2.003c-0.754,0.426-2.998,1.115-2.358,5.435
			c0.639,4.32,10.166,40.623,10.704,43.012c0.537,2.387,1.118,2.958,4.985,2.549c3.87-0.408,7.155-1.13,7.155-1.13L314.714,70.852z"
			/>
		<path fill="#A02302" d="M350.488,70.964c0,0,6.658,0.901,8.573,1.54c1.915,0.638,3.104,0.52,2.25,5.399
			c-0.86,4.876-8.829,40.02-9.312,41.642c-0.483,1.622-1.308,5.226-5.447,4.428c-4.138-0.797-7.077-2.056-7.077-2.056
			L350.488,70.964z"/>
		<path fill="#FF5408" d="M313.383,86.673c0.212,1.024-0.447,2.026-1.47,2.238c-1.021,0.213-2.025-0.446-2.234-1.469
			c-0.216-1.022,0.44-2.024,1.468-2.237C312.168,84.994,313.168,85.652,313.383,86.673z"/>
		<path fill="#FF5408" d="M314.896,93.969c0.212,1.023-0.444,2.023-1.468,2.236c-1.025,0.212-2.029-0.444-2.238-1.467
			c-0.212-1.025,0.447-2.027,1.469-2.237C313.681,92.288,314.684,92.945,314.896,93.969z"/>
		<path fill="#FF5408" d="M316.407,101.261c0.214,1.024-0.443,2.025-1.465,2.239c-1.022,0.212-2.028-0.448-2.241-1.469
			c-0.21-1.023,0.447-2.024,1.47-2.237C315.195,99.581,316.196,100.24,316.407,101.261z"/>
		<path fill="#FF5408" d="M365.412,95.433c-0.233,0.941-1.186,1.517-2.121,1.284c-0.941-0.233-1.518-1.183-1.283-2.125
			c0.231-0.939,1.182-1.511,2.12-1.28C365.066,93.545,365.639,94.493,365.412,95.433z"/>
		<path fill="#FF5408" d="M364.072,100.849c-0.229,0.94-1.181,1.515-2.122,1.283c-0.938-0.233-1.513-1.183-1.28-2.125
			c0.23-0.938,1.182-1.514,2.123-1.28C363.732,98.958,364.307,99.912,364.072,100.849z"/>
		<path fill="#FF5408" d="M362.734,106.266c-0.229,0.938-1.178,1.511-2.119,1.281c-0.939-0.234-1.516-1.184-1.285-2.123
			c0.233-0.941,1.188-1.514,2.125-1.282C362.396,104.375,362.971,105.324,362.734,106.266z"/>
		<path fill="#FF5408" d="M361.398,111.678c-0.23,0.942-1.182,1.516-2.12,1.285c-0.94-0.232-1.513-1.183-1.282-2.121
			c0.234-0.941,1.184-1.516,2.123-1.283C361.058,109.791,361.635,110.74,361.398,111.678z"/>
		<path fill="#FF5408" d="M368.083,84.604c-0.229,0.939-1.181,1.513-2.121,1.281c-0.942-0.231-1.517-1.182-1.283-2.122
			s1.185-1.514,2.119-1.282C367.741,82.714,368.314,83.664,368.083,84.604z"/>
		<path fill="#FF5408" d="M366.748,90.018c-0.234,0.941-1.182,1.515-2.121,1.283c-0.942-0.232-1.521-1.184-1.285-2.122
			c0.231-0.94,1.184-1.514,2.122-1.282C366.405,88.128,366.981,89.08,366.748,90.018z"/>
		<path fill="#FF5408" d="M360.538,97.156c-0.229,0.939-1.181,1.514-2.122,1.28c-0.938-0.232-1.512-1.18-1.278-2.121
			c0.229-0.941,1.18-1.516,2.12-1.282C360.198,95.266,360.771,96.216,360.538,97.156z"/>
		<path fill="#FF5408" d="M359.203,102.568c-0.234,0.941-1.181,1.516-2.121,1.286c-0.94-0.231-1.516-1.184-1.283-2.124
			c0.231-0.94,1.184-1.515,2.122-1.282C358.861,100.68,359.434,101.63,359.203,102.568z"/>
		<path fill="#FF5408" d="M357.869,107.985c-0.234,0.942-1.185,1.514-2.121,1.283c-0.944-0.232-1.515-1.183-1.285-2.122
			c0.23-0.942,1.183-1.516,2.12-1.282C357.525,106.095,358.098,107.046,357.869,107.985z"/>
		<path fill="#FF5408" d="M356.531,113.403c-0.23,0.941-1.183,1.513-2.122,1.281c-0.94-0.232-1.515-1.183-1.285-2.122
			c0.236-0.941,1.186-1.515,2.124-1.283C356.191,111.51,356.761,112.46,356.531,113.403z"/>
		<path fill="#FF5408" d="M363.213,86.324c-0.229,0.941-1.184,1.514-2.124,1.282c-0.937-0.233-1.513-1.182-1.281-2.12
			c0.235-0.942,1.181-1.515,2.123-1.284C362.872,84.434,363.444,85.384,363.213,86.324z"/>
		<path fill="#FF5408" d="M361.875,91.739c-0.23,0.94-1.183,1.515-2.121,1.282c-0.938-0.23-1.513-1.183-1.28-2.122
			c0.228-0.94,1.179-1.513,2.121-1.282C361.533,89.85,362.106,90.799,361.875,91.739z"/>
		<path fill="#FF5408" d="M364.548,80.907c-0.231,0.941-1.183,1.515-2.123,1.283c-0.937-0.232-1.511-1.183-1.281-2.121
			c0.236-0.942,1.183-1.513,2.122-1.284C364.207,79.019,364.778,79.968,364.548,80.907z"/>
	</g>
	<g>
		<circle fill="#FF5408" cx="1305.189" cy="94.339" r="84.811"/>
		<path fill="#E03A07" d="M1373.446,59.134c-8.95,1.235-99.537,71.853-111.315,81.865c-10.576,8.99-9.359,18.431-9.004,20.266
			c14.375,11.196,32.433,17.884,52.062,17.884c46.839,0,84.812-37.97,84.812-84.81c0-11.994-2.504-23.398-6.994-33.74
			C1381.593,59.549,1378.779,58.398,1373.446,59.134z"/>
		<g>
			<path fill="#A02302" d="M1335.289,50.438l-1.26,0.33c-0.187,0.047-0.443,0.094-0.631,0.094c-0.839,0-1.562-0.705-1.562-1.55
				c0-0.729,0.467-1.34,1.188-1.552l2.312-0.682c0.677-0.188,1.19-0.306,1.68-0.306h0.049c0.979,0,1.771,0.8,1.771,1.787v13.255
				c0,0.987-0.792,1.786-1.771,1.786c-0.98,0-1.775-0.799-1.775-1.786V50.438z"/>
			<path fill="#A02302" d="M1342.83,61.86c-0.326-0.282-0.607-0.775-0.607-1.293c0-0.939,0.794-1.738,1.727-1.738
				c0.514,0,0.864,0.211,1.146,0.446c0.931,0.8,1.912,1.223,3.198,1.223c1.352,0,2.309-0.776,2.309-1.998v-0.047
				c0-1.34-1.19-2.092-3.199-2.092h-0.56c-0.841,0-1.538-0.705-1.538-1.551c0-0.493,0.208-0.916,0.769-1.48l3.174-3.22h-5.017
				c-0.84,0-1.54-0.705-1.54-1.551c0-0.846,0.7-1.551,1.54-1.551h7.957c1.051,0,1.82,0.611,1.82,1.598
				c0,0.893-0.42,1.387-1.074,2.021l-3.197,3.079c2.219,0.376,4.389,1.552,4.389,4.606v0.047c0,3.102-2.241,5.381-5.881,5.381
				C1345.91,63.74,1344.16,63.012,1342.83,61.86z"/>
		</g>
		<g>
			<path fill="#A02302" d="M1301.729,102.733c-10.742,9.5-1.906,17.521-8.255,19.464c-6.356,1.957-13.54-5.114-13.327-13.978
				c0.168-7.397,18.327-12.118,18.327-12.118S1311.246,94.318,1301.729,102.733z"/>
			<path fill="#A02302" d="M1291.288,124.604c-2.988,0-5.979-1.376-8.419-3.875c-3.163-3.241-4.914-7.817-4.801-12.558
				c0.09-3.925,3.6-7.515,10.434-10.669c4.677-2.158,9.257-3.36,9.449-3.409l0.234-0.047c0.051-0.007,1.293-0.179,2.761-0.179
				c3.388,0,5.461,0.937,6.162,2.786c1.028,2.722-1.6,5.512-4.005,7.638c-5.362,4.742-5.184,8.743-5.024,12.273
				c0.124,2.811,0.281,6.311-3.997,7.621C1293.179,124.462,1292.236,124.604,1291.288,124.604z M1298.869,98.146
				c-6.901,1.821-16.555,6.134-16.646,10.121c-0.086,3.577,1.269,7.148,3.62,9.558c2.126,2.179,4.747,3.091,7.02,2.387
				c0.997-0.305,1.203-0.368,1.065-3.464c-0.169-3.788-0.426-9.513,6.424-15.57c1.745-1.543,2.414-2.474,2.671-2.942
				c-0.353-0.101-0.991-0.214-2.076-0.214C1300.002,98.022,1299.163,98.111,1298.869,98.146z"/>
		</g>
		<g>
			<path fill="#A02302" d="M1308.649,90.664c10.737-9.496,1.906-17.521,8.259-19.468c6.351-1.953,13.538,5.118,13.326,13.977
				c-0.173,7.401-18.329,12.119-18.329,12.119S1299.135,99.079,1308.649,90.664z"/>
			<path fill="#A02302" d="M1309.43,99.528c-3.386,0-5.458-0.937-6.157-2.785c-1.03-2.72,1.597-5.51,4-7.636
				c5.36-4.739,5.183-8.74,5.025-12.27c-0.125-2.814-0.28-6.315,4.002-7.628c3.739-1.15,7.993,0.165,11.211,3.461
				c3.164,3.24,4.915,7.816,4.801,12.551c-0.093,3.928-3.603,7.519-10.435,10.671c-4.676,2.157-9.256,3.358-9.448,3.408
				l-0.234,0.046C1312.142,99.356,1310.897,99.528,1309.43,99.528z M1307.359,95.159c0.352,0.1,0.986,0.214,2.07,0.214
				c0.943,0,1.786-0.09,2.079-0.125c6.902-1.82,16.556-6.133,16.648-10.124c0.087-3.572-1.268-7.141-3.619-9.55
				c-2.129-2.181-4.745-3.086-7.021-2.392c-0.998,0.307-1.206,0.37-1.068,3.472c0.169,3.789,0.42,9.513-6.423,15.566
				C1308.283,93.761,1307.614,94.691,1307.359,95.159z"/>
		</g>
		<g>
			<path fill="#A02302" d="M1299.152,93.24c-9.5-10.746-17.518-1.907-19.467-8.257c-1.951-6.354,5.121-13.541,13.977-13.328
				c7.404,0.172,12.12,18.33,12.12,18.33S1307.572,102.752,1299.152,93.24z"/>
			<path fill="#A02302" d="M1303.991,98.839c-1.837,0-3.81-1.302-6.394-4.223c-4.828-5.461-9.062-5.171-12.272-5.029
				c-0.578,0.025-1.086,0.038-1.634,0.049c-1.314,0-4.756-0.015-5.992-4.045c-0.958-3.12-0.274-6.478,1.926-9.454
				c2.99-4.049,8.224-6.565,13.654-6.565l0.433,0.006c8.538,0.198,13.228,16.599,14.081,19.884l0.047,0.233
				c0.187,1.324,0.646,5.808-1.195,7.926C1305.962,98.408,1305.018,98.839,1303.991,98.839z M1287.157,85.379
				c3.641,0,8.471,0.737,13.553,6.485c1.551,1.752,2.483,2.419,2.948,2.67c0.233-0.835,0.281-2.63,0.082-4.146
				c-1.817-6.902-6.132-16.564-10.126-16.658l-0.335-0.003c-4.138,0-8.09,1.87-10.314,4.88c-1.396,1.889-1.854,3.936-1.292,5.765
				c0.265,0.862,0.411,1.109,2.033,1.109c0.446,0,0.926-0.022,1.431-0.045C1285.773,85.409,1286.447,85.379,1287.157,85.379z"/>
		</g>
		<g>
			<path fill="#A02302" d="M1311.227,100.158c9.495,10.743,17.515,1.906,19.466,8.258c1.954,6.353-5.121,13.541-13.979,13.328
				c-7.396-0.175-12.117-18.333-12.117-18.333S1302.808,90.645,1311.227,100.158z"/>
			<path fill="#A02302" d="M1317.096,123.826l-0.433-0.005c-3.927-0.092-7.516-3.605-10.669-10.438
				c-2.158-4.676-3.361-9.256-3.408-9.449l-0.048-0.235c-0.187-1.323-0.646-5.806,1.196-7.925c0.684-0.785,1.625-1.217,2.652-1.217
				c1.838,0,3.811,1.303,6.395,4.223c4.82,5.454,9.055,5.174,12.27,5.028c0.571-0.025,1.112-0.049,1.617-0.049
				c1.304,0,4.768,0,6.012,4.047c0.957,3.119,0.276,6.476-1.923,9.452C1327.765,121.31,1322.529,123.826,1317.096,123.826z
				 M1306.637,103.007c1.82,6.903,6.136,16.566,10.125,16.661l0.334,0.004c4.141,0,8.095-1.871,10.32-4.882
				c1.395-1.889,1.853-3.935,1.29-5.762c-0.265-0.863-0.413-1.112-2.038-1.112c-0.449,0-0.926,0.021-1.434,0.044
				c-3.891,0.175-9.5,0.437-15.564-6.426c-1.551-1.752-2.484-2.418-2.951-2.67C1306.486,99.698,1306.438,101.492,1306.637,103.007z"
				/>
		</g>
		<g>
			<path fill="#A02302" d="M1299.584,87.833c4.892-3.1,11.369-1.64,14.473,3.255c3.094,4.896,1.637,11.378-3.261,14.476
				c-4.894,3.097-11.373,1.637-14.469-3.256C1293.229,97.414,1294.685,90.933,1299.584,87.833z"/>
			<path fill="#A02302" d="M1305.201,109.268c-4.338,0-8.314-2.186-10.63-5.848c-1.796-2.836-2.379-6.202-1.642-9.478
				c0.736-3.276,2.703-6.068,5.543-7.864c2.012-1.274,4.332-1.949,6.707-1.949c4.337,0,8.312,2.187,10.632,5.848
				c3.704,5.86,1.953,13.639-3.904,17.343C1309.894,108.594,1307.575,109.268,1305.201,109.268z M1305.18,88.284
				c-1.586,0-3.137,0.451-4.484,1.305c-1.901,1.203-3.22,3.072-3.713,5.265c-0.492,2.192-0.104,4.445,1.1,6.343
				c1.551,2.453,4.213,3.916,7.119,3.916c1.587,0,3.138-0.451,4.484-1.304c3.921-2.48,5.093-7.688,2.614-11.61
				C1310.747,89.748,1308.084,88.284,1305.18,88.284z"/>
		</g>
		<path fill="#FF5408" d="M1302.303,92.138c2.521-1.592,5.853-0.841,7.449,1.674c1.587,2.518,0.842,5.851-1.675,7.448
			c-2.521,1.593-5.855,0.843-7.449-1.673C1299.037,97.064,1299.788,93.729,1302.303,92.138z"/>
	</g>
	<g>
		<path fill="#FF5408" d="M1147.925,335.662c0,46.84-37.972,84.81-84.81,84.81c-46.842,0-84.81-37.97-84.81-84.81
			c0-46.838,37.968-84.81,84.81-84.81C1109.953,250.852,1147.925,288.824,1147.925,335.662z"/>
		<path fill="#E03A07" d="M1131.372,300.457c-8.95,1.234-99.536,71.853-111.315,81.865c-10.578,8.99-9.36,18.433-9.004,20.268
			c14.375,11.196,32.43,17.882,52.062,17.882c46.838,0,84.81-37.97,84.81-84.81c0-11.992-2.505-23.398-6.993-33.741
			C1139.518,300.872,1136.706,299.722,1131.372,300.457z"/>
		<g>
			<path fill="#A02302" d="M1093.214,291.761l-1.259,0.329c-0.187,0.046-0.442,0.094-0.632,0.094c-0.838,0-1.562-0.706-1.562-1.552
				c0-0.729,0.467-1.338,1.19-1.55l2.311-0.682c0.677-0.188,1.189-0.305,1.681-0.305h0.048c0.979,0,1.772,0.799,1.772,1.787v13.255
				c0,0.987-0.794,1.786-1.772,1.786c-0.982,0-1.776-0.799-1.776-1.786V291.761z"/>
			<path fill="#A02302" d="M1100.754,303.183c-0.324-0.281-0.606-0.775-0.606-1.292c0-0.939,0.793-1.738,1.728-1.738
				c0.515,0,0.861,0.212,1.145,0.446c0.932,0.799,1.911,1.222,3.197,1.222c1.354,0,2.309-0.776,2.309-1.997v-0.046
				c0-1.341-1.189-2.092-3.197-2.092h-0.559c-0.842,0-1.539-0.707-1.539-1.553c0-0.492,0.207-0.916,0.77-1.48l3.173-3.22h-5.019
				c-0.838,0-1.539-0.705-1.539-1.551s0.701-1.551,1.539-1.551h7.958c1.052,0,1.821,0.61,1.821,1.598
				c0,0.893-0.421,1.387-1.073,2.021l-3.197,3.079c2.218,0.375,4.388,1.551,4.388,4.607v0.046c0,3.103-2.242,5.382-5.881,5.382
				C1103.836,305.064,1102.086,304.335,1100.754,303.183z"/>
		</g>
		<path fill="#A02302" d="M1057.95,318.159c0.062,1.109,0.094,2.325,0.057,3.56l10.542,0.194c-0.014-1.256,0.031-2.473,0.1-3.557
			L1057.95,318.159z"/>
		<path fill="#A02302" d="M1069.957,330.045c-0.521-1.073-0.863-2.379-1.082-3.776l-11.378-0.21
			c-0.033,0.13-0.057,0.265-0.091,0.394c-1.141,4.326-7.455,13.501-7.621,22.594c-0.17,9.092,6.954,25.035,6.954,25.035
			s2.313,1.229,6.452,1.307c4.136,0.078,6.067-1.078,6.067-1.078s7.011-14.297,7.183-23.787
			C1076.619,341.042,1072.493,335.23,1069.957,330.045z"/>
		<path fill="#A02302" d="M1069.112,314.017c3.997-15.56-2.264-18.03-5.151-18.083c-10.647-0.197-6.9,14.616-6.383,17.869
			L1069.112,314.017z"/>
	</g>
	<g>
		<path fill="#FF5408" d="M905.848,94.339c0,46.839-37.971,84.81-84.812,84.81c-46.839,0-84.807-37.97-84.807-84.81
			c0-46.839,37.968-84.811,84.807-84.811C867.877,9.529,905.848,47.5,905.848,94.339z"/>
		<path fill="#E03A07" d="M889.295,59.134c-8.95,1.235-99.537,71.853-111.314,81.865c-10.578,8.99-9.361,18.431-9.005,20.266
			c14.374,11.196,32.43,17.884,52.06,17.884c46.842,0,84.812-37.97,84.812-84.81c0-11.994-2.504-23.398-6.993-33.74
			C897.441,59.549,894.629,58.398,889.295,59.134z"/>
		<g>
			<path fill="#A02302" d="M851.14,50.438l-1.262,0.33c-0.187,0.047-0.442,0.094-0.628,0.094c-0.842,0-1.566-0.705-1.566-1.55
				c0-0.729,0.469-1.34,1.191-1.552l2.31-0.682c0.676-0.188,1.19-0.306,1.681-0.306h0.048c0.98,0,1.772,0.8,1.772,1.787v13.255
				c0,0.987-0.792,1.786-1.772,1.786c-0.979,0-1.773-0.799-1.773-1.786V50.438z"/>
			<path fill="#A02302" d="M858.677,61.86c-0.325-0.282-0.606-0.775-0.606-1.293c0-0.939,0.793-1.738,1.728-1.738
				c0.515,0,0.863,0.211,1.143,0.446c0.935,0.8,1.913,1.223,3.197,1.223c1.355,0,2.312-0.776,2.312-1.998v-0.047
				c0-1.34-1.19-2.092-3.197-2.092h-0.56c-0.843,0-1.542-0.705-1.542-1.551c0-0.493,0.21-0.916,0.772-1.48l3.173-3.22h-5.018
				c-0.839,0-1.539-0.705-1.539-1.551c0-0.846,0.7-1.551,1.539-1.551h7.957c1.051,0,1.822,0.611,1.822,1.598
				c0,0.893-0.422,1.387-1.074,2.021l-3.197,3.079c2.219,0.376,4.388,1.552,4.388,4.606v0.047c0,3.102-2.243,5.381-5.881,5.381
				C861.758,63.74,860.009,63.012,858.677,61.86z"/>
		</g>
		<path fill="#A02302" d="M849.24,94.415c0,0,0.279,1.726-1.738,3.767c-2.009,2.043-12.807,8.233-12.963,9.183
			c-0.159,0.956-2.32,8.143-3.11,9.689c-0.788,1.546-2.981,3.562-4.461,2.34c-1.472-1.22-4.36-5.746-4.188-6.7
			c0.168-0.947,1.496-3.244,1.496-3.244s-1.517,0.729-4.598,1.618c-3.076,0.893-7.993,1.509-12.556,0.731
			c-21.758-3.707-24.444-15.822-27.054-18.952c-0.91-1.095-3.24-6.095-7.3-4.41c-1.412,0.583-2.497,1.313-2.497,1.313
			s-1.493-1.387,0.644-5.104c2.148-3.717,6.515-2.441,6.515-2.441s-0.288-1.761,1.533-2.928c1.818-1.169,6.401-3.008,7.172-1.397
			c0.774,1.613-1.146,1.818-2.644,5.068c-1.496,3.25,1.687,4.435,2.81,4.935c12.551,5.381,21.576,4.906,25.176,2.554
			c1.479-0.966,3.628-1.958,5.554-2.618c1.924-0.661,13.952-5.95,21.743-4.894c5.791,0.782,8.243,8.051,8.243,8.051L849.24,94.415z"
			/>
		<path fill="#FF5408" d="M839.912,96.339c-0.16,0.927-1.027,1.554-1.957,1.399c-0.928-0.152-1.557-1.022-1.402-1.95
			c0.146-0.928,1.027-1.555,1.953-1.401C839.434,94.537,840.062,95.41,839.912,96.339z"/>
		<path fill="#A02302" d="M846.857,89.907c0,0,4.521-1.062,6.221-1.792c1.698-0.727,1.698-0.539,4.15-1.259
			c2.446-0.719,5.448-2.283,7.338-3.194c1.895-0.916,3.229-0.611,5.306-1.52c2.07-0.911,4.901-1.625,6.791-2.541
			c1.89-0.913,7.464-2.724,7.464-2.724c0.482,0.697-4.404,3.249-5.537,3.61c-1.13,0.358-5.354,2.487-7.051,3.104
			c-1.697,0.613-7.164,2.42-8.679,3.338c-1.518,0.92-2.274,1.471-3.219,1.835c-0.943,0.363-2.827,0.899-4.147,1.258
			c-1.319,0.359-3.775,1.457-4.529,1.818c-0.76,0.364-2.638,0.778-3.4,1.773c-0.771,0.99-3.024,1.023-3.195-0.044
			C844.198,92.501,844.531,90.495,846.857,89.907z"/>
	</g>
	<g>
		<circle fill="#FF5408" cx="336.887" cy="335.661" r="84.811"/>
		<path fill="#E03A07" d="M405.142,300.456c-8.949,1.234-99.533,71.852-111.314,81.865c-10.577,8.991-9.36,18.432-9,20.266
			c14.371,11.197,32.43,17.885,52.06,17.885c46.837,0,84.811-37.971,84.811-84.811c0-11.993-2.503-23.397-6.996-33.739
			C413.289,300.872,410.476,299.721,405.142,300.456z"/>
		<g>
			<path fill="#A02302" d="M366.987,291.76l-1.262,0.329c-0.187,0.047-0.442,0.094-0.629,0.094c-0.842,0-1.565-0.705-1.565-1.551
				c0-0.729,0.471-1.339,1.19-1.551l2.31-0.682c0.677-0.188,1.19-0.306,1.681-0.306h0.049c0.979,0,1.772,0.799,1.772,1.786v13.255
				c0,0.987-0.793,1.787-1.772,1.787s-1.773-0.799-1.773-1.787V291.76z"/>
			<path fill="#A02302" d="M374.527,303.183c-0.328-0.283-0.606-0.775-0.606-1.293c0-0.94,0.794-1.739,1.725-1.739
				c0.514,0,0.866,0.211,1.145,0.446c0.933,0.799,1.914,1.223,3.198,1.223c1.352,0,2.311-0.776,2.311-1.998v-0.047
				c0-1.34-1.189-2.092-3.197-2.092h-0.562c-0.839,0-1.538-0.705-1.538-1.551c0-0.493,0.209-0.916,0.768-1.48l3.174-3.22h-5.016
				c-0.842,0-1.543-0.705-1.543-1.551s0.701-1.551,1.543-1.551h7.957c1.049,0,1.82,0.61,1.82,1.598c0,0.894-0.42,1.387-1.074,2.021
				l-3.197,3.08c2.217,0.376,4.388,1.551,4.388,4.606v0.047c0,3.102-2.239,5.382-5.881,5.382
				C377.608,305.062,375.855,304.334,374.527,303.183z"/>
		</g>
		<path fill="#A02302" d="M371.765,329.589c-1.716-5.428-15.656-12.242-34.938-12.205c-19.282,0.042-32.313,7.424-34.889,12.347
			c-1.202,2.295-0.483,20.099,0.162,21.394c1.44,2.885,6.951,5.71,15.003,7.528l0.504-0.241l-0.039-19.059l19.304-6.755l19.39,6.677
			l0.039,19.139l0.493,0.234c7.984-1.773,13.495-4.519,14.836-7.465C372.8,348.614,372.688,332.508,371.765,329.589z"/>
		<polygon fill="#FF5408" points="318.197,339.899 336.875,333.551 355.583,339.819 355.619,357.045 336.911,350.401 
			318.233,357.052 		"/>
		<path fill="#A02302" d="M336.878,334.745l17.575,5.889l0.029,14.808l-16.814-5.972l-0.757-0.269l-0.759,0.27l-16.793,5.979
			l-0.029-14.74L336.878,334.745 M336.872,332.357l-19.809,6.732l0.04,19.564l19.808-7.051l19.841,7.046l-0.04-19.645
			L336.872,332.357L336.872,332.357z"/>
	</g>
	<g>
		<circle fill="#FF5408" cx="1305.19" cy="335.662" r="84.81"/>
		<path fill="#E03A07" d="M1373.444,300.457c-8.95,1.234-99.534,71.853-111.312,81.865c-10.578,8.99-9.361,18.433-9.004,20.268
			c14.371,11.196,32.43,17.882,52.06,17.882c46.841,0,84.812-37.97,84.812-84.81c0-11.992-2.504-23.398-6.993-33.741
			C1381.595,300.872,1378.778,299.722,1373.444,300.457z"/>
		<g>
			<path fill="#A02302" d="M1335.289,291.761l-1.259,0.329c-0.187,0.046-0.444,0.094-0.632,0.094c-0.84,0-1.562-0.706-1.562-1.552
				c0-0.729,0.467-1.338,1.19-1.55l2.312-0.682c0.676-0.188,1.189-0.305,1.68-0.305h0.045c0.98,0,1.773,0.799,1.773,1.787v13.255
				c0,0.987-0.793,1.786-1.773,1.786c-0.979,0-1.773-0.799-1.773-1.786V291.761z"/>
			<path fill="#A02302" d="M1342.83,303.183c-0.328-0.281-0.607-0.775-0.607-1.292c0-0.939,0.794-1.738,1.725-1.738
				c0.515,0,0.866,0.212,1.146,0.446c0.935,0.799,1.914,1.222,3.197,1.222c1.353,0,2.312-0.776,2.312-1.997v-0.046
				c0-1.341-1.19-2.092-3.199-2.092h-0.561c-0.84,0-1.539-0.707-1.539-1.553c0-0.492,0.21-0.916,0.77-1.48l3.174-3.22h-5.016
				c-0.842,0-1.542-0.705-1.542-1.551s0.7-1.551,1.542-1.551h7.957c1.049,0,1.819,0.61,1.819,1.598c0,0.893-0.419,1.387-1.073,2.021
				l-3.199,3.079c2.219,0.375,4.389,1.551,4.389,4.607v0.046c0,3.103-2.239,5.382-5.881,5.382
				C1345.91,305.064,1344.158,304.335,1342.83,303.183z"/>
		</g>
		<path fill="#A02302" d="M1334.364,336.548c-0.493,16.111-13.953,28.776-30.062,28.287c-16.115-0.488-28.775-13.951-28.286-30.06
			c0.49-16.111,13.951-28.776,30.062-28.287C1322.186,306.981,1334.854,320.44,1334.364,336.548z"/>
		<path fill="#FF5408" d="M1302.908,317.479c-0.063,1.962-1.705,3.507-3.666,3.447c-1.96-0.061-3.506-1.698-3.444-3.661
			c0.06-1.965,1.702-3.507,3.663-3.448C1301.424,313.877,1302.965,315.516,1302.908,317.479z"/>
		<path fill="#FF5408" d="M1308.942,329.288c-0.06,1.961-1.704,3.507-3.664,3.444c-1.961-0.06-3.507-1.698-3.444-3.66
			c0.059-1.964,1.695-3.505,3.658-3.444C1307.459,325.688,1309,327.325,1308.942,329.288z"/>
		<path fill="#FF5408" d="M1315.68,317.87c-0.062,1.962-1.698,3.504-3.656,3.442c-1.966-0.057-3.507-1.698-3.447-3.66
			c0.062-1.962,1.701-3.504,3.66-3.444C1314.198,314.268,1315.741,315.905,1315.68,317.87z"/>
	</g>
	<g>
		<circle fill="#FF5408" cx="1063.114" cy="94.339" r="84.811"/>
		<path fill="#E03A07" d="M1131.369,59.134c-8.949,1.235-99.533,71.853-111.313,81.865c-10.577,8.99-9.359,18.431-9.003,20.266
			c14.373,11.196,32.43,17.884,52.061,17.884c46.84,0,84.812-37.97,84.812-84.81c0-11.994-2.505-23.398-6.993-33.74
			C1139.518,59.549,1136.706,58.398,1131.369,59.134z"/>
		<g>
			<path fill="#A02302" d="M1093.214,50.438l-1.259,0.33c-0.189,0.047-0.445,0.094-0.632,0.094c-0.839,0-1.562-0.705-1.562-1.55
				c0-0.729,0.467-1.34,1.19-1.552l2.31-0.682c0.678-0.188,1.189-0.306,1.682-0.306h0.044c0.979,0,1.775,0.8,1.775,1.787v13.255
				c0,0.987-0.797,1.786-1.775,1.786s-1.772-0.799-1.772-1.786V50.438z"/>
			<path fill="#A02302" d="M1100.754,61.86c-0.327-0.282-0.606-0.775-0.606-1.293c0-0.939,0.793-1.738,1.728-1.738
				c0.512,0,0.861,0.211,1.143,0.446c0.934,0.8,1.913,1.223,3.197,1.223c1.354,0,2.311-0.776,2.311-1.998v-0.047
				c0-1.34-1.189-2.092-3.197-2.092h-0.559c-0.842,0-1.542-0.705-1.542-1.551c0-0.493,0.21-0.916,0.771-1.48l3.174-3.22h-5.018
				c-0.841,0-1.539-0.705-1.539-1.551c0-0.846,0.698-1.551,1.539-1.551h7.958c1.051,0,1.821,0.611,1.821,1.598
				c0,0.893-0.421,1.387-1.074,2.021l-3.197,3.079c2.217,0.376,4.387,1.552,4.387,4.606v0.047c0,3.102-2.24,5.381-5.881,5.381
				C1103.836,63.74,1102.086,63.012,1100.754,61.86z"/>
		</g>
		<g>
			<path fill="#A02302" d="M1087.145,67.022l-1.002,1.002c0,0-12.524,12.524-13.076,13.076c-0.55,0.55-0.799,0.904-0.987,1.417
				c-0.19,0.512,0.241,2.144,0.317,2.822c0.072,0.676-0.532,1.173-0.532,1.173l-36.444,36.445c-4.192,0.739-1.726,2.552-1.232,3.043
				c1.646,1.645,2.141,0.328,2.718-1.561l36.443-36.445c0,0,0.496-0.603,1.174-0.527c0.677,0.075,2.312,0.503,2.82,0.316
				c0.512-0.19,0.867-0.437,1.419-0.988c0.55-0.551,13.074-13.078,13.074-13.078l1.003-1.002c0,0,0.803-0.683,0.045-1.656
				c-1.476-1.903-1.996-2.413-4.081-4.082C1087.841,66.205,1087.145,67.022,1087.145,67.022z"/>
			<path fill="#A02302" d="M1035.45,127.802c-0.853,0-1.554-0.603-2.007-1.056l-0.136-0.125c-0.532-0.486-1.64-1.498-1.272-2.767
				c0.344-1.178,1.725-1.639,2.871-1.872l36.213-36.216c0.146-0.133,0.23-0.27,0.229-0.312c-0.02-0.179-0.07-0.439-0.124-0.725
				c-0.223-1.175-0.353-1.989-0.132-2.58c0.241-0.656,0.562-1.126,1.229-1.794l14.077-14.079c0.051-0.063,0.63-0.685,1.574-0.685
				c0.521,0,1.024,0.189,1.489,0.563c2.184,1.748,2.739,2.304,4.254,4.258c1.011,1.297,0.437,2.567-0.196,3.105l-0.938,0.944
				c0,0-12.522,12.525-13.072,13.077c-0.654,0.653-1.142,0.986-1.797,1.231c-0.61,0.222-1.639,0.043-2.568-0.13
				c-0.29-0.054-0.552-0.105-0.736-0.126l0,0c-0.067,0-0.22,0.121-0.245,0.15l-36.326,36.335
				C1037.431,126.308,1036.885,127.802,1035.45,127.802z M1034.133,124.439c0.147,0.214,0.474,0.513,0.596,0.625l0.203,0.191
				c0.187,0.186,0.325,0.295,0.418,0.359c0.203-0.356,0.448-1.152,0.548-1.484l0.071-0.231l-0.036,0.038l-0.328,0.058
				C1034.717,124.151,1034.307,124.336,1034.133,124.439z M1087.972,67.699l-1.084,1.07l-13.075,13.076
				c-0.492,0.493-0.627,0.717-0.744,1.035c-0.016,0.18,0.147,1.043,0.227,1.457c0.065,0.348,0.123,0.663,0.149,0.886
				c0.087,0.811-0.302,1.441-0.603,1.794c0.295-0.25,0.848-0.61,1.563-0.61l0.233,0.013c0.223,0.025,0.543,0.083,0.893,0.149
				c0.494,0.093,1.107,0.208,1.448,0.208c0.321-0.102,0.549-0.239,1.037-0.727c0.549-0.55,13.074-13.078,13.074-13.078l1.002-1.002
				c0.062-0.092,0.04-0.158-0.04-0.263c-1.413-1.822-1.852-2.26-3.909-3.907C1088.028,67.708,1087.972,67.699,1087.972,67.699z"/>
		</g>
		<g>
			<path fill="#A02302" d="M1033.365,72.756l1.004,1.001c0,0,12.561,12.487,13.115,13.037c0.554,0.55,0.907,0.796,1.42,0.985
				c0.514,0.188,2.143-0.246,2.819-0.324c0.678-0.078,1.175,0.526,1.175,0.526l36.549,36.336c0.756,4.191,2.559,1.718,3.05,1.224
				c1.643-1.648,0.325-2.142-1.568-2.712l-36.55-36.337c0,0-0.605-0.494-0.534-1.171c0.075-0.678,0.5-2.311,0.31-2.822
				c-0.192-0.511-0.44-0.865-0.994-1.414c-0.55-0.549-13.112-13.039-13.112-13.039l-1.007-0.999c0,0-0.685-0.8-1.657-0.041
				c-1.896,1.482-2.405,2.004-4.067,4.094C1032.548,72.065,1033.365,72.756,1033.365,72.756z"/>
			<path fill="#A02302" d="M1090.852,127.769c-1.643,0-2.178-1.935-2.378-2.936l-36.317-36.104
				c-0.129-0.142-0.262-0.228-0.312-0.228c-0.184,0.021-0.444,0.073-0.73,0.127c-0.935,0.178-1.979,0.356-2.57,0.14
				c-0.666-0.245-1.138-0.566-1.803-1.228c-0.553-0.548-13.114-13.036-13.114-13.036l-1.005-1.002
				c-0.579-0.485-1.163-1.764-0.13-3.059c1.737-2.186,2.293-2.743,4.242-4.268c0.467-0.365,0.967-0.551,1.484-0.551
				c0.944,0,1.518,0.613,1.624,0.737l0.947,0.936c0,0.001,12.563,12.491,13.115,13.042c0.661,0.658,0.987,1.127,1.234,1.788
				c0.22,0.594,0.094,1.408-0.124,2.583c-0.054,0.286-0.104,0.545-0.123,0.727c-0.006,0.05,0.117,0.211,0.151,0.24l36.44,36.221
				c1.2,0.366,2.473,0.818,2.76,1.955c0.287,1.14-0.682,2.113-1,2.433l-0.126,0.135
				C1092.69,126.892,1091.896,127.769,1090.852,127.769z M1090.391,123.768l0.035,0.036l0.06,0.327
				c0.16,0.888,0.346,1.297,0.45,1.469c0.214-0.146,0.512-0.472,0.622-0.596l0.192-0.206c0.186-0.186,0.295-0.324,0.359-0.418
				c-0.357-0.201-1.154-0.441-1.484-0.541L1090.391,123.768z M1051.845,86.394c0.695,0,1.239,0.342,1.557,0.61
				c-0.276-0.324-0.692-0.963-0.604-1.794c0.023-0.225,0.081-0.539,0.146-0.885c0.076-0.416,0.238-1.283,0.203-1.533
				c-0.1-0.244-0.235-0.47-0.729-0.959c-0.552-0.551-13.112-13.039-13.112-13.039l-1.007-0.998c-0.098-0.064-0.164-0.04-0.268,0.041
				c-1.816,1.42-2.252,1.86-3.89,3.92c-0.093,0.115-0.101,0.173-0.101,0.173l1.072,1.081c-0.002-0.001,12.56,12.484,13.114,13.034
				c0.491,0.491,0.719,0.626,1.04,0.745c0.338-0.019,0.954-0.137,1.449-0.231c0.35-0.066,0.664-0.125,0.887-0.15L1051.845,86.394z"
				/>
		</g>
	</g>
</g>
</svg>
