<?xml version="1.0" encoding="utf-8"?>
<!-- Generator: Adobe Illustrator 16.0.0, SVG Export Plug-In . SVG Version: 6.00 Build 0)  -->
<!DOCTYPE svg PUBLIC "-//W3C//DTD SVG 1.1//EN" "http://www.w3.org/Graphics/SVG/1.1/DTD/svg11.dtd">
<svg version="1.1" xmlns="http://www.w3.org/2000/svg" xmlns:xlink="http://www.w3.org/1999/xlink" x="0px" y="0px" width="1400px"
	 height="700px" viewBox="0 0 1400 700" enable-background="new 0 0 1400 700" xml:space="preserve">
<g id="romeo_and_juliet">
	<path fill="#FFFFFF" d="M514.864,196.705l14.411,138.498c0,0,17.613,2.799,41.227,2.799c23.617,0,34.824-3.604,34.824-3.604
		l13.208-137.693H514.864z"/>
</g>
<g id="gatsby">
</g>
<g id="big_lebowski">
</g>
<g id="_x32_001">
</g>
<g id="life_aquatic">
</g>
<g id="hobbit">
</g>
<g id="reservoir_dogs">
	<g>
		<g>
			<g>
				<path fill="#FFF453" d="M585.849,229.302c5.542,5.419-3.138,9.726-4.723,16.046c-1.778,7.103,1.892,11.304,9.724,7.064
					c5.487-2.972,16.641-18.473,23.581-18.084c0.315,5.792,2.372,10.96-2.632,14.906c-6,4.735-15.904,9.968-21.907,14.789
					c-4.417,3.551-17.822,17.133-21.484,18.389c-8.894,3.044-14.507-4.804-12.447-12.234c0.899-3.229,6.259-8.868,4.279-12.348
					c-2.909-5.111-10.525,0.651-12.96,3.684c-6.49,8.083-13.907,16.981-22.433,23.671c-2.422-3.196-3.97-13.316-2.775-17.24
					c1.012-3.338,8.77-5.83,12.275-9.062c3.504-3.239,7.017-12.18,14.174-17.853C555.682,235.353,570.736,224.583,585.849,229.302z"
					/>
				
					<rect x="565.273" y="115.856" transform="matrix(0.9891 0.1471 -0.1471 0.9891 27.5605 -82.5221)" fill="#E33149" width="12.866" height="58.435"/>
				<path d="M570.502,341.861c-23.647,0-41.101-2.73-41.833-2.847l-2.927-0.465l-15.16-145.704h112.2l-13.857,144.449l-2.418,0.778
					C606.027,338.228,594.449,341.861,570.502,341.861z M532.801,331.799c5.904,0.766,20.194,2.344,37.701,2.344
					c16.555,0,26.876-1.824,31.241-2.809l12.544-130.77h-95.141L532.801,331.799z"/>
				<path d="M570.502,341.861c-23.647,0-41.101-2.73-41.833-2.847l-2.927-0.465l-15.16-145.704h112.2l-13.857,144.449l-2.418,0.778
					C606.027,338.228,594.449,341.861,570.502,341.861z M532.801,331.799c5.904,0.766,20.194,2.344,37.701,2.344
					c16.555,0,26.876-1.824,31.241-2.809l12.544-130.77h-95.141L532.801,331.799z"/>
				<g>
					<rect x="517.724" y="175.098" fill="#FFFFFF" width="95.956" height="18.411"/>
					<path d="M617.54,197.368H513.865v-26.13H617.54V197.368z M521.583,189.649h88.236v-10.692h-88.236V189.649z"/>
				</g>
				<g>
					<rect x="509.664" y="187.9" fill="#FFFFFF" width="112.876" height="13.614"/>
					<path d="M626.399,205.374H505.804v-21.333h120.595V205.374z M513.523,197.655H618.68v-5.896H513.523V197.655z"/>
				</g>
			</g>
			<g>
				<path d="M1055.802,271.563c-8.702,0-19.488-2.171-28.411-10.654l5.318-5.594c3.172,3.016,15.091,12.427,35.291,6.93
					c1.207-0.33,2.46-0.665,3.707-0.999c2.946-0.79,7.037-1.885,9.343-2.643c-0.068-4.109-0.209-13.243-0.209-25.008h7.719
					c0,12.555,0.161,22.101,0.222,25.693c0.016,0.912,0.024,1.478,0.024,1.656c0,3.712-2.601,4.408-15.102,7.757
					c-1.235,0.331-2.477,0.663-3.674,0.99C1067.452,270.395,1062.188,271.563,1055.802,271.563z"/>
				<path d="M1059.869,259.149c-12.944-5.003-12.513-20.35-10.476-27.766l7.446,2.035c-0.011,0.041-1.085,4.098-0.706,8.536
					c0.444,5.201,2.577,8.471,6.519,9.993L1059.869,259.149z"/>
				<g>
					<path fill="#FFFFFF" d="M1159.386,184.032c0-2.78-2.379-4.369-2.379-4.369l-17.881,3.578v3.174H1024
						c0,0,0.901-5.659-6.642-7.646c-7.554-1.989-18.674-4.368-18.674-4.368s-10.728-0.299-10.728,12.014h-11.717l-1.989,1.987
						c0,0-11.285-3.313-15.693-1.387c-3.178,1.387-7.352,7.344-6.55,7.948c0.793,0.591,18.272,2.181,17.873,7.35
						c-0.678,8.746-3.176,14.298-7.549,16.284c-4.371,1.986-15.495,1.592-15.495,1.592l-1.586,4.367c0,0-0.399,3.178,8.736,5.565
						c9.143,2.379,17.085,8.734,17.085,16.682c0,7.948-20.263,69.528-20.263,69.528s-3.97,9.536-0.795,16.29l6.357,0.796h48.869
						l5.165-4.374c0,0-1.193-5.556-0.398-11.118c0.796-5.566,11.92-40.926,13.109-42.91c1.194-1.993,11.41-10.135,11.41-10.135
						l0.111-3.061c0,0-7.15-6.669-4.368-15.412c2.779-8.744,7.548-9.139,7.548-9.139h47.674c0,0,1.589-7.147,7.156-8.344
						c5.562-1.191,46.479-1.191,46.479-1.191l1.591-5.563l18.669-0.788v-13.258h5.166V188.8
						C1164.552,188.8,1159.386,186.816,1159.386,184.032z"/>
					<path d="M1006.655,337.277l-50.764-0.029l-8.467-1.061l-0.904-1.924c-3.663-7.792-0.016-17.582,0.664-19.267
						c7.762-23.597,20.027-62.864,20.027-68.193c0-6.357-7.359-11.167-14.197-12.946c-11.206-2.929-11.841-7.816-11.594-9.782
						l0.054-0.43l2.691-7.411l2.806,0.098c0.033,0.001,0.871,0.029,2.151,0.029c6.488,0,10.252-0.66,11.612-1.277
						c2.771-1.259,4.621-5.642,5.239-12.377c-1.03-0.786-4.013-1.941-11.941-3.358c-2.628-0.47-3.421-0.611-4.331-1.29
						c-1.204-0.907-1.804-2.364-1.621-3.911c0.377-3.202,5.303-9.085,8.933-10.669c1.423-0.622,3.177-0.925,5.362-0.925
						c3.729,0,8.118,0.916,10.716,1.551l1.551-1.549h9.789c1.726-9.395,9.724-12.015,14.187-12.015l0.528,0.012l0.346,0.074
						c0.458,0.098,11.296,2.421,18.85,4.41c5.467,1.439,8.009,4.597,9.01,7.519h107.916v-2.479l22.553-4.513l1.331,0.889
						c0.405,0.271,3.855,2.702,4.083,7.118c0.456,0.478,1.691,1.229,2.714,1.63l2.451,0.961l0.013,2.638v23.185h-5.166v13.099
						l-19.583,0.826l-1.625,5.685h-2.911c-15.662,0-41.911,0.301-45.671,1.106c-2.997,0.644-4.191,5.382-4.202,5.429l-0.7,2.977
						l-3.062,0.023h-47.231c-0.552,0.226-2.708,1.401-4.312,6.448c-2.019,6.344,3.269,11.371,3.323,11.421l1.288,1.201l-0.24,6.595
						l-1.387,1.105c-4.304,3.431-9.432,7.812-10.486,9.094c-1.586,3.66-11.869,36.244-12.618,41.479
						c-0.682,4.775,0.342,9.719,0.353,9.769l0.476,2.254L1006.655,337.277z M956.611,329.559h47.213l2.42-2.05
						c-0.312-2.369-0.617-6.224-0.059-10.129c0.759-5.309,11.833-41.367,13.62-44.349c1.152-1.923,6.207-6.243,10.781-9.938
						c-2.378-2.895-6.634-9.564-3.995-17.854c3.462-10.893,10.155-11.753,10.907-11.815l0.318-0.013h44.912
						c1.471-3.366,4.356-7.237,9.108-8.258c5.088-1.09,34.424-1.251,44.378-1.273l1.558-5.446l17.755-0.75v-13.417h5.166v-13.041
						c-2.328-1.333-5.166-3.679-5.166-7.192c0-0.045-0.004-0.09-0.011-0.135l-12.53,2.518v3.859h-123.851l1.04-4.413
						c0.025-0.634-0.241-2.422-3.8-3.359c-6.564-1.729-16.004-3.787-18.084-4.237c-2.136,0.08-6.476,1.12-6.476,8.15v3.859h-13.979
						l-2.477,2.475l-2.196-0.643c-0.063-0.019-6.317-1.833-10.79-1.833c-1.556,0-2.166,0.232-2.272,0.278
						c-0.559,0.244-1.319,0.904-2.057,1.683c7.278,1.386,16.195,3.734,15.682,10.376c-0.802,10.351-4.1,16.912-9.801,19.501
						c-2.819,1.281-7.662,1.943-14.398,1.969l-0.042,0.116c0.733,0.519,2.304,1.362,5.475,2.191
						c9.938,2.586,19.969,9.902,19.969,20.416c0,8.154-17.04,60.354-20.456,70.734l-0.103,0.277
						c-0.786,1.913-2.335,7.156-1.48,11.277L956.611,329.559z"/>
				</g>
				<path fill="#E33149" d="M985.174,221.383l-4.963,16.685c0,0,2.782,5.96,1.191,12.715c-1.586,6.753-19.474,71.113-19.474,71.113
					h34.965l15.894-50.456l7.553-9.931c0,0-0.802-17.88,0.392-21.054c1.194-3.183,10.526-19.072,10.526-19.072H985.174z"/>
				<path fill="#FFFFFF" d="M1002.9,242.042c-2.197,0.905-4.709-0.146-5.611-2.345c-0.901-2.197,0.151-4.705,2.343-5.608
					c2.201-0.901,4.71,0.147,5.615,2.343C1006.149,238.625,1005.092,241.141,1002.9,242.042z"/>
				<path fill="#FFFFFF" d="M984.422,311.171c-2.189,0.902-4.703-0.146-5.607-2.347c-0.902-2.194,0.146-4.702,2.345-5.605
					c2.195-0.903,4.711,0.145,5.608,2.344C987.672,307.754,986.623,310.271,984.422,311.171z"/>
				<rect x="967.892" y="204.175" width="195.868" height="7.719"/>
			</g>
			<g>
				<path fill="#FFF453" d="M749.643,212.565c0,0,13.148-31.636,31.223-33.28c18.074-1.637,54.225,3.7,57.51,44.366
					c3.286,40.671-24.132,74.563-30.296,81.547c-6.162,6.983-17.87,18.798-26.188,21.571c-4.755,1.581-27.42,5.853-33.892-6.472
					c-5.756-10.966-3.697-18.59-3.285-27.217c0.411-8.628,3.695-24.647,3.285-36.973
					C747.59,243.788,749.643,212.565,749.643,212.565z"/>
				<path fill="#E33149" d="M775.497,268.368c3.778-1.296-4.706-3.819-3.684-6.629c1.114-3.058,1.934-10.091,3.684-12.893
					c1.646-2.628,9.949-5.382,10.406-8.262c0.192-1.213,17.959,14.363,15.195,25.114c-0.582,2.258-0.208,5.443-0.277,7.734
					c-0.115,3.834-4.972,12.989-10.774,15.197c-3.398,1.297-8.754-3.344-10.128-0.001c-1.109,2.689-2.58,2.421-2.58,5.553
					c0,2.941-1.843,1.472-3.683,3.681c-1.59,1.906-3.08,3.722-4.382,3.495c-1.82-0.326-6.194-7.945-6.561-9.566
					c-0.455-1.989,0.512-3.872,1.023-5.71c0.503-1.818-0.013-5.306,0.873-6.894c1.042-1.861,2.089-0.506,3.612-2.161
					c1.04-1.133,5.248,7.737,9.116,1.38L775.497,268.368z"/>
				<path d="M767.364,332.642c-11.279,0-19.157-3.647-22.782-10.549c-5.265-10.029-4.639-17.56-4.034-24.842
					c0.119-1.427,0.241-2.902,0.311-4.354c0.161-3.374,0.71-7.592,1.346-12.476c1.024-7.86,2.184-16.77,1.937-24.184
					c-0.411-12.37,1.565-42.643,1.65-43.925l0.042-0.638l0.245-0.591c0.141-0.338,3.505-8.372,9.211-16.72
					c8.042-11.765,16.529-18.132,25.227-18.923c1.975-0.179,4.036-0.27,6.128-0.27c7.389,0,21.63,1.191,33.993,9.169
					c12.905,8.327,20.167,21.448,21.585,39c3.453,42.734-25.425,77.813-31.25,84.411c-3.927,4.45-17.541,19.238-27.861,22.679
					C780.438,331.32,774.04,332.642,767.364,332.642z M753.452,213.468c-0.289,4.533-1.961,31.494-1.596,42.513
					c0.268,8.043-0.935,17.284-1.997,25.438c-0.588,4.519-1.144,8.787-1.29,11.847c-0.076,1.588-0.205,3.133-0.329,4.626
					c-0.561,6.747-1.045,12.574,3.175,20.613c2.786,5.305,10.21,6.419,15.947,6.419c6.408,0,11.893-1.345,13.31-1.815
					c6.751-2.251,17.424-12.431,24.512-20.463c5.462-6.188,32.544-39.061,29.343-78.683c-0.998-12.349-7.661-41.07-47.884-41.07
					c-1.861,0-3.688,0.079-5.431,0.237C768.615,184.275,757.158,204.876,753.452,213.468z"/>
				<path d="M798.592,274.329c-8.268-6.574-35.382-28.812-37.142-38.919c-1.049-6.037,0.603-20.147,1.996-22.932
					c0.06-0.121,6.951-13.009,12.557-16.372c5.94-3.565,28.537-1.602,35.041,3.044l0.729,0.514
					c6.878,4.808,19.682,13.757,9.606,54.696l-7.496-1.844c8.811-35.801-1.17-42.778-6.533-46.526
					c-0.277-0.193-0.542-0.379-0.794-0.56c-4.623-3.302-23.356-4.319-26.616-2.686c-2.68,1.608-8.155,10.37-9.531,13.068
					c-0.679,2.074-2.194,13.438-1.354,18.273c0.859,4.938,18.495,21.598,34.341,34.201L798.592,274.329z"/>
				<path d="M769.416,305.207c-1.054,0-2.14-0.244-3.213-0.745c-5.746-2.685-9.913-11.943-8.413-18.692
					c1.108-4.979,3.179-6.702,5.204-8.041c0.223-0.147,0.559-0.369,0.62-0.444c0.001-0.002,0.164-0.242,0.282-1.076
					c0.28-1.955-0.438-5.375-1.016-8.122c-1.049-4.991-2.237-10.648,2.708-12.048c3.762-1.062,5.451,1.192,6.263,2.276
					c0.714,0.954,2.042,2.73,6.654,5.534l0.353,0.214l4.383,4.166c0.881,0.922,7.294,7.855,8.241,15.393
					c2.358-0.735,3.277-3.06,5.498-9.333c0.252-0.713,0.516-1.457,0.795-2.234c2.62-7.284-3.303-20.293-6.448-22.581
					c-4.52-3.284-27.474-21.194-28.449-21.955l4.749-6.086c0.238,0.186,23.824,18.59,28.239,21.798
					c6.107,4.442,12.813,21.316,9.172,31.438c-0.275,0.765-0.534,1.496-0.782,2.195c-3.132,8.85-5.396,15.252-16.987,14.732
					c-4.951-0.211-6.704,2.185-9.626,6.803c-0.816,1.29-1.661,2.624-2.654,3.915C773.53,304.21,771.541,305.207,769.416,305.207z
					 M770.731,267.92c0.642,3.14,1.217,6.517,0.807,9.38c-0.585,4.109-2.438,5.646-4.287,6.868
					c-0.904,0.598-1.403,0.928-1.926,3.277c-0.816,3.672,2.117,8.679,3.792,9.835c0.685-0.925,1.328-1.941,2.003-3.01
					c2.468-3.899,5.716-9.031,12.639-10.174c-0.693-3.779-4.055-8.376-6.035-10.469l-3.585-3.402
					C772.802,269.4,771.68,268.631,770.731,267.92z"/>
			</g>
			<g>
				<g>
					<path fill="#FFF453" d="M379.889,211.118c-8.416-3.606-19.35-4.584-24.799-4.755c0.071-4.318,0.246-8.07,0.124-8.777
						c-0.911-5.15-6.105-5.449-8.48-5.449c-2.374,0-90.253,0-98.165,0c-7.91,0-11.076,2.369-11.076,7.121c0,0,0,96.515,0,104.421
						c0,7.912,1.582,12.664,4.748,16.616c3.163,3.957,31.944,7.039,58.44,7.631c27.253,0.603,48.672-3.853,51.502-5.266
						c3.635-1.819,2.875-11.398,2.891-16.344c2.58-0.104,12.159,1.583,21.127-1.055c17.078-5.019,26.236-26.1,26.635-47.859
						C403.227,235.643,390.964,215.869,379.889,211.118z M373.562,282.586c-6.843,3.732-17.735-0.808-18.658-1.111
						c-0.037-16.9-0.046-33.146,0-47.941c4.87-3.537,10.39-6.703,17.074-2.633c9.096,5.541,11.207,15.164,11.604,27.422
						C383.976,270.589,377.135,280.637,373.562,282.586z"/>
					<path d="M305.735,331.841c-1.687,0-3.404-0.018-5.141-0.057c-13.469-0.301-27.448-1.241-38.355-2.581
						c-19.76-2.427-21.958-5.177-23.015-6.498c-3.919-4.893-5.592-10.584-5.592-19.026V199.258c0-5.01,2.591-10.98,14.936-10.98
						h98.165c9.357,0,11.71,5.411,12.281,8.637c0.141,0.811,0.119,1.917,0.031,5.293c-0.004,0.167-0.009,0.336-0.013,0.509
						c5.517,0.418,14.755,1.588,22.378,4.854c6.428,2.757,12.863,9.499,17.659,18.496c5.11,9.587,7.818,20.739,7.627,31.405
						c-0.48,26.173-12.023,46.385-29.406,51.493c-3.77,1.108-7.941,1.647-12.751,1.647c0,0,0,0,0,0
						c-2.082,0-3.982-0.103-5.553-0.209c0.064,6.246-0.255,13.296-5.074,15.708C350.012,328.058,329.48,331.841,305.735,331.841z
						 M245.137,317.737c3.107,2.169,24.457,5.634,55.629,6.33c1.679,0.037,3.338,0.055,4.969,0.055
						c24.461,0,41.936-3.854,44.569-4.854c1.085-1.562,0.977-8.072,0.935-10.558c-0.014-0.873-0.027-1.688-0.025-2.407l0.013-3.695
						l3.692-0.148c0.763-0.03,1.837,0.043,3.23,0.146c1.749,0.128,3.925,0.288,6.388,0.288c0,0,0,0,0.001,0
						c4.062,0,7.521-0.437,10.574-1.335c16.012-4.705,23.523-25.604,23.865-44.228c0.355-19.78-10.577-38.362-20.61-42.666
						c-8.668-3.715-20.101-4.341-23.399-4.444l-3.8-0.119l0.062-3.802c0.025-1.539,0.064-3.008,0.098-4.294
						c0.041-1.566,0.087-3.332,0.062-3.877c-0.15-0.796-0.577-2.133-4.657-2.133h-98.165c-7.217,0-7.217,1.886-7.217,3.262v104.421
						C241.351,310.217,242.45,314.309,245.137,317.737z M366.964,287.911c-3.855,0-8.245-0.905-13.048-2.689l-2.823-0.991
						l-0.048-2.747c-0.042-18.983-0.042-34.672,0-47.962l0.006-1.96l1.585-1.151c3.777-2.743,7.968-5.282,13.012-5.282
						c2.835,0,5.641,0.833,8.338,2.476c11.173,6.807,13.069,18.727,13.455,30.594c0.429,13.426-6.841,24.945-12.03,27.776
						C373.055,287.259,370.213,287.911,366.964,287.911z M358.758,278.729c3.065,0.972,5.818,1.463,8.206,1.463
						c1.942,0,3.541-0.334,4.75-0.994c1.985-1.083,8.366-9.67,8.012-20.752c-0.437-13.439-3.171-20.238-9.755-24.249
						c-3.824-2.327-7.156-1.364-11.213,1.35C358.725,247.734,358.725,261.911,358.758,278.729z"/>
				</g>
				<path d="M250.391,193.37c0,0,2.466,1.308,4.39,3.189c1.233,1.194,2.244,2.635,2.244,4.105c0,10.498,0.222,35.369,0.222,40.533
					c0,6.189-3.281,10.874-3.281,13.934c0,3.227,2.417,7.665,6.46,7.665c4.042,0,5.148-4.64,5.451-7.062
					c0.304-2.422-1.151-7.563-1.151-10.664c0-2.181-0.118-18.215-0.062-32.543c0,0,0.218-8.068,2.423-12.111
					c2.421-4.444,10.497-5.656,26.304-4.731c1.404,0.089,3.981-2.653,3.981-2.653L250.391,193.37z"/>
			</g>
		</g>
		<polygon points="248.509,447.504 261.837,436.109 261.837,435.51 255.905,431.379 240.379,431.379 235.447,435.51 
			235.447,436.109 		"/>
		<polygon points="295.892,447.504 309.221,436.109 309.221,435.51 303.29,431.379 287.761,431.379 282.831,435.51 282.831,436.109 
					"/>
		<polygon points="343.274,447.504 356.604,436.109 356.604,435.51 350.674,431.379 335.146,431.379 330.215,435.51 
			330.215,436.109 		"/>
		<polygon points="390.658,447.504 403.987,436.109 403.987,435.51 398.055,431.379 382.529,431.379 377.598,435.51 
			377.598,436.109 		"/>
		<polygon points="438.042,447.504 451.37,436.109 451.37,435.51 445.44,431.379 429.912,431.379 424.981,435.51 424.981,436.109 		
			"/>
		<polygon points="485.423,447.504 498.752,436.109 498.752,435.51 492.82,431.379 477.292,431.379 472.363,435.51 472.363,436.109 
					"/>
		<polygon points="532.807,447.504 546.136,436.109 546.136,435.51 540.204,431.379 524.677,431.379 519.745,435.51 
			519.745,436.109 		"/>
		<polygon points="580.19,447.504 593.519,436.109 593.519,435.51 587.589,431.379 572.061,431.379 567.13,435.51 567.13,436.109 		
			"/>
		<polygon points="627.573,447.504 640.902,436.109 640.902,435.51 634.97,431.379 619.443,431.379 614.513,435.51 614.513,436.109 
					"/>
		<polygon points="674.956,447.504 688.285,436.109 688.285,435.51 682.354,431.379 666.826,431.379 661.895,435.51 
			661.895,436.109 		"/>
		<polygon points="722.339,447.504 735.668,436.109 735.668,435.51 729.737,431.379 714.21,431.379 709.278,435.51 709.278,436.109 
					"/>
		<polygon points="769.722,447.504 783.051,436.109 783.051,435.51 777.12,431.379 761.592,431.379 756.662,435.51 756.662,436.109 
					"/>
		<polygon points="817.105,447.504 830.434,436.109 830.434,435.51 824.502,431.379 808.973,431.379 804.044,435.51 
			804.044,436.109 		"/>
		<polygon points="864.487,447.504 877.817,436.109 877.817,435.51 871.885,431.379 856.358,431.379 851.427,435.51 
			851.427,436.109 		"/>
		<polygon points="911.872,447.504 925.2,436.109 925.2,435.51 919.268,431.379 903.743,431.379 898.812,435.51 898.812,436.109 		
			"/>
		<polygon points="959.256,447.504 972.583,436.109 972.583,435.51 966.651,431.379 951.122,431.379 946.195,435.51 
			946.195,436.109 		"/>
		<polygon points="1006.636,447.504 1019.963,436.109 1019.963,435.51 1014.034,431.379 998.504,431.379 993.575,435.51 
			993.575,436.109 		"/>
		<polygon points="1054.016,447.504 1067.349,436.109 1067.349,435.51 1061.417,431.379 1045.89,431.379 1040.96,435.51 
			1040.96,436.109 		"/>
		<polygon points="1101.405,447.504 1114.732,436.109 1114.732,435.51 1108.8,431.379 1093.276,431.379 1088.343,435.51 
			1088.343,436.109 		"/>
		<polygon points="1148.788,447.504 1162.115,436.109 1162.115,435.51 1156.183,431.379 1140.654,431.379 1135.727,435.51 
			1135.727,436.109 		"/>
		<g>
			<path fill="#010101" d="M511.176,567.446l-4.51-9.485h-2.112v9.485h-6.264v-25.485h10.094c5.655,0,8.697,4.011,8.697,8.197
				c0,3.474-2.147,5.656-4.151,6.658l5.512,10.63H511.176z M508.097,547.581h-3.543v5.155h3.543c1.718,0,2.72-1.254,2.72-2.578
				C510.817,548.835,509.815,547.581,508.097,547.581z"/>
			<path fill="#010101" d="M528.794,567.446v-25.485h17.324v5.586h-11.06v4.258h9.449v5.586h-9.449v4.473h11.06v5.583H528.794z"/>
			<path fill="#010101" d="M564.989,567.662c-3.901,0-7.087-0.717-9.664-3.364l4.008-4.011c1.325,1.326,3.651,1.791,5.691,1.791
				c2.47,0,3.651-0.822,3.651-2.292c0-0.607-0.144-1.108-0.501-1.503c-0.323-0.322-0.859-0.57-1.682-0.68l-3.079-0.429
				c-2.254-0.321-3.972-1.074-5.118-2.256c-1.181-1.218-1.754-2.936-1.754-5.118c0-4.652,3.507-8.053,9.306-8.053
				c3.651,0,6.407,0.859,8.59,3.043l-3.937,3.938c-1.611-1.612-3.723-1.506-4.832-1.506c-2.184,0-3.078,1.254-3.078,2.365
				c0,0.321,0.107,0.786,0.501,1.181c0.321,0.322,0.858,0.644,1.753,0.75l3.079,0.431c2.291,0.322,3.937,1.036,5.011,2.111
				c1.36,1.323,1.897,3.221,1.897,5.583C574.833,564.835,570.358,567.662,564.989,567.662z"/>
			<path fill="#010101" d="M586.116,567.446v-25.485h17.324v5.586h-11.06v4.258h9.449v5.586h-9.449v4.473h11.06v5.583H586.116z"/>
			<path fill="#010101" d="M627.93,567.446l-4.51-9.485h-2.112v9.485h-6.264v-25.485h10.094c5.656,0,8.698,4.011,8.698,8.197
				c0,3.474-2.147,5.656-4.152,6.658l5.512,10.63H627.93z M624.852,547.581h-3.543v5.155h3.543c1.718,0,2.72-1.254,2.72-2.578
				C627.572,548.835,626.57,547.581,624.852,547.581z"/>
			<path fill="#010101" d="M656.037,567.446h-4.653l-8.412-25.485h6.479l4.295,14.246l4.224-14.246h6.515L656.037,567.446z"/>
			<path fill="#010101" d="M689.87,564.799c-1.861,1.861-4.009,2.863-7.124,2.863c-3.114,0-5.261-1.002-7.122-2.863
				c-2.685-2.684-2.577-6.264-2.577-10.096c0-3.828-0.108-7.408,2.577-10.092c1.861-1.861,4.008-2.863,7.122-2.863
				c3.115,0,5.262,1.002,7.124,2.863c2.685,2.684,2.577,6.264,2.577,10.092C692.447,558.535,692.555,562.115,689.87,564.799z
				 M685.252,548.44c-0.465-0.607-1.36-1.108-2.506-1.108c-1.145,0-2.04,0.501-2.505,1.108c-0.572,0.753-0.931,1.612-0.931,6.263
				c0,4.654,0.358,5.478,0.931,6.23c0.465,0.607,1.36,1.145,2.505,1.145c1.146,0,2.041-0.537,2.506-1.145
				c0.573-0.753,0.931-1.576,0.931-6.23C686.183,550.053,685.825,549.193,685.252,548.44z"/>
			<path fill="#010101" d="M703.945,567.446v-25.485h6.265v25.485H703.945z"/>
			<path fill="#010101" d="M735.413,567.446l-4.51-9.485h-2.111v9.485h-6.265v-25.485h10.094c5.656,0,8.698,4.011,8.698,8.197
				c0,3.474-2.147,5.656-4.152,6.658l5.512,10.63H735.413z M732.334,547.581h-3.543v5.155h3.543c1.719,0,2.721-1.254,2.721-2.578
				C735.055,548.835,734.053,547.581,732.334,547.581z"/>
			<path fill="#010101" d="M784.462,564.941c-1.754,1.755-4.224,2.505-6.873,2.505h-9.449v-25.485h9.449
				c2.649,0,5.119,0.753,6.873,2.508c2.971,2.97,2.648,6.227,2.648,10.234C787.111,558.715,787.433,561.972,784.462,564.941z
				 M780.167,548.978c-0.572-0.859-1.432-1.431-3.007-1.431h-2.756v14.316h2.756c1.575,0,2.435-0.571,3.007-1.431
				c0.501-0.716,0.68-1.396,0.68-5.729C780.847,550.41,780.668,549.693,780.167,548.978z"/>
			<path fill="#010101" d="M814.609,564.799c-1.861,1.861-4.01,2.863-7.123,2.863s-5.262-1.002-7.123-2.863
				c-2.684-2.684-2.577-6.264-2.577-10.096c0-3.828-0.106-7.408,2.577-10.092c1.861-1.861,4.01-2.863,7.123-2.863
				s5.262,1.002,7.123,2.863c2.684,2.684,2.577,6.264,2.577,10.092C817.186,558.535,817.292,562.115,814.609,564.799z
				 M809.991,548.44c-0.465-0.607-1.36-1.108-2.505-1.108s-2.04,0.501-2.505,1.108c-0.574,0.753-0.932,1.612-0.932,6.263
				c0,4.654,0.357,5.478,0.932,6.23c0.465,0.607,1.36,1.145,2.505,1.145s2.04-0.537,2.505-1.145c0.574-0.753,0.932-1.576,0.932-6.23
				C810.922,550.053,810.565,549.193,809.991,548.44z"/>
			<path fill="#010101" d="M844.934,564.799c-2.182,2.256-4.616,2.863-7.409,2.863c-2.971,0-5.226-1.002-7.087-2.863
				c-2.684-2.684-2.577-6.264-2.577-10.096c0-3.828-0.106-7.408,2.577-10.092c1.861-1.861,4.01-2.863,7.087-2.863
				c6.551,0,9.342,4.26,9.951,8.447h-6.3c-0.501-1.935-1.503-2.863-3.65-2.863c-1.145,0-2.004,0.501-2.469,1.108
				c-0.573,0.753-0.932,1.612-0.932,6.263c0,4.654,0.358,5.551,0.932,6.301c0.465,0.609,1.324,1.074,2.469,1.074
				c1.325,0,2.22-0.395,2.793-1.002c0.715-0.717,0.966-1.755,0.966-2.721v-0.357h-3.759v-5.226h9.987v3.543
				C847.512,560.433,846.867,562.828,844.934,564.799z"/>
			<path fill="#010101" d="M866.276,567.662c-3.901,0-7.086-0.717-9.664-3.364l4.01-4.011c1.323,1.326,3.65,1.791,5.691,1.791
				c2.468,0,3.65-0.822,3.65-2.292c0-0.607-0.144-1.108-0.502-1.503c-0.322-0.322-0.858-0.57-1.683-0.68l-3.077-0.429
				c-2.256-0.321-3.974-1.074-5.118-2.256c-1.182-1.218-1.754-2.936-1.754-5.118c0-4.652,3.507-8.053,9.306-8.053
				c3.651,0,6.406,0.859,8.59,3.043l-3.937,3.938c-1.61-1.612-3.723-1.506-4.832-1.506c-2.184,0-3.079,1.254-3.079,2.365
				c0,0.321,0.108,0.786,0.501,1.181c0.323,0.322,0.859,0.644,1.755,0.75l3.077,0.431c2.291,0.322,3.938,1.036,5.012,2.111
				c1.36,1.323,1.897,3.221,1.897,5.583C876.12,564.835,871.646,567.662,866.276,567.662z"/>
		</g>
	</g>
</g>
<g id="akira">
</g>
</svg>
