<?xml version="1.0" encoding="utf-8"?>
<!-- Generator: Adobe Illustrator 16.0.0, SVG Export Plug-In . SVG Version: 6.00 Build 0)  -->
<!DOCTYPE svg PUBLIC "-//W3C//DTD SVG 1.1//EN" "http://www.w3.org/Graphics/SVG/1.1/DTD/svg11.dtd">
<svg version="1.1" id="Layer_1" xmlns="http://www.w3.org/2000/svg" xmlns:xlink="http://www.w3.org/1999/xlink" x="0px" y="0px"
	 width="1400px" height="700px" viewBox="0 0 1400 700" enable-background="new 0 0 1400 700" xml:space="preserve">
<g id="romeo_and_juliet">
</g>
<g id="gatsby">
</g>
<g id="big_lebowski">
</g>
<g id="_x32_001">
</g>
<path fill="#010101" d="M505.144,566.089h-6.557v-19.671h-5.42v-5.553h17.396v5.553h-5.419V566.089L505.144,566.089z"/>
<path fill="#010101" d="M535.65,550.599v-9.732h6.558v25.224h-6.558v-10.337h-9.468v10.337h-6.557v-25.224h6.557v9.732H535.65z"/>
<path fill="#010101" d="M559.733,546.418v4.215h7.394v5.555h-7.394v4.35h7.795v5.553h-14.353v-25.224h14.353v5.553L559.733,546.418
	L559.733,546.418z"/>
<path fill="#010101" d="M602.983,560.536h7.86v5.553h-14.418v-25.224h6.558V560.536z"/>
<path fill="#010101" d="M626.23,566.089h-6.558v-25.224h6.558V566.089z"/>
<path fill="#010101" d="M643.757,546.418v4.215h7.193v5.555h-7.193v9.901H637.2v-25.224h14.484v5.553H643.757z"/>
<path fill="#010101" d="M666.905,546.418v4.215h7.394v5.555h-7.394v4.35h7.795v5.553h-14.353v-25.224H674.7v5.553L666.905,546.418
	L666.905,546.418z"/>
<path fill="#010101" d="M710.021,561.706l-1.74,4.383h-6.958l9.701-25.224h7.158l9.501,25.224h-6.991l-1.64-4.383H710.021z
	 M714.604,548.659h-0.066l-2.709,8.028h5.452L714.604,548.659z"/>
<path fill="#010101" d="M756.684,567.662l-2.007-2.377c-1.939,1.172-4.216,1.641-6.926,1.641c-8.096,0-13.95-5.755-13.95-13.917
	c0-7.628,6.691-12.979,13.95-12.979c7.862,0,13.951,5.318,13.951,13.515c0,3.346-1.138,6.257-3.245,8.865l4.248,4.314
	L756.684,567.662z M753.707,557.291c0.77-1.07,1.171-2.442,1.171-3.714c0-3.78-3.145-7.193-7.092-7.193
	c-3.914,0-7.159,3.18-7.159,6.658c0,4.349,3.245,7.526,7.159,7.526c0.669,0,1.338-0.101,2.007-0.335l-4.048-4.014l6.188-0.77
	L753.707,557.291z"/>
<path fill="#010101" d="M793.312,540.865v14.184c0,3.245-0.135,6.457-2.645,8.898c-2.107,2.074-5.419,2.811-8.363,2.811
	c-2.943,0-6.256-0.736-8.362-2.811c-2.51-2.441-2.644-5.653-2.644-8.898v-14.184h6.558v13.278c0,3.279,0.233,6.859,4.448,6.859
	s4.45-3.58,4.45-6.859v-13.278H793.312z"/>
<path fill="#010101" d="M810.57,561.706l-1.738,4.383h-6.96l9.703-25.224h7.159l9.502,25.224h-6.994l-1.639-4.383H810.57z
	 M815.155,548.659h-0.067l-2.709,8.028h5.451L815.155,548.659z"/>
<path fill="#010101" d="M844.998,566.089h-6.558v-19.671h-5.422v-5.553h17.396v5.553h-5.418L844.998,566.089L844.998,566.089z"/>
<path fill="#010101" d="M866.036,566.089h-6.558v-25.224h6.558V566.089z"/>
<path fill="#010101" d="M895.035,549.328c-1.336-1.807-3.512-2.776-5.75-2.776c-4.019,0-6.728,3.077-6.728,6.991
	c0,3.981,2.744,6.858,6.824,6.858c2.142,0,4.281-1.036,5.652-2.678v7.861c-2.17,0.671-3.744,1.172-5.783,1.172
	c-3.514,0-6.861-1.338-9.469-3.713c-2.776-2.509-4.047-5.787-4.047-9.535c0-3.444,1.305-6.758,3.711-9.232
	c2.477-2.542,6.057-4.08,9.602-4.08c2.107,0,4.047,0.467,5.986,1.271L895.035,549.328L895.035,549.328z"/>
<g>
	<path d="M415.373,432.141l-3.045-3.551l-2.908,3.664c-0.056,0.071-5.799,7.054-12.952,7.054c-6.758,0-12.99-7.103-13.046-7.167
		l-3.045-3.551l-2.908,3.664c-0.056,0.071-5.799,7.054-12.952,7.054c-6.756,0-12.987-7.103-13.044-7.167l-3.045-3.551l-2.908,3.664
		c-0.057,0.071-5.799,7.054-12.953,7.054v0.001c-6.757,0-12.988-7.103-13.044-7.167l-3.032-3.515l-2.913,3.617
		c-0.058,0.071-5.771,7.063-12.96,7.063c-6.758,0-12.99-7.103-13.046-7.167l-3.045-3.551l-2.908,3.664
		c-0.056,0.071-5.799,7.054-12.951,7.054c-6.759,0-12.991-7.103-13.047-7.167l-3.045-3.551l-2.908,3.664
		c-0.056,0.071-5.799,7.054-12.951,7.054v7.72c7.066,0,12.786-3.979,16.043-6.915c3.349,2.909,9.182,6.915,15.908,6.915
		c7.065,0,12.785-3.979,16.042-6.915c3.349,2.909,9.183,6.915,15.908,6.915c7.064,0,12.786-3.979,16.043-6.915
		c3.349,2.909,9.182,6.915,15.906,6.915c7.066,0,12.787-3.98,16.045-6.915c3.349,2.909,9.182,6.915,15.905,6.915
		c7.066,0,12.786-3.979,16.043-6.915c3.351,2.909,9.184,6.915,15.908,6.915c7.066,0,12.786-3.979,16.043-6.915
		c3.351,2.909,9.184,6.915,15.908,6.915v-7.72C421.661,439.308,415.429,432.205,415.373,432.141z"/>
	<path d="M575.127,432.142l-3.032-3.515l-2.913,3.617c-0.057,0.071-5.771,7.063-12.96,7.063c-6.758,0-12.989-7.103-13.046-7.167
		l-3.045-3.551l-2.908,3.664c-0.056,0.071-5.799,7.054-12.951,7.054c-6.759,0-12.99-7.103-13.047-7.167l-3.045-3.551l-2.907,3.664
		c-0.057,0.071-5.8,7.054-12.952,7.054c-6.756,0-12.988-7.103-13.044-7.167l-3.045-3.551l-2.908,3.664
		c-0.057,0.071-5.8,7.054-12.954,7.054v0.001c-6.756,0-12.988-7.103-13.044-7.167l-3.032-3.515l-2.913,3.617
		c-0.057,0.071-5.771,7.063-12.96,7.063v7.72c7.065,0,12.786-3.979,16.043-6.915c3.349,2.909,9.182,6.915,15.906,6.915
		c7.065,0,12.787-3.98,16.045-6.915c3.349,2.909,9.182,6.915,15.906,6.915c7.065,0,12.786-3.979,16.043-6.915
		c3.35,2.909,9.183,6.915,15.908,6.915c7.065,0,12.785-3.979,16.043-6.915c3.35,2.909,9.183,6.915,15.907,6.915
		c7.065,0,12.786-3.979,16.043-6.915c3.35,2.909,9.183,6.915,15.906,6.915v-7.719C581.415,439.309,575.184,432.206,575.127,432.142z
		"/>
	<path d="M670.977,432.141l-3.045-3.551l-2.907,3.664c-0.056,0.072-5.798,7.054-12.95,7.054c-6.76,0-12.988-7.102-13.044-7.166
		l-3.044-3.552l-2.909,3.664c-0.056,0.071-5.8,7.054-12.954,7.054c-6.756,0-12.988-7.103-13.044-7.167l-3.045-3.551l-2.908,3.664
		c-0.056,0.071-5.8,7.054-12.954,7.054v7.72c7.066,0,12.787-3.98,16.045-6.915c3.35,2.909,9.183,6.915,15.906,6.915
		c7.066,0,12.787-3.979,16.045-6.915c3.348,2.909,9.181,6.915,15.906,6.915c7.065,0,12.786-3.979,16.043-6.915
		c3.349,2.909,9.181,6.915,15.907,6.915v-7.72C677.265,439.308,671.033,432.205,670.977,432.141z"/>
	<polygon points="684.024,447.027 684.025,447.027 684.024,447.027 	"/>
	<path d="M766.83,432.141l-3.045-3.551l-2.908,3.664c-0.057,0.071-5.799,7.054-12.953,7.054c-6.756,0-12.988-7.103-13.044-7.167
		l-3.045-3.551l-2.908,3.664c-0.057,0.071-5.799,7.054-12.953,7.054c-6.757,0-12.988-7.103-13.045-7.167l-3.045-3.551l-2.908,3.664
		c-0.056,0.071-5.799,7.054-12.95,7.054v7.72c7.064,0,12.784-3.979,16.042-6.915c3.349,2.909,9.183,6.915,15.906,6.915
		c7.066,0,12.787-3.979,16.044-6.915c3.35,2.909,9.183,6.915,15.906,6.915c7.067,0,12.787-3.979,16.044-6.915
		c3.35,2.909,9.184,6.915,15.908,6.915v-7.72C773.118,439.308,766.886,432.205,766.83,432.141z"/>
	<path d="M1150.239,432.141l-3.046-3.551l-2.908,3.665c-0.057,0.071-5.795,7.053-12.949,7.053v7.72
		c7.067,0,12.786-3.979,16.042-6.915c3.351,2.909,9.185,6.915,15.907,6.915h0.001v-7.72
		C1156.53,439.308,1150.295,432.205,1150.239,432.141z"/>
	<path d="M1118.288,432.141l-3.045-3.551l-2.908,3.664c-0.056,0.072-5.797,7.054-12.953,7.054c-6.755,0-12.986-7.103-13.042-7.166
		l-3.045-3.552l-2.908,3.664c-0.057,0.071-5.799,7.054-12.954,7.054c-6.758,0-12.99-7.103-13.047-7.167l-3.045-3.552l-2.908,3.666
		c-0.056,0.071-5.795,7.053-12.952,7.053c-6.755,0-12.987-7.103-13.044-7.167l-3.045-3.551l-2.907,3.664
		c-0.057,0.072-5.798,7.054-12.953,7.054c-6.755,0-12.99-7.103-13.046-7.167l-3.046-3.551l-2.908,3.665
		c-0.057,0.071-5.795,7.053-12.949,7.053c-6.758,0-12.991-7.103-13.047-7.167l-3.045-3.552l-2.908,3.666
		c-0.056,0.071-5.795,7.053-12.951,7.053c-6.754,0-12.989-7.103-13.045-7.167l-3.045-3.55l-2.908,3.663
		c-0.057,0.071-5.799,7.054-12.954,7.054v0.001c-6.757,0-12.987-7.103-13.044-7.166l-3.031-3.517l-2.913,3.618
		c-0.058,0.071-5.771,7.063-12.96,7.063v0.001c-6.759,0-12.994-7.104-13.051-7.167l-3.033-3.516l-2.911,3.619
		c-0.058,0.071-5.767,7.062-12.959,7.062c-6.757,0-12.99-7.103-13.046-7.167l-3.045-3.551l-2.908,3.664
		c-0.056,0.072-5.797,7.054-12.95,7.054c-6.757,0-12.989-7.103-13.045-7.167l-3.045-3.551l-2.908,3.664
		c-0.056,0.071-5.799,7.054-12.952,7.054v7.72c7.066,0,12.786-3.979,16.043-6.915c3.35,2.909,9.184,6.915,15.907,6.915
		c7.066,0,12.786-3.979,16.043-6.915c3.349,2.909,9.183,6.915,15.906,6.915c7.068,0,12.788-3.979,16.045-6.915
		c3.349,2.909,9.185,6.915,15.909,6.915c7.064,0,12.785-3.979,16.043-6.915c3.349,2.909,9.182,6.915,15.905,6.915
		c7.067,0,12.788-3.98,16.046-6.915c3.35,2.907,9.184,6.915,15.905,6.915h0.001c7.068,0,12.787-3.979,16.044-6.915
		c3.35,2.909,9.184,6.915,15.907,6.915c7.067,0,12.786-3.979,16.042-6.915c3.35,2.909,9.184,6.915,15.907,6.915h0.001l0,0
		c7.068,0,12.788-3.979,16.045-6.915c3.348,2.909,9.181,6.915,15.903,6.915c7.069,0,12.789-3.979,16.046-6.915
		c3.349,2.909,9.183,6.915,15.906,6.915c7.067,0,12.787-3.979,16.045-6.915c3.35,2.909,9.182,6.915,15.904,6.915
		c7.069,0,12.789-3.979,16.046-6.915c3.35,2.909,9.184,6.915,15.907,6.915v-7.72
		C1124.577,439.308,1118.344,432.205,1118.288,432.141z"/>
</g>
<g>
	<g>
		<path fill="#FFFFFF" d="M614.957,251.911c0,31.747-25.738,57.489-57.487,57.489c-31.752,0-57.487-25.742-57.487-57.489
			c0-31.753,25.735-57.487,57.487-57.487C589.218,194.424,614.957,220.158,614.957,251.911z"/>
		<path d="M557.469,313.26c-33.827,0-61.348-27.521-61.348-61.349c0-33.827,27.521-61.347,61.348-61.347s61.348,27.52,61.348,61.347
			C618.816,285.739,591.296,313.26,557.469,313.26z M557.469,198.283c-29.57,0-53.629,24.058-53.629,53.628
			c0,29.571,24.059,53.63,53.629,53.63s53.628-24.059,53.628-53.63C611.097,222.341,587.04,198.283,557.469,198.283z"/>
	</g>
	<polygon points="578.094,275.134 536.843,275.134 536.843,268.854 567.294,236.063 536.843,236.063 536.843,228.688 
		578.094,228.688 578.094,234.968 548.448,267.759 578.094,267.759 	"/>
	<g>
		<path fill="#FFEF00" d="M607.59,213.814c-11.499-15.114-29.666-24.868-50.119-24.868c-21.001,0-39.595,10.284-51.029,26.09
			c-1.342,1.852-18.67,21.328-18.67,29.173v15.408c0,7.836,23.486,35.129,25.416,37.04c11.372,11.263,27.012,18.222,44.283,18.222
			c18.396,0,34.949-7.9,46.459-20.486c1.76-1.926,23.236-26.939,23.236-34.775V244.21
			C627.167,236.364,609.34,216.113,607.59,213.814z M557.471,300.229c-26.688,0-48.321-21.627-48.321-48.317
			c0-26.688,21.635-48.323,48.321-48.323c26.686,0,48.317,21.635,48.317,48.323C605.789,278.602,584.156,300.229,557.471,300.229z"
			/>
		<path d="M557.471,318.738c-17.715,0-34.406-6.868-47-19.339c-0.267-0.264-26.56-29.444-26.56-39.782v-15.408
			c0-5.659,5.388-14.555,18.015-29.744c0.612-0.737,1.245-1.499,1.391-1.695c12.541-17.333,32.785-27.683,54.153-27.683
			c21.043,0,40.432,9.619,53.191,26.391c0.219,0.288,0.713,0.88,1.399,1.707c13.293,16.013,18.964,25.291,18.964,31.024v15.408
			c0,2.677-1.216,7.86-11.728,21.915c-5.512,7.371-11.355,14.19-12.519,15.463C594.143,310.814,576.171,318.738,557.471,318.738z
			 M557.471,192.806c-18.898,0-36.807,9.156-47.902,24.493c-0.266,0.365-0.715,0.908-1.706,2.101
			c-14.123,16.988-16.232,22.836-16.232,24.81v15.408c0,0.15,0.127,3.843,11.198,18.406c6.03,7.933,12.306,15.13,13.076,15.893
			c11.137,11.028,25.899,17.104,41.566,17.104c16.539,0,32.435-7.01,43.611-19.231c6.596-7.223,22.225-27.376,22.225-32.171v-15.408
			c0-2.015-2.231-8.083-17.184-26.094c-0.789-0.949-1.352-1.632-1.604-1.963C593.231,201.315,576.083,192.806,557.471,192.806z
			 M557.471,304.088c-28.772,0-52.182-23.406-52.182-52.177c0-28.773,23.409-52.183,52.182-52.183
			c28.771,0,52.178,23.409,52.178,52.183C609.648,280.682,586.242,304.088,557.471,304.088z M557.471,207.447
			c-24.517,0-44.463,19.946-44.463,44.464c0,24.514,19.946,44.458,44.463,44.458c24.515,0,44.458-19.944,44.458-44.458
			C601.929,227.394,581.985,207.447,557.471,207.447z"/>
	</g>
</g>
<g>
	<path fill="#F15D22" d="M250.529,281.293c0,0-3.112-19.243,12.95-39.175c16.067-19.929,22.545-19.441,26.223-29.055
		c3.673-9.605,16.877-22.547,31.058-24.102c14.182-1.56,21.577,3.11,30.012,8.901c8.432,5.793,6.747,11.911,14.049,18.746
		c7.305,6.827,34.727,25.509,33.672,57.344C397.708,297.643,250.529,281.293,250.529,281.293z"/>
	<path d="M341.758,290.65c-41.471,0-91.158-5.466-91.655-5.521l-2.916-0.324l-0.468-2.896c-0.138-0.855-3.192-21.184,13.755-42.213
		c8.082-10.023,13.797-15.015,17.971-18.659c4.074-3.559,6.119-5.344,7.652-9.353c4.396-11.495,19.204-24.91,34.242-26.56
		c1.971-0.217,3.894-0.326,5.713-0.326c12.511,0,20.157,5.25,26.903,9.883c5.416,3.721,7.389,7.733,9.129,11.274
		c1.314,2.673,2.555,5.197,5.373,7.836c0.823,0.769,1.995,1.763,3.353,2.913c10.559,8.948,32.526,27.569,31.539,57.376
		C401.969,285.54,383.283,290.65,341.758,290.65z M254.133,277.793c11.574,1.19,52.601,5.139,87.625,5.139
		c16.624,0,29.699-0.882,38.863-2.619c10.249-1.944,13.954-4.71,14.013-6.487c0.864-26.075-19.182-43.066-28.814-51.231
		c-1.435-1.216-2.672-2.266-3.635-3.165c-3.851-3.604-5.538-7.038-7.026-10.067c-1.577-3.207-2.822-5.74-6.572-8.317
		c-7.5-5.149-13.122-8.526-22.533-8.526c-1.539,0-3.178,0.095-4.871,0.281c-13.172,1.443-24.842,13.714-27.875,21.644
		c-2.22,5.802-5.393,8.573-9.785,12.408c-3.959,3.458-9.381,8.192-17.038,17.69C255.155,258.598,254.012,272.044,254.133,277.793z"
		/>
</g>
<g>
	<path fill="#F15D22" d="M324.639,315.167c-19.625,0-38.17-1.187-52.216-3.337c-10.923-1.673-31.251-4.786-31.251-19.82
		c0-3.757-2.5-9.852,3.209-17.823c5.71-7.971,19.851-10.426,28.042-11.679c14.046-2.154,32.592-3.341,52.216-3.341
		c19.624,0,38.168,1.187,52.217,3.341c8.189,1.253,23.119,5.83,28.039,10.616c4.923,4.783,3.212,15.129,3.212,18.886
		c0,15.034-20.329,18.147-31.251,19.82C362.809,313.98,344.264,315.167,324.639,315.167z"/>
	<path d="M324.639,319.026c-19.806,0-38.557-1.2-52.8-3.381c-11.207-1.717-34.526-5.288-34.526-23.636
		c0-0.545-0.092-1.299-0.199-2.172c-0.475-3.875-1.269-10.36,4.13-17.898c6.073-8.479,18.875-11.454,30.596-13.247
		c14.232-2.183,32.984-3.385,52.799-3.385c19.813,0,38.565,1.202,52.802,3.385c7.511,1.149,24.066,5.751,30.146,11.665
		c5.34,5.19,4.803,14.094,4.482,19.413c-0.056,0.916-0.104,1.707-0.104,2.239c0,18.348-23.318,21.919-34.524,23.636
		C363.196,317.826,344.445,319.026,324.639,319.026z M324.639,263.026c-19.436,0-37.771,1.171-51.631,3.297
		c-6.133,0.938-20.491,3.134-25.489,10.111c-3.646,5.091-3.167,9.009-2.744,12.465c0.132,1.077,0.256,2.094,0.256,3.11
		c0,11.721,18.199,14.508,27.976,16.005c13.868,2.123,32.205,3.293,51.631,3.293c19.428,0,37.765-1.17,51.632-3.293
		c5.388-0.825,12.764-1.954,18.738-4.611c8.28-3.682,9.238-8.266,9.238-11.394c0-0.765,0.054-1.663,0.117-2.704
		c0.226-3.735,0.645-10.689-2.158-13.414c-3.786-3.683-17.282-8.245-25.934-9.568C362.409,264.197,344.073,263.026,324.639,263.026z
		"/>
</g>
<ellipse cx="324.511" cy="292.01" rx="71.222" ry="10.913"/>
<path fill="#F15D22" d="M825.211,321.152c0-4.57,7.883-4.099,21.303-4.099c9.832,0,17.74-7.78,0.411-7.78
	c-17.337,0-3.266-4.591,4.504-5.328c8.604-0.82,8.491-9.271,8.491-9.271H728.626c0,0,1.742,8.037,12.803,8.24
	c6.978,0.129,13.11,4.712,2.87,6.966c-17.13,3.769-0.896,7.827,2.867,7.991c4.709,0.204,19.085-1.234,19.46,0.821
	c0.819,4.507-9.425,2.048-9.814,6.073c-0.196,2.027,6.257,4.234,41.771,3.553c21.432-0.407,36.021-0.168,35.682-3.718
	C833.91,320.888,825.211,324.363,825.211,321.152z"/>
<g>
	<path d="M794.315,274.807c-2.133,0-3.859-1.728-3.859-3.859v-92.954c0-2.132,1.728-3.859,3.859-3.859
		c2.131,0,3.858,1.728,3.858,3.859v92.954C798.174,273.079,796.447,274.807,794.315,274.807z"/>
	<g>
		<g>
			<path fill="#FFEF00" d="M788.375,238.403c0,12.466-10.11,22.581-22.578,22.581c-12.471,0-22.579-10.115-22.579-22.581
				c0-12.472,10.108-22.586,22.579-22.586C778.265,215.817,788.375,225.932,788.375,238.403z"/>
			<path d="M765.797,264.844c-14.578,0-26.438-11.861-26.438-26.44c0-14.582,11.859-26.445,26.438-26.445
				s26.438,11.863,26.438,26.445C792.235,252.982,780.375,264.844,765.797,264.844z M765.797,219.677
				c-10.322,0-18.72,8.4-18.72,18.727c0,10.323,8.397,18.722,18.72,18.722c10.321,0,18.719-8.398,18.719-18.722
				C784.516,228.077,776.119,219.677,765.797,219.677z"/>
		</g>
		<g>
			<path fill="#FFEF00" d="M845.415,238.403c0,12.466-10.117,22.581-22.586,22.581c-12.472,0-22.579-10.115-22.579-22.581
				c0-12.472,10.107-22.586,22.579-22.586C835.297,215.817,845.415,225.932,845.415,238.403z"/>
			<path d="M822.829,264.844c-14.578,0-26.438-11.861-26.438-26.44c0-14.582,11.86-26.445,26.438-26.445
				c14.582,0,26.445,11.863,26.445,26.445C849.274,252.982,837.411,264.844,822.829,264.844z M822.829,219.677
				c-10.322,0-18.72,8.4-18.72,18.727c0,10.323,8.397,18.722,18.72,18.722c10.326,0,18.727-8.398,18.727-18.722
				C841.555,228.077,833.154,219.677,822.829,219.677z"/>
		</g>
	</g>
	<g>
		<path fill="#FFFFFF" d="M732.371,291.714c0-34.212,27.73-61.948,61.933-61.948l0,0c34.218,0,61.951,27.736,61.951,61.948H732.371z
			"/>
		<path d="M860.114,295.573H728.511v-3.859c0-36.286,29.515-65.808,65.792-65.808c36.288,0,65.812,29.521,65.812,65.808V295.573
			L860.114,295.573z M736.357,287.854h115.91c-1.991-30.239-27.229-54.229-57.965-54.229
			C763.578,233.625,738.349,257.615,736.357,287.854z"/>
	</g>
	<polygon points="935.007,190.08 831.136,195.96 819.374,190.08 779.195,190.08 653.619,190.08 653.619,181.26 754.696,175.378 
		766.456,181.26 808.104,181.26 935.007,181.26 	"/>
	<polygon points="809.883,205.733 778.745,205.733 771.427,186.625 778.636,183.865 784.055,198.015 804.573,198.015 
		809.993,183.864 817.202,186.626 	"/>
	<rect x="787.065" y="209.951" width="14.497" height="7.719"/>
</g>
<g>
	<g>
		<path fill="#FFEF00" d="M1117.294,217.524l-11.801-1.302h-5.4l-3.717-13.501h-7.986v-12.16h4.914V177.63h-57.76v12.931h4.914
			v12.16h-7.988l-3.723,13.501h-5.398l-11.803,1.302c-16.592,4.53-33.26,21.973-33.26,36.323c0,0-9.296,3.581-9.296,8.23
			c0,4.646,0,21.071,0,21.071c0,17.014,19.367,30.806,36.382,30.806h6.282c15.605,8.777,33.591,13.809,52.769,13.809
			c19.174,0,37.162-5.031,52.762-13.809h6.285c17.012,0,38.244-13.792,38.244-30.806c0,0,0-16.426,0-21.071
			c0-4.649-11.158-8.23-11.158-8.23C1150.556,239.497,1133.888,222.05,1117.294,217.524z"/>
		<path d="M1064.423,331.623c-18.78,0-37.349-4.771-53.769-13.809h-5.282c-18.609,0-40.24-15.143-40.24-34.665v-21.071
			c0-1.582,0.725-6.75,9.446-10.845c1.732-15.229,18.088-32.555,35.951-37.433l0.594-0.112l12.226-1.325h2.459l3.724-13.501h7.067
			v-4.441h-4.913v-20.649h65.479v20.649h-4.914v4.441h7.067l3.717,13.501l2.883,0.023l12.394,1.414
			c17.795,4.854,34.094,22.063,35.934,37.254c10.167,3.916,11.33,8.939,11.33,11.023v21.071c0,19.202-23.033,34.665-42.104,34.665
			h-5.284C1101.771,326.852,1083.206,331.623,1064.423,331.623z M1012.279,221.326c-15.252,4.312-30.133,20.336-30.133,32.521v2.649
			l-2.473,0.952c-3.416,1.328-6.611,3.684-6.827,4.678l0.003,21.022c0,14.927,17.792,26.946,32.521,26.946h7.294l0.881,0.495
			c15.485,8.71,33.077,13.313,50.875,13.313c17.8,0,35.391-4.604,50.869-13.312l0.881-0.496h7.296
			c18.518,0,34.385-14.816,34.385-26.946v-20.906c-0.636-1.224-4.757-3.526-8.478-4.721l-2.681-0.86v-2.814
			c0-12.19-14.882-28.215-30.134-32.521l-11.28-1.244h-8.129l-3.717-13.501h-8.905v-19.879h4.914v-5.212h-50.041v5.212h4.914v19.879
			h-8.908l-3.723,13.501h-8.126L1012.279,221.326z"/>
	</g>
	<rect x="968.449" y="279.29" width="193.809" height="7.719"/>
	<g>
		<g>
			<path fill="#FFFFFF" d="M1035.96,297.2c4.09,1.513,6.42,5.416,5.197,8.726c-1.224,3.307-5.529,4.761-9.621,3.248
				c-4.086-1.513-6.416-5.414-5.191-8.721C1027.568,297.148,1031.869,295.688,1035.96,297.2z"/>
			<path fill="#FFEF00" d="M1032.689,296.604c1.062-0.001,2.175,0.191,3.271,0.597c4.09,1.513,6.42,5.416,5.197,8.726
				c-0.896,2.419-3.439,3.847-6.343,3.847c-1.066,0-2.181-0.192-3.278-0.599c-4.086-1.513-6.416-5.414-5.191-8.721
				C1027.24,298.034,1029.785,296.604,1032.689,296.604 M1032.689,288.884L1032.689,288.884c-6.254,0-11.586,3.49-13.584,8.891
				c-1.396,3.772-0.955,8.024,1.214,11.663c1.88,3.156,4.913,5.633,8.538,6.976c1.937,0.716,3.94,1.078,5.957,1.078
				c6.256,0,11.587-3.489,13.584-8.889c2.693-7.293-1.685-15.655-9.761-18.643C1036.706,289.246,1034.705,288.884,1032.689,288.884
				L1032.689,288.884z"/>
		</g>
		<g>
			<path fill="#FFFFFF" d="M1094.744,297.2c-4.092,1.513-6.412,5.416-5.193,8.726c1.226,3.307,5.529,4.761,9.621,3.248
				c4.092-1.513,6.416-5.414,5.189-8.721C1103.142,297.148,1098.835,295.688,1094.744,297.2z"/>
			<path fill="#FFEF00" d="M1098.016,296.604c2.906,0,5.453,1.431,6.346,3.85c1.227,3.307-1.099,7.208-5.189,8.721
				c-1.099,0.406-2.212,0.599-3.277,0.599c-2.903,0-5.447-1.428-6.344-3.847c-1.219-3.31,1.103-7.213,5.193-8.726
				C1095.84,296.795,1096.952,296.604,1098.016,296.604 M1098.016,288.884c-2.016,0-4.018,0.362-5.948,1.076
				c-8.067,2.982-12.445,11.341-9.761,18.634c2.004,5.41,7.335,8.897,13.588,8.897c2.017,0,4.021-0.362,5.954-1.077
				c4.157-1.537,7.54-4.589,9.278-8.374c1.528-3.324,1.695-6.973,0.472-10.271C1109.61,292.377,1104.276,288.884,1098.016,288.884
				L1098.016,288.884z"/>
		</g>
	</g>
	<g>
		<g>
			<path fill="#FFEF00" d="M1012.208,315.373c0,7.398-6.002,13.393-13.396,13.393c-7.401,0-13.396-5.994-13.396-13.393
				c0-7.402,5.994-13.403,13.396-13.403C1006.207,301.97,1012.208,307.971,1012.208,315.373z"/>
			<path d="M998.814,332.625c-9.516,0-17.257-7.739-17.257-17.252c0-9.519,7.741-17.263,17.257-17.263
				c9.514,0,17.254,7.744,17.254,17.263C1016.068,324.886,1008.328,332.625,998.814,332.625z M998.814,305.829
				c-5.26,0-9.537,4.281-9.537,9.544c0,5.257,4.277,9.533,9.537,9.533c5.258,0,9.534-4.276,9.534-9.533
				C1008.349,310.11,1004.072,305.829,998.814,305.829z"/>
		</g>
		<g>
			<path fill="#FFEF00" d="M1145.291,315.373c0,7.398-5.998,13.393-13.393,13.393c-7.4,0-13.398-5.994-13.398-13.393
				c0-7.402,5.998-13.403,13.398-13.403C1139.292,301.97,1145.291,307.971,1145.291,315.373z"/>
			<path d="M1131.898,332.625c-9.517,0-17.259-7.739-17.259-17.252c0-9.519,7.742-17.263,17.259-17.263
				c9.513,0,17.252,7.744,17.252,17.263C1149.15,324.886,1141.411,332.625,1131.898,332.625z M1131.898,305.829
				c-5.261,0-9.539,4.281-9.539,9.544c0,5.257,4.278,9.533,9.539,9.533c5.256,0,9.532-4.276,9.532-9.533
				C1141.431,310.11,1137.154,305.829,1131.898,305.829z"/>
		</g>
	</g>
	<g>
		<g>
			<path fill="#FFFFFF" d="M1135.902,268.256H994.806c0,0-0.35-12.099,5.041-22.5c4.068-7.852,9.718-14.73,17.013-14.73
				c16.961,0,77.287,0,95.51,0c8.014,0,13.812,7.195,17.803,15.262C1135.251,256.564,1135.902,268.256,1135.902,268.256z"/>
			<path fill="#FFEF00" d="M1112.369,231.025c8.014,0,13.812,7.195,17.803,15.262c5.08,10.277,5.73,21.969,5.73,21.969H994.806
				c0,0-0.35-12.099,5.041-22.5c4.068-7.852,9.718-14.73,17.013-14.73C1033.82,231.025,1094.146,231.025,1112.369,231.025
				 M1112.369,223.307h-95.51c-9.338,0-17.368,6.357-23.865,18.898c-6.239,12.037-5.92,25.698-5.903,26.273l0.216,7.496h7.5h141.097
				h8.161l-0.454-8.147c-0.03-0.542-0.805-13.4-6.519-24.961C1129.094,226.699,1119.233,223.307,1112.369,223.307L1112.369,223.307z
				"/>
		</g>
		<g>
			<path fill="#FFEF00" d="M1034.281,271.195c-0.01-0.637-0.18-15.721,3.184-26.581c3.697-11.993,7.062-21.171,13.816-21.171v7.719
				c0.209,0,0.357-0.055,0.397-0.076c-2.354,1.256-5.729,12.208-6.839,15.807c-3.007,9.71-2.843,24.052-2.841,24.195
				L1034.281,271.195z"/>
			<path fill="#FFEF00" d="M1096.419,271.196l-7.719-0.108c0.002-0.144,0.16-14.511-2.832-24.192
				c-1.11-3.603-4.486-14.556-6.843-15.809c0.041,0.021,0.188,0.075,0.396,0.075v-7.719c6.759,0,10.125,9.178,13.823,21.176
				C1096.6,255.476,1096.428,270.56,1096.419,271.196z"/>
		</g>
	</g>
	<rect x="1030.544" y="199.113" width="65.666" height="7.719"/>
</g>
<g id="hobbit">
</g>
<g id="reservoir_dogs">
</g>
</svg>
