<?xml version="1.0" encoding="utf-8"?>
<!-- Generator: Adobe Illustrator 16.0.0, SVG Export Plug-In . SVG Version: 6.00 Build 0)  -->
<!DOCTYPE svg PUBLIC "-//W3C//DTD SVG 1.1//EN" "http://www.w3.org/Graphics/SVG/1.1/DTD/svg11.dtd">
<svg version="1.1" xmlns="http://www.w3.org/2000/svg" xmlns:xlink="http://www.w3.org/1999/xlink" x="0px" y="0px" width="1400px"
	 height="700px" viewBox="0 0 1400 700" enable-background="new 0 0 1400 700" xml:space="preserve">
<g id="romeo_and_juliet">
</g>
<g id="gatsby">
	<g>
		<g>
			<path fill="#FFFFFF" d="M558.708,184.305c1.121-1.326,1.373-3.177,0.645-4.753c-0.734-1.569-2.309-2.574-4.037-2.574H431.946
				c-1.73,0-3.303,1.005-4.037,2.574c-0.727,1.576-0.475,3.427,0.643,4.753l57.598,63.12v62.337l-35.197,8.845
				c-2.1,0.652-3.408,2.743-3.076,4.915c0.332,2.177,2.201,3.778,4.396,3.778h82.715c0.023,0,0.039,0,0.057,0
				c2.461,0,4.451-1.99,4.451-4.441c0-2.141-1.508-3.926-3.518-4.357l-34.861-8.739v-62.341L558.708,184.305z"/>
			<polygon fill="#008DA8" points="501.925,246.461 550.13,194.446 437.134,194.446 485.337,246.461 			"/>
			<path d="M535.044,331.159h-82.771c-4.135,0-7.588-2.967-8.212-7.056c-0.615-4.025,1.854-7.974,5.746-9.183l0.205-0.058
				l32.278-8.111v-57.831l-56.69-62.13c-2.072-2.46-2.541-5.936-1.195-8.855c1.373-2.935,4.33-4.817,7.542-4.817h123.369
				c3.212,0,6.169,1.883,7.533,4.798c1.358,2.939,0.888,6.419-1.193,8.881l-0.097,0.109l-56.583,62.011v57.833l31.887,7.994
				c3.767,0.845,6.492,4.245,6.492,8.114C543.354,327.436,539.627,331.159,535.044,331.159z M452.044,322.312
				c-0.243,0.103-0.394,0.362-0.353,0.627c0.044,0.291,0.289,0.502,0.581,0.502h82.771c0.326,0,0.592-0.261,0.592-0.582
				c0-0.317-0.236-0.534-0.469-0.584l-0.128-0.029l-37.782-9.472v-66.849l58.528-64.143c0.133-0.179,0.157-0.409,0.063-0.611
				c-0.092-0.196-0.304-0.334-0.533-0.334H431.946c-0.229,0-0.441,0.138-0.541,0.351c-0.086,0.186-0.061,0.417,0.072,0.598
				l58.531,64.144v66.843L452.044,322.312z"/>
			<g>
				<g>
					<path fill="#8DC63F" d="M517.802,212.492c-3.66,4.252-11,3.936-16.395-0.702c-5.393-4.645-6.799-11.852-3.139-16.106
						c3.662-4.253,10.998-3.936,16.396,0.702C520.058,201.024,521.46,208.241,517.802,212.492z"/>
					<path fill="#8DC63F" d="M510.762,219.346c-4.183,0-8.398-1.645-11.87-4.629c-6.997-6.026-8.588-15.692-3.549-21.55
						c2.408-2.797,5.947-4.337,9.965-4.337c4.183,0,8.398,1.644,11.872,4.628c3.265,2.809,5.479,6.497,6.236,10.389
						c0.811,4.167-0.169,8.235-2.688,11.163C518.32,217.806,514.781,219.346,510.762,219.346z M505.308,196.55
						c-1.228,0-2.938,0.286-4.114,1.652c-2.226,2.587-0.975,7.471,2.732,10.663c2.04,1.754,4.532,2.761,6.836,2.761
						c1.229,0,2.939-0.286,4.115-1.651c1.325-1.54,1.172-3.576,0.962-4.653c-0.421-2.164-1.767-4.354-3.69-6.01
						C510.105,197.557,507.611,196.55,505.308,196.55z"/>
				</g>
				<path d="M519.817,206.282c-2.006-1.257-4.777-0.805-6.479,1.17c-1.863,2.16-1.734,5.322,0.285,7.056
					c0.18,0.156,0.371,0.286,0.561,0.407c1.395-0.487,2.641-1.286,3.621-2.423C519.278,210.784,519.911,208.594,519.817,206.282z"/>
			</g>
			<g>
				<g>
					<path fill="#8DC63F" d="M498.142,212.805c0,6.257-5.604,11.338-12.51,11.338c-6.91,0-12.516-5.081-12.516-11.338
						c0-6.263,5.605-11.338,12.516-11.338C492.538,201.467,498.142,206.542,498.142,212.805z"/>
					<path fill="#8DC63F" d="M485.632,228.002c-9.029,0-16.375-6.817-16.375-15.197s7.346-15.197,16.375-15.197
						c9.026,0,16.369,6.817,16.369,15.197S494.658,228.002,485.632,228.002z M485.632,205.326c-4.773,0-8.656,3.354-8.656,7.479
						s3.883,7.479,8.656,7.479c4.77,0,8.65-3.354,8.65-7.479S490.401,205.326,485.632,205.326z"/>
				</g>
				<path d="M491.286,214.438c0,2.83-2.533,5.126-5.654,5.126c-3.125,0-5.658-2.296-5.658-5.126c0-2.829,2.533-5.126,5.658-5.126
					C488.753,209.312,491.286,211.608,491.286,214.438z"/>
			</g>
		</g>
		<g>
			<path fill="#010101" d="M500.229,548.726h-6.49v-4.114h17.664v4.114h-6.49v18.634h-4.684V548.726z"/>
			<path fill="#010101" d="M521.538,544.611h4.682v11.643h9.736v-11.643h4.684v22.748h-4.684v-6.924h-9.736v6.924h-4.682V544.611z"
				/>
			<path fill="#010101" d="M552.077,544.611h15.053v4.114h-10.371v7.227h9.133v4.016h-9.133v3.277h10.84v4.114h-15.521V544.611z"/>
			<path fill="#010101" d="M591.948,555.985c0-6.723,4.75-11.643,11.607-11.643c3.715,0,6.391,1.005,8.264,3.146l-3.178,3.146
				c-1.137-1.172-2.441-2.073-5.086-2.073c-4.113,0-6.791,3.177-6.791,7.425s2.744,7.495,7.527,7.495
				c1.473,0,3.279-0.269,4.449-0.837v-3.345h-5.486v-4.116h9.77v9.837c-1.305,1.069-4.584,2.643-8.732,2.643
				C596.866,567.662,591.948,562.711,591.948,555.985z"/>
			<path fill="#010101" d="M640.921,567.359h-5.42l-3.746-5.754c-0.436,0.067-0.904,0.101-1.34,0.101h-1.605v5.653h-4.684v-22.748
				h6.289c6.357,0,10.17,3.045,10.17,8.598c0,3.546-1.572,5.788-4.381,7.059L640.921,567.359z M630.282,557.626
				c3.814,0,5.486-1.204,5.486-4.417c0-3.21-1.74-4.483-5.486-4.483h-1.473v8.9H630.282z"/>
			<path fill="#010101" d="M651.354,544.611h15.055v4.114h-10.371v7.227h9.133v4.016h-9.133v3.277h10.84v4.114h-15.523V544.611z"/>
			<path fill="#010101" d="M686.243,544.41h0.402l10.404,22.949h-4.918l-1.07-2.575h-9.232l-1.07,2.575h-4.518L686.243,544.41z
				 M689.388,560.869l-1.639-3.946c-0.668-1.606-1.371-4.08-1.371-4.08s-0.67,2.474-1.338,4.08l-1.639,3.946H689.388z"/>
			<path fill="#010101" d="M708.823,548.726h-6.492v-4.114h17.664v4.114h-6.49v18.634h-4.682V548.726z"/>
			<path fill="#010101" d="M743.44,555.985c0-6.723,4.752-11.643,11.609-11.643c3.713,0,6.389,1.005,8.264,3.146l-3.18,3.146
				c-1.137-1.172-2.441-2.073-5.084-2.073c-4.115,0-6.791,3.177-6.791,7.425s2.744,7.495,7.527,7.495
				c1.473,0,3.277-0.269,4.449-0.837v-3.345h-5.486v-4.116h9.768v9.837c-1.305,1.069-4.582,2.643-8.73,2.643
				C748.358,567.662,743.44,562.711,743.44,555.985z"/>
			<path fill="#010101" d="M783.282,544.41h0.4l10.402,22.949h-4.916l-1.07-2.575h-9.232l-1.07,2.575h-4.518L783.282,544.41z
				 M786.425,560.869l-1.639-3.946c-0.67-1.606-1.371-4.08-1.371-4.08s-0.67,2.474-1.338,4.08l-1.641,3.946H786.425z"/>
			<path fill="#010101" d="M805.86,548.726h-6.49v-4.114h17.662v4.114h-6.49v18.634h-4.682V548.726z"/>
			<path fill="#010101" d="M825.026,562.879l3.812-2.208c1.004,1.637,2.309,2.844,4.617,2.844c1.939,0,3.176-0.972,3.176-2.31
				c0-1.606-1.27-2.175-3.41-3.112l-1.17-0.501c-3.379-1.438-5.621-3.246-5.621-7.059c0-3.513,2.676-6.19,6.857-6.19
				c2.979,0,5.119,1.038,6.658,3.747l-3.646,2.343c-0.803-1.438-1.674-2.007-3.012-2.007c-1.371,0-2.242,0.87-2.242,2.007
				c0,1.405,0.871,1.973,2.877,2.844l1.174,0.501c3.979,1.707,6.221,3.445,6.221,7.36c0,4.215-3.311,6.524-7.762,6.524
				C829.208,567.662,826.397,565.588,825.026,562.879z"/>
			<path fill="#010101" d="M851.651,544.611h8.799c4.248,0,6.625,2.676,6.625,5.889c0,2.107-1.238,3.546-3.213,4.181
				c3.111,0.736,4.617,2.811,4.617,5.654c0,4.047-2.877,7.024-7.627,7.024h-9.201V544.611z M859.948,553.008
				c1.506,0,2.508-0.834,2.508-2.142c0-1.304-0.836-2.141-2.275-2.141h-3.846v4.282H859.948z M860.651,563.245
				c1.906,0,3.109-1.271,3.109-3.146c0-1.839-1.236-3.109-3.379-3.109h-4.047v6.255H860.651z"/>
			<path fill="#010101" d="M884.532,560.134l-8.631-15.522h5.186l4.014,7.327c0.871,1.606,1.842,4.315,1.842,4.315
				s0.904-2.675,1.771-4.315l3.85-7.327h4.781l-8.094,15.188v7.56h-4.719V560.134z"/>
		</g>
		<g>
			<g>
				<path fill="#FFFFFF" d="M1030.149,252.14c0,24.318-19.713,44.028-44.035,44.028c-24.318,0-44.031-19.71-44.031-44.028
					s19.713-44.028,44.031-44.028C1010.437,208.111,1030.149,227.821,1030.149,252.14z"/>
				<path d="M986.114,300.027c-26.407,0-47.891-21.482-47.891-47.888s21.483-47.888,47.891-47.888
					c26.409,0,47.895,21.482,47.895,47.888S1012.523,300.027,986.114,300.027z M986.114,211.971
					c-22.15,0-40.172,18.02-40.172,40.169s18.021,40.169,40.172,40.169c22.153,0,40.176-18.02,40.176-40.169
					S1008.268,211.971,986.114,211.971z"/>
			</g>
			<g>
				<path fill="#FFFFFF" d="M1144.218,252.14c0,24.318-19.707,44.028-44.035,44.028c-24.316,0-44.031-19.71-44.031-44.028
					s19.715-44.028,44.031-44.028C1124.511,208.111,1144.218,227.821,1144.218,252.14z"/>
				<path d="M1100.183,300.027c-26.407,0-47.891-21.482-47.891-47.888s21.483-47.888,47.891-47.888
					c26.409,0,47.895,21.482,47.895,47.888S1126.592,300.027,1100.183,300.027z M1100.183,211.971
					c-22.15,0-40.172,18.02-40.172,40.169s18.021,40.169,40.172,40.169c22.153,0,40.176-18.02,40.176-40.169
					S1122.336,211.971,1100.183,211.971z"/>
			</g>
			<path fill="#008DA8" d="M1130.419,240.973c1.506,3.749,2.346,7.829,2.346,12.116c0,17.991-14.578,32.575-32.57,32.575
				c-17.994,0-32.592-14.584-32.592-32.575c0-4.101,0.795-8.001,2.17-11.609c0,0,1.602-2.125,5.139-1.994
				c3.535,0.13,28.4-0.926,29.188,1.176c0.787,2.111-15.166,6.895-19.748,8.333c-4.586,1.44-3.889,6.005-2.922,7.854
				c0.979,1.854,11.824,8.096,17.486,7.447c5.672-0.648-1.834-11.67,6.154-12.951c9.062-1.453,7.609,6.483,10.682,8.419
				c3.084,1.939,8.488,6.377,10.205-10.77c0,0-1.139-4.61-4.539-2.504c-3.395,2.106-5.342-1.135-5.178-3.559
				C1116.403,240.499,1122.085,238.691,1130.419,240.973z"/>
			<path fill="#008DA8" d="M959.091,252.229c0,0,3.422,6,10.279,6c6.863,0,14.584-12.86,18.865-6
				c4.285,6.859-4.283,13.715-4.283,13.715s27.439-2.568,29.15-19.716c0.238-2.432-0.691-4.452-2.428-6.141
				c1.904,0.247,3.797,0.538,5.666,0.885c1.504,3.749,2.363,7.829,2.363,12.116c0,17.991-14.59,32.575-32.586,32.575
				c-18,0-32.588-14.584-32.588-32.575c0-4.101,0.797-8.001,2.164-11.609c0,0,1.602-2.125,5.139-1.994
				c3.535,0.13,35.738-2.116,36.521-0.01c0.789,2.104-27.881,5.246-32.467,6.684C960.31,247.596,957.858,249.134,959.091,252.229z"
				/>
			<path d="M1025.751,240.184c0,0,0.128,0.002,0.369,0.006c0.233-0.013,0.592,0.002,1.014-0.044
				c0.235-0.025,0.403-0.022,0.756-0.075c0.345-0.043,0.7-0.116,1.085-0.175c0.375-0.065,0.773-0.135,1.194-0.208
				c0.386-0.047,0.791-0.096,1.215-0.147c0.829-0.129,1.732-0.207,2.663-0.318c0.93-0.111,1.912-0.176,2.906-0.272
				c0.504-0.018,1.008-0.062,1.518-0.102c0.509-0.046,1.028-0.03,1.545-0.069c1.036-0.061,2.085-0.05,3.133-0.071l1.502,0.02
				c0.402,0.002,0.984,0.011,1.544,0.044c0.542,0.039,1.137,0.033,1.632,0.077c0.51,0.039,1.014,0.084,1.518,0.102
				c0.994,0.096,1.977,0.161,2.906,0.272c0.932,0.111,1.835,0.189,2.664,0.319c0.842,0.095,1.621,0.201,2.316,0.312
				c0.7,0.101,1.34,0.156,1.851,0.249c0.51,0.092,0.944,0.119,1.229,0.161c0.294,0.027,0.451,0.042,0.451,0.042l-7.74,13.357
				c0,0-0.036-0.098-0.118-0.264c-0.086-0.158-0.196-0.424-0.38-0.705c-0.172-0.3-0.402-0.641-0.702-0.99
				c-0.146-0.185-0.312-0.361-0.486-0.561c-0.183-0.18-0.384-0.351-0.594-0.543c-0.419-0.388-0.92-0.72-1.467-1.062
				c-0.55-0.333-1.164-0.616-1.816-0.872c-0.661-0.227-1.373-0.458-1.997-0.551c-0.321-0.058-0.626-0.151-1.121-0.155l-0.672-0.037
				l-0.336-0.018l-0.169-0.01l-0.084-0.004l-0.042-0.003l-0.021-0.001h-0.011c-0.141-0.003,0.181,0.002,0.144,0.002
				c-0.748,0.06-1.503,0.047-2.226,0.219c-0.729,0.1-1.424,0.334-2.083,0.559c-0.652,0.257-1.268,0.539-1.817,0.872
				c-0.547,0.343-1.048,0.675-1.467,1.062c-0.21,0.192-0.412,0.363-0.595,0.543c-0.145,0.187-0.277,0.349-0.394,0.517
				c-0.114,0.169-0.226,0.31-0.312,0.464c-0.08,0.141-0.285,0.372-0.4,0.526c-0.271,0.327-0.457,0.634-0.596,0.821
				c-0.131,0.203-0.2,0.312-0.2,0.312L1025.751,240.184z"/>
			<path d="M1138.845,230.329c0,0,1.4,7.845,12.943,7.845c11.541,0,12.352,4.347,12.352,9.925c0,5.583-1.801,9.93-11.023,9.93
				c-9.219,0-11.713,9.625-11.713,9.625S1152.876,246.279,1138.845,230.329z"/>
			<path d="M946.794,230.329c0,0-4.711,7.87-12.766,7.845c-11.543-0.025-12.35,4.347-12.35,9.925c0,5.583,1.799,9.93,11.016,9.93
				c9.221,0,11.717,9.625,11.717,9.625S932.759,246.279,946.794,230.329z"/>
		</g>
		<g>
			<g>
				<path d="M697.308,326.23c-0.146,7.151-6.066,12.824-13.219,12.679l-2.816-0.055c-7.148-0.151-12.826-6.066-12.682-13.217
					l1.137-54.799c0.146-7.151,6.064-12.824,13.219-12.685l2.816,0.062c7.146,0.149,12.826,6.07,12.68,13.216L697.308,326.23z"/>
				<path d="M826.673,326.23c-0.143,7.151-6.064,12.824-13.217,12.679l-2.814-0.055c-7.15-0.151-12.83-6.066-12.68-13.217
					l1.137-54.799c0.145-7.151,6.066-12.824,13.217-12.685l2.814,0.062c7.15,0.149,12.83,6.07,12.682,13.216L826.673,326.23z"/>
			</g>
			<g>
				<g>
					<path fill="#008DA8" d="M661.255,285.062c0-15.207,12.326-27.53,27.529-27.53c15.207,0,27.535,12.323,27.535,27.53H661.255z"/>
					<path d="M720.179,288.921h-62.783v-3.859c0-17.309,14.081-31.39,31.389-31.39c17.312,0,31.395,14.081,31.395,31.39V288.921z
						 M665.429,281.202h46.717c-1.849-11.224-11.62-19.812-23.361-19.812C677.046,261.391,667.276,269.979,665.429,281.202z"/>
				</g>
				<g>
					<path fill="#008DA8" d="M780.087,285.062c0-15.207,12.326-27.53,27.529-27.53c15.207,0,27.533,12.323,27.533,27.53H780.087z"/>
					<path d="M839.009,288.921h-62.781v-3.859c0-17.309,14.081-31.39,31.389-31.39c17.31,0,31.393,14.081,31.393,31.39V288.921z
						 M784.261,281.202h46.715c-1.849-11.224-11.619-19.812-23.359-19.812C795.878,261.391,786.108,269.979,784.261,281.202z"/>
				</g>
			</g>
			<g>
				<polygon fill="#008DA8" points="787.479,300.147 708.923,300.147 708.923,203.308 738.929,186.033 760.157,186.033 
					787.479,203.308 				"/>
				<path d="M791.339,304.007h-86.275V201.076l32.834-18.902h23.378l30.063,19.008V304.007z M712.782,296.288h70.838v-90.854
					l-24.581-15.541H739.96l-27.178,15.646V296.288z"/>
			</g>
			<polygon fill="#8DC63F" points="708.923,273.241 778.091,197.371 787.479,203.308 787.479,300.147 708.923,300.147 			"/>
			<path d="M791.339,304.007h-86.275V201.076l32.834-18.902h23.378l30.063,19.008V304.007z M712.782,296.288h70.838v-90.854
				l-24.581-15.541H739.96l-27.178,15.646V296.288z"/>
			<g>
				<line fill="#FFFFFF" x1="725.007" y1="214.001" x2="725.007" y2="289.458"/>
				<rect x="721.147" y="214.001" width="7.719" height="75.457"/>
			</g>
			<g>
				<line fill="#FFFFFF" x1="740.831" y1="214.001" x2="740.831" y2="289.458"/>
				<rect x="736.972" y="214.001" width="7.719" height="75.457"/>
			</g>
			<g>
				<line fill="#FFFFFF" x1="756.651" y1="214.001" x2="756.651" y2="289.458"/>
				<rect x="752.792" y="214.001" width="7.719" height="75.457"/>
			</g>
			<g>
				<line fill="#FFFFFF" x1="772.474" y1="214.001" x2="772.474" y2="289.458"/>
				<rect x="768.614" y="214.001" width="7.719" height="75.457"/>
			</g>
			<g>
				<path fill="#008DA8" d="M837.157,316.179c0,1.469-1.188,2.649-2.654,2.649H661.897c-1.463,0-2.648-1.181-2.648-2.649v-13.378
					c0-1.468,1.186-2.653,2.648-2.653h172.605c1.467,0,2.654,1.186,2.654,2.653V316.179z"/>
				<path d="M834.503,322.688H661.897c-3.589,0-6.508-2.92-6.508-6.509v-13.378c0-3.591,2.919-6.513,6.508-6.513h172.605
					c3.592,0,6.514,2.922,6.514,6.513v13.378C841.017,319.768,838.095,322.688,834.503,322.688z M663.108,314.969h170.189v-10.962
					H663.108V314.969z"/>
			</g>
			<path d="M758.015,167.475l-0.08-0.312c-0.311-1.703-1.611-1.795-1.867-1.795c-0.797,0-1.484,0.513-1.893,1.412l-0.143,0.578
				c-0.004,0.071-0.475,6.79-4.734,8.81c-0.406,0.197-0.764,0.423-1.096,0.674c-0.334-0.251-0.691-0.477-1.098-0.674
				c-4.26-2.02-4.729-8.738-4.734-8.81l-0.143-0.578c-0.408-0.899-1.094-1.412-1.893-1.412c-0.256,0-1.555,0.092-1.863,1.775
				l-0.086,0.331c-2.623,10.065-0.762,15.308,1.266,17.931c1.443,1.865,3.477,3.051,5.994,3.634l0.084,0.448h1.359
				c0.393,0,0.734-0.076,1.113-0.097c0.379,0.021,0.717,0.097,1.113,0.097h1.357l0.086-0.448c2.518-0.583,4.547-1.769,5.992-3.634
				C758.778,182.782,760.642,177.54,758.015,167.475z"/>
			<path fill="#8DC63F" d="M699.257,317.717c0,0,8.312-14.322,10.793-14.875c2.475-0.549,42.684,0,42.684,0l-10.463,12.398
				l8.83,0.547l16.779-13.187h12.207l-18.816,17.865L699.257,317.717z"/>
			<path d="M834.503,322.688H661.897c-3.589,0-6.508-2.92-6.508-6.509v-13.378c0-3.591,2.919-6.513,6.508-6.513h172.605
				c3.592,0,6.514,2.922,6.514,6.513v13.378C841.017,319.768,838.095,322.688,834.503,322.688z M663.108,314.969h170.189v-10.962
				H663.108V314.969z"/>
			<g>
				<g>
					<path fill="#FFFFFF" d="M724.687,242.565c0,14.047-11.387,25.429-25.43,25.429c-14.045,0-25.426-11.382-25.426-25.429
						c0-14.042,11.381-25.43,25.426-25.43C713.3,217.136,724.687,228.523,724.687,242.565z"/>
					<path d="M699.257,271.854c-16.148,0-29.285-13.139-29.285-29.288c0-16.15,13.137-29.289,29.285-29.289
						c16.15,0,29.289,13.139,29.289,29.289C728.546,258.715,715.407,271.854,699.257,271.854z M699.257,220.995
						c-11.892,0-21.566,9.677-21.566,21.57s9.675,21.569,21.566,21.569c11.894,0,21.57-9.676,21.57-21.569
						S711.15,220.995,699.257,220.995z"/>
				</g>
				<g>
					<path fill="#FFFFFF" d="M822.573,242.565c0,14.047-11.385,25.429-25.428,25.429s-25.428-11.382-25.428-25.429
						c0-14.042,11.385-25.43,25.428-25.43S822.573,228.523,822.573,242.565z"/>
					<path d="M797.146,271.854c-16.149,0-29.287-13.139-29.287-29.288c0-16.15,13.138-29.289,29.287-29.289
						s29.287,13.139,29.287,29.289C826.433,258.715,813.295,271.854,797.146,271.854z M797.146,220.995
						c-11.893,0-21.568,9.677-21.568,21.57s9.676,21.569,21.568,21.569s21.568-9.676,21.568-21.569S809.038,220.995,797.146,220.995
						z"/>
				</g>
			</g>
			<path fill="#8DC63F" d="M781.515,258.005c-0.217-0.453,1.965-13.806,9.527-11.152c7.566,2.648-4.053,15.036-4.789,14.755
				C784.269,260.848,781.731,258.45,781.515,258.005z"/>
			<path fill="#8DC63F" d="M795.345,228.905c-5.439,1.746-4.908,6.377-2.945,11.434c1.744,4.483,10.615,2.91,10.814-3.949
				C803.415,229.524,798.931,227.766,795.345,228.905z"/>
			<path fill="#8DC63F" d="M803.274,248.762c1.508-1.271,5.639-6.774,7.568-4.302c0,0,3.029,5.82-6.061,10.207
				C795.696,259.06,803.274,248.762,803.274,248.762z"/>
		</g>
		<g>
			<g>
				<path fill="#010101" d="M243.478,440.232c0,2.105-1.705,3.809-3.809,3.809c-2.105,0-3.809-1.703-3.809-3.809
					c0-2.101,1.703-3.81,3.809-3.81C241.772,436.423,243.478,438.132,243.478,440.232z"/>
			</g>
			<g>
				<path fill="#010101" d="M262.603,440.232c0,2.105-1.707,3.809-3.812,3.809c-2.1,0-3.807-1.703-3.807-3.809
					c0-2.101,1.707-3.81,3.807-3.81C260.896,436.423,262.603,438.132,262.603,440.232z"/>
			</g>
			<g>
				<path fill="#010101" d="M281.728,440.232c0,2.105-1.703,3.809-3.809,3.809c-2.102,0-3.811-1.703-3.811-3.809
					c0-2.101,1.709-3.81,3.811-3.81C280.024,436.423,281.728,438.132,281.728,440.232z"/>
			</g>
			<g>
				<path fill="#010101" d="M300.854,440.232c0,2.105-1.703,3.809-3.811,3.809c-2.102,0-3.809-1.703-3.809-3.809
					c0-2.101,1.707-3.81,3.809-3.81C299.151,436.423,300.854,438.132,300.854,440.232z"/>
			</g>
			<g>
				<path fill="#010101" d="M319.981,440.232c0,2.105-1.703,3.809-3.809,3.809c-2.104,0-3.811-1.703-3.811-3.809
					c0-2.101,1.707-3.81,3.811-3.81C318.278,436.423,319.981,438.132,319.981,440.232z"/>
			</g>
			<g>
				<path fill="#010101" d="M339.108,440.232c0,2.105-1.709,3.809-3.814,3.809c-2.1,0-3.809-1.703-3.809-3.809
					c0-2.101,1.709-3.81,3.809-3.81C337.399,436.423,339.108,438.132,339.108,440.232z"/>
			</g>
			<g>
				<path fill="#010101" d="M358.229,440.232c0,2.105-1.703,3.809-3.809,3.809c-2.1,0-3.809-1.703-3.809-3.809
					c0-2.101,1.709-3.81,3.809-3.81C356.526,436.423,358.229,438.132,358.229,440.232z"/>
			</g>
			<g>
				<path fill="#010101" d="M377.358,440.232c0,2.105-1.705,3.809-3.811,3.809c-2.102,0-3.809-1.703-3.809-3.809
					c0-2.101,1.707-3.81,3.809-3.81C375.653,436.423,377.358,438.132,377.358,440.232z"/>
			</g>
			<g>
				<path fill="#010101" d="M396.485,440.232c0,2.105-1.709,3.809-3.811,3.809c-2.105,0-3.809-1.703-3.809-3.809
					c0-2.101,1.703-3.81,3.809-3.81C394.776,436.423,396.485,438.132,396.485,440.232z"/>
			</g>
			<g>
				<path fill="#010101" d="M415.61,440.232c0,2.105-1.707,3.809-3.812,3.809c-2.102,0-3.807-1.703-3.807-3.809
					c0-2.101,1.705-3.81,3.807-3.81C413.903,436.423,415.61,438.132,415.61,440.232z"/>
			</g>
			<g>
				<path fill="#010101" d="M434.733,440.232c0,2.105-1.703,3.809-3.809,3.809c-2.102,0-3.811-1.703-3.811-3.809
					c0-2.101,1.709-3.81,3.811-3.81C433.03,436.423,434.733,438.132,434.733,440.232z"/>
			</g>
			<g>
				<path fill="#010101" d="M453.86,440.232c0,2.105-1.703,3.809-3.809,3.809c-2.1,0-3.809-1.703-3.809-3.809
					c0-2.101,1.709-3.81,3.809-3.81C452.157,436.423,453.86,438.132,453.86,440.232z"/>
			</g>
			<g>
				<path fill="#010101" d="M472.987,440.232c0,2.105-1.703,3.809-3.809,3.809c-2.104,0-3.809-1.703-3.809-3.809
					c0-2.101,1.705-3.81,3.809-3.81C471.284,436.423,472.987,438.132,472.987,440.232z"/>
			</g>
			<g>
				<path fill="#010101" d="M492.112,440.232c0,2.105-1.705,3.809-3.809,3.809s-3.809-1.703-3.809-3.809
					c0-2.101,1.705-3.81,3.809-3.81S492.112,438.132,492.112,440.232z"/>
			</g>
			<g>
				<path fill="#010101" d="M511.237,440.232c0,2.105-1.703,3.809-3.809,3.809c-2.102,0-3.811-1.703-3.811-3.809
					c0-2.101,1.709-3.81,3.811-3.81C509.534,436.423,511.237,438.132,511.237,440.232z"/>
			</g>
			<g>
				<path fill="#010101" d="M549.491,440.232c0,2.105-1.705,3.809-3.811,3.809c-2.104,0-3.809-1.703-3.809-3.809
					c0-2.101,1.705-3.81,3.809-3.81C547.786,436.423,549.491,438.132,549.491,440.232z"/>
			</g>
			<g>
				<path fill="#010101" d="M530.364,440.232c0,2.105-1.703,3.809-3.809,3.809c-2.104,0-3.811-1.703-3.811-3.809
					c0-2.101,1.707-3.81,3.811-3.81C528.661,436.423,530.364,438.132,530.364,440.232z"/>
			</g>
			<g>
				<path fill="#010101" d="M568.616,440.232c0,2.105-1.703,3.809-3.811,3.809c-2.102,0-3.809-1.703-3.809-3.809
					c0-2.101,1.707-3.81,3.809-3.81C566.913,436.423,568.616,438.132,568.616,440.232z"/>
			</g>
			<g>
				<path fill="#010101" d="M587.741,440.232c0,2.105-1.705,3.809-3.811,3.809c-2.1,0-3.809-1.703-3.809-3.809
					c0-2.101,1.709-3.81,3.809-3.81C586.036,436.423,587.741,438.132,587.741,440.232z"/>
			</g>
			<g>
				<path fill="#010101" d="M606.868,440.232c0,2.105-1.703,3.809-3.811,3.809c-2.1,0-3.809-1.703-3.809-3.809
					c0-2.101,1.709-3.81,3.809-3.81C605.165,436.423,606.868,438.132,606.868,440.232z"/>
			</g>
			<g>
				<path fill="#010101" d="M664.243,440.232c0,2.105-1.703,3.809-3.809,3.809c-2.1,0-3.809-1.703-3.809-3.809
					c0-2.101,1.709-3.81,3.809-3.81C662.54,436.423,664.243,438.132,664.243,440.232z"/>
			</g>
			<g>
				<path fill="#010101" d="M702.499,440.232c0,2.105-1.705,3.809-3.812,3.809c-2.104,0-3.807-1.703-3.807-3.809
					c0-2.101,1.703-3.81,3.807-3.81C700.794,436.423,702.499,438.132,702.499,440.232z"/>
			</g>
			<g>
				<path fill="#010101" d="M740.747,440.232c0,2.105-1.703,3.809-3.809,3.809c-2.102,0-3.811-1.703-3.811-3.809
					c0-2.101,1.709-3.81,3.811-3.81C739.044,436.423,740.747,438.132,740.747,440.232z"/>
			</g>
			<g>
				<path fill="#010101" d="M759.874,440.232c0,2.105-1.703,3.809-3.809,3.809c-2.104,0-3.809-1.703-3.809-3.809
					c0-2.101,1.705-3.81,3.809-3.81C758.171,436.423,759.874,438.132,759.874,440.232z"/>
			</g>
			<g>
				<path fill="#010101" d="M798.128,440.232c0,2.105-1.707,3.809-3.814,3.809c-2.1,0-3.809-1.703-3.809-3.809
					c0-2.101,1.709-3.81,3.809-3.81C796.421,436.423,798.128,438.132,798.128,440.232z"/>
			</g>
			<g>
				<path fill="#010101" d="M836.378,440.232c0,2.105-1.705,3.809-3.809,3.809s-3.811-1.703-3.811-3.809
					c0-2.101,1.707-3.81,3.811-3.81S836.378,438.132,836.378,440.232z"/>
			</g>
			<g>
				<path fill="#010101" d="M625.995,440.232c0,2.105-1.707,3.809-3.809,3.809c-2.107,0-3.811-1.703-3.811-3.809
					c0-2.101,1.703-3.81,3.811-3.81C624.288,436.423,625.995,438.132,625.995,440.232z"/>
			</g>
			<g>
				<path fill="#010101" d="M645.12,440.232c0,2.105-1.707,3.809-3.811,3.809s-3.809-1.703-3.809-3.809
					c0-2.101,1.705-3.81,3.809-3.81S645.12,438.132,645.12,440.232z"/>
			</g>
			<g>
				<path fill="#010101" d="M683.372,440.232c0,2.105-1.705,3.809-3.811,3.809c-2.104,0-3.809-1.703-3.809-3.809
					c0-2.101,1.705-3.81,3.809-3.81C681.667,436.423,683.372,438.132,683.372,440.232z"/>
			</g>
			<g>
				<path fill="#010101" d="M721.624,440.232c0,2.105-1.705,3.809-3.811,3.809c-2.104,0-3.809-1.703-3.809-3.809
					c0-2.101,1.705-3.81,3.809-3.81C719.919,436.423,721.624,438.132,721.624,440.232z"/>
			</g>
			<g>
				<path fill="#010101" d="M779.003,440.232c0,2.105-1.707,3.809-3.811,3.809c-2.105,0-3.811-1.703-3.811-3.809
					c0-2.101,1.705-3.81,3.811-3.81C777.296,436.423,779.003,438.132,779.003,440.232z"/>
			</g>
			<g>
				<path fill="#010101" d="M817.251,440.232c0,2.105-1.705,3.809-3.811,3.809c-2.1,0-3.809-1.703-3.809-3.809
					c0-2.101,1.709-3.81,3.809-3.81C815.546,436.423,817.251,438.132,817.251,440.232z"/>
			</g>
			<g>
				<path fill="#010101" d="M855.505,440.232c0,2.105-1.703,3.809-3.811,3.809c-2.1,0-3.809-1.703-3.809-3.809
					c0-2.101,1.709-3.81,3.809-3.81C853.802,436.423,855.505,438.132,855.505,440.232z"/>
			</g>
			<g>
				<path fill="#010101" d="M874.626,440.232c0,2.105-1.697,3.809-3.805,3.809c-2.104,0-3.809-1.703-3.809-3.809
					c0-2.101,1.705-3.81,3.809-3.81C872.929,436.423,874.626,438.132,874.626,440.232z"/>
			</g>
			<g>
				<path fill="#010101" d="M893.753,440.232c0,2.105-1.703,3.809-3.809,3.809c-2.1,0-3.809-1.703-3.809-3.809
					c0-2.101,1.709-3.81,3.809-3.81C892.05,436.423,893.753,438.132,893.753,440.232z"/>
			</g>
			<g>
				<path fill="#010101" d="M912.882,440.232c0,2.105-1.705,3.809-3.809,3.809c-2.107,0-3.811-1.703-3.811-3.809
					c0-2.101,1.703-3.81,3.811-3.81C911.177,436.423,912.882,438.132,912.882,440.232z"/>
			</g>
			<g>
				<path fill="#010101" d="M932.009,440.232c0,2.105-1.709,3.809-3.811,3.809c-2.105,0-3.809-1.703-3.809-3.809
					c0-2.101,1.703-3.81,3.809-3.81C930.3,436.423,932.009,438.132,932.009,440.232z"/>
			</g>
			<g>
				<path fill="#010101" d="M951.13,440.232c0,2.105-1.703,3.809-3.809,3.809c-2.102,0-3.811-1.703-3.811-3.809
					c0-2.101,1.709-3.81,3.811-3.81C949.427,436.423,951.13,438.132,951.13,440.232z"/>
			</g>
			<g>
				<path fill="#010101" d="M970.257,440.232c0,2.105-1.703,3.809-3.809,3.809c-2.102,0-3.809-1.703-3.809-3.809
					c0-2.101,1.707-3.81,3.809-3.81C968.554,436.423,970.257,438.132,970.257,440.232z"/>
			</g>
			<g>
				<path fill="#010101" d="M989.384,440.232c0,2.105-1.703,3.809-3.809,3.809c-2.107,0-3.811-1.703-3.811-3.809
					c0-2.101,1.703-3.81,3.811-3.81C987.681,436.423,989.384,438.132,989.384,440.232z"/>
			</g>
			<g>
				<path fill="#010101" d="M1008.513,440.232c0,2.105-1.709,3.809-3.816,3.809c-2.1,0-3.809-1.703-3.809-3.809
					c0-2.101,1.709-3.81,3.809-3.81C1006.804,436.423,1008.513,438.132,1008.513,440.232z"/>
			</g>
			<g>
				<path fill="#010101" d="M1027.634,440.232c0,2.105-1.703,3.809-3.811,3.809c-2.1,0-3.809-1.703-3.809-3.809
					c0-2.101,1.709-3.81,3.809-3.81C1025.931,436.423,1027.634,438.132,1027.634,440.232z"/>
			</g>
			<g>
				<path fill="#010101" d="M1046.761,440.232c0,2.105-1.705,3.809-3.809,3.809c-2.102,0-3.811-1.703-3.811-3.809
					c0-2.101,1.709-3.81,3.811-3.81C1045.056,436.423,1046.761,438.132,1046.761,440.232z"/>
			</g>
			<g>
				<path fill="#010101" d="M1065.888,440.232c0,2.105-1.703,3.809-3.809,3.809c-2.102,0-3.811-1.703-3.811-3.809
					c0-2.101,1.709-3.81,3.811-3.81C1064.185,436.423,1065.888,438.132,1065.888,440.232z"/>
			</g>
			<g>
				<path fill="#010101" d="M1085.011,440.232c0,2.105-1.699,3.809-3.811,3.809c-2.1,0-3.805-1.703-3.805-3.809
					c0-2.101,1.705-3.81,3.805-3.81C1083.312,436.423,1085.011,438.132,1085.011,440.232z"/>
			</g>
			<g>
				<path fill="#010101" d="M1104.136,440.232c0,2.105-1.703,3.809-3.809,3.809c-2.1,0-3.809-1.703-3.809-3.809
					c0-2.101,1.709-3.81,3.809-3.81C1102.433,436.423,1104.136,438.132,1104.136,440.232z"/>
			</g>
			<g>
				<path fill="#010101" d="M1123.265,440.232c0,2.105-1.705,3.809-3.811,3.809c-2.1,0-3.809-1.703-3.809-3.809
					c0-2.101,1.709-3.81,3.809-3.81C1121.56,436.423,1123.265,438.132,1123.265,440.232z"/>
			</g>
			<g>
				<path fill="#010101" d="M1142.392,440.232c0,2.105-1.709,3.809-3.809,3.809c-2.107,0-3.811-1.703-3.811-3.809
					c0-2.101,1.703-3.81,3.811-3.81C1140.683,436.423,1142.392,438.132,1142.392,440.232z"/>
			</g>
			<g>
				<path fill="#010101" d="M1161.519,440.232c0,2.105-1.703,3.809-3.811,3.809c-2.105,0-3.809-1.703-3.809-3.809
					c0-2.101,1.703-3.81,3.809-3.81C1159.815,436.423,1161.519,438.132,1161.519,440.232z"/>
			</g>
		</g>
		<g>
			<g>
				<path fill="#8DC63F" d="M279.579,164.093c-31.16,0-41.1,21.176-41.1,43.893c0,22.71,16.471,87.151,16.471,87.151h49.744
					c0,0,16.473-70.387,16.473-87.151C321.167,191.215,310.739,164.093,279.579,164.093z"/>
				<path d="M279.579,171.812c11.345,0,20.177,4.205,26.252,12.499c5.616,7.667,7.616,17.257,7.616,23.674
					c0,11.852-9.732,56.867-14.892,79.433h-37.573c-3.979-16.199-14.783-61.811-14.783-79.433c0-7.526,1.252-18.094,7.219-25.701
					C258.869,175.336,267.671,171.812,279.579,171.812 M279.579,164.093c-31.16,0-41.1,21.176-41.1,43.893
					c0,22.71,16.471,87.151,16.471,87.151h49.744c0,0,16.473-70.387,16.473-87.151C321.167,191.215,310.739,164.093,279.579,164.093
					L279.579,164.093z"/>
			</g>
			<polygon points="293.534,340.19 265.856,340.19 262.917,329.611 296.478,329.611 			"/>
			<path d="M258.511,324.391c-2.016,0-3.712-1.564-3.848-3.604c-0.141-2.127,1.47-3.966,3.597-4.106l42.619-2.819
				c2.12-0.132,3.965,1.47,4.106,3.597c0.141,2.127-1.47,3.966-3.597,4.106l-42.619,2.819
				C258.683,324.388,258.597,324.391,258.511,324.391z"/>
			<path d="M258.511,312.816c-2.016,0-3.712-1.564-3.848-3.604c-0.141-2.127,1.47-3.965,3.597-4.106l42.619-2.824
				c2.12-0.111,3.965,1.47,4.106,3.597c0.141,2.127-1.47,3.965-3.597,4.106l-42.619,2.824
				C258.683,312.813,258.597,312.816,258.511,312.816z"/>
			<path d="M299.698,334.271h-40.002c-4.292,0-7.783-3.492-7.783-7.784v-26.305c0-4.292,3.491-7.784,7.783-7.784h40.002
				c4.29,0,7.779,3.492,7.779,7.784v26.305C307.478,330.779,303.988,334.271,299.698,334.271z M259.696,300.117l-0.064,26.37
				l40.066,0.065c0.028,0,0.061-0.028,0.061-0.065v-26.305L259.696,300.117z"/>
			<path d="M273.789,299.969c-1.928,0-3.594-1.442-3.827-3.404l-8.957-75.206l12.603,11.731l5.973-8.385l5.969,8.384l12.128-11.292
				l-5.729,74.607c-0.164,2.125-2.001,3.707-4.145,3.553c-2.125-0.164-3.716-2.019-3.553-4.145l4.216-54.893l-4.099,3.817
				l-4.789-6.726l-4.789,6.725l-3.628-3.378l6.465,54.294c0.253,2.116-1.259,4.036-3.376,4.288
				C274.096,299.959,273.941,299.969,273.789,299.969z"/>
		</g>
	</g>
</g>
<g id="big_lebowski">
</g>
<g id="_x32_001">
</g>
<g id="life_aquatic">
</g>
<g id="hobbit">
</g>
<g id="reservoir_dogs">
</g>
<g id="akira">
</g>
</svg>
