<?xml version="1.0" encoding="utf-8"?>
<!-- Generator: Adobe Illustrator 16.0.0, SVG Export Plug-In . SVG Version: 6.00 Build 0)  -->
<!DOCTYPE svg PUBLIC "-//W3C//DTD SVG 1.1//EN" "http://www.w3.org/Graphics/SVG/1.1/DTD/svg11.dtd">
<svg version="1.1" xmlns="http://www.w3.org/2000/svg" xmlns:xlink="http://www.w3.org/1999/xlink" x="0px" y="0px" width="1400px"
	 height="700px" viewBox="0 0 1400 700" enable-background="new 0 0 1400 700" xml:space="preserve">
<g id="romeo_and_juliet">
</g>
<g id="gatsby">
</g>
<g id="big_lebowski">
</g>
<g id="_x32_001">
</g>
<g id="life_aquatic">
</g>
<g id="hobbit">
	<g>
		<g>
			<path fill="#010101" d="M560.224,546.24c-2.084,0-3.359,0.389-3.975,0.54l1.427-3.936c0.386-1.119,0.579-1.233,2.045-1.233
				h16.557c1.428,0,3.126,0,4.555-0.118l-1.159,3.552c-0.347,1.195-0.54,1.195-2.2,1.195h-6.059v15.479
				c0,3.048,0.154,3.975,1.042,5.635h-8.028c0.849-1.545,1.041-2.394,1.041-5.635V546.24H560.224z"/>
			<path fill="#010101" d="M605.92,551.298v-4.092c0-3.627-0.423-4.439-1.118-5.595h8.221c-0.695,1.194-1.12,1.968-1.12,5.595
				v14.551c0,3.047,0.154,3.977,1.041,5.598h-8.066c0.772-1.353,1.042-2.161,1.042-5.598v-5.402h-8.452v5.402
				c0,3.09,0.155,4.053,1.041,5.598h-8.027c0.772-1.353,1.042-2.161,1.042-5.598v-14.551c0-3.627-0.462-4.439-1.118-5.595h8.182
				c-0.695,1.155-1.12,1.968-1.12,5.595v4.092H605.92z"/>
			<path fill="#010101" d="M638.031,556.161c-0.965-0.114-2.276-0.114-2.778-0.114h-3.358v6.639h5.48
				c2.162,0,2.856-0.196,3.705-0.468l-0.849,3.978c-0.232,1.159-0.425,1.159-2.046,1.159c-1.235,0-6.561-0.079-7.642-0.079
				c-1.93,0-3.165,0.039-5.48,0.079c0.733-1.313,1.042-2.086,1.042-5.598V547.13c0-3.512-0.425-4.363-1.118-5.637
				c0.308,0,0.656,0.042,1.157,0.078c0.501,0,1.159,0.04,2.045,0.04h9.841c1.39,0,1.429,0,1.468,1.119l0.231,3.975
				c-0.54-0.229-1.08-0.465-3.01-0.465h-4.825v5.29h3.744c0.926,0,1.66-0.079,2.392-0.232V556.161z"/>
			<path fill="#010101" d="M684.848,551.298v-4.092c0-3.627-0.423-4.439-1.118-5.595h8.221c-0.695,1.194-1.12,1.968-1.12,5.595
				v14.551c0,3.047,0.154,3.977,1.041,5.598h-8.066c0.771-1.353,1.042-2.161,1.042-5.598v-5.402h-8.452v5.402
				c0,3.09,0.155,4.053,1.041,5.598h-8.027c0.771-1.353,1.042-2.161,1.042-5.598v-14.551c0-3.627-0.462-4.439-1.119-5.595h8.182
				c-0.695,1.155-1.12,1.968-1.12,5.595v4.092H684.848z"/>
			<path fill="#010101" d="M704.688,561.448c-1.004-2.238-1.466-4.71-1.466-7.14c0-2.857,0.732-7.063,3.742-9.919
				c1.969-1.853,4.748-3.09,9.07-3.09c5.828,0,8.221,1.777,9.533,3.09c2.084,2.044,3.706,5.094,3.706,9.919
				c0,2.007-0.309,6.214-2.741,9.34c-2.74,3.474-7.488,4.014-10.266,4.014C709.512,567.662,706.269,564.922,704.688,561.448z
				 M721.708,560.446c1.312-1.816,1.544-4.441,1.544-5.947c0-3.126-0.81-8.373-6.985-8.373c-6.175,0-6.986,5.289-6.986,8.373
				c0,1.47,0.192,4.092,1.544,5.947c1.467,2.043,4.09,2.43,5.442,2.43C717.578,562.876,720.242,562.489,721.708,560.446z"/>
			<path fill="#010101" d="M741.43,547.016c0-2.124,0-3.437-0.81-4.981l5.557-0.81c0.155,0.462,0.193,0.579,0.387,1.467
				c1.195-0.54,2.353-1.08,4.206-1.08c4.747,0,6.639,3.473,6.639,6.753c0,3.205-1.738,4.4-2.857,5.211
				c1.082,0.502,3.822,1.775,3.822,5.906c0,4.242-3.243,7.873-9.032,7.873c-0.848,0-4.516-0.079-5.287-0.079
				c-1.544,0-2.394,0.039-3.667,0.079c0.848-1.545,1.042-2.394,1.042-5.635V547.016z M746.988,551.916
				c0.423,0.039,0.926,0.114,1.466,0.114c2.046,0,3.821-0.965,3.821-3.318c0-2.083-1.544-3.049-3.126-3.049
				c-0.849,0-1.428,0.271-2.161,0.655V551.916z M746.988,563.105c0.423,0.042,0.848,0.12,1.466,0.12
				c3.011,0,4.322-1.623,4.322-3.901c0-3.745-3.318-3.745-4.322-3.745c-0.27,0-0.579,0-1.466,0.043V563.105z"/>
			<path fill="#010101" d="M770.493,547.016c0-2.124,0-3.437-0.811-4.981l5.557-0.81c0.155,0.462,0.194,0.579,0.387,1.467
				c1.197-0.54,2.354-1.08,4.207-1.08c4.747,0,6.639,3.473,6.639,6.753c0,3.205-1.738,4.4-2.856,5.211
				c1.08,0.502,3.822,1.775,3.822,5.906c0,4.242-3.244,7.873-9.033,7.873c-0.848,0-4.516-0.079-5.287-0.079
				c-1.543,0-2.393,0.039-3.665,0.079c0.848-1.545,1.041-2.394,1.041-5.635V547.016z M776.05,551.916
				c0.424,0.039,0.927,0.114,1.467,0.114c2.045,0,3.821-0.965,3.821-3.318c0-2.083-1.545-3.049-3.126-3.049
				c-0.85,0-1.43,0.271-2.162,0.655V551.916z M776.05,563.105c0.424,0.042,0.849,0.12,1.467,0.12c3.011,0,4.322-1.623,4.322-3.901
				c0-3.745-3.318-3.745-4.322-3.745c-0.27,0-0.579,0-1.467,0.043V563.105z"/>
			<path fill="#010101" d="M806.85,541.611c-0.695,1.194-1.119,1.968-1.119,5.595v14.514c0,3.048,0.153,3.975,1.041,5.635h-8.027
				c0.811-1.47,1.041-2.239,1.041-5.635v-14.514c0-3.667-0.461-4.439-1.117-5.595H806.85z"/>
			<path fill="#010101" d="M820.398,546.24c-2.086,0-3.359,0.389-3.977,0.54l1.428-3.936c0.387-1.119,0.579-1.233,2.046-1.233
				h16.558c1.427,0,3.126,0,4.555-0.118l-1.158,3.552c-0.348,1.195-0.541,1.195-2.2,1.195h-6.06v15.479
				c0,3.048,0.154,3.975,1.043,5.635h-8.028c0.85-1.545,1.041-2.394,1.041-5.635V546.24H820.398z"/>
		</g>
		<polygon points="497.96,347.339 481.152,332.485 516.169,293.823 532.972,308.673 		"/>
		<g>
			<g>
				<polygon points="1016.841,340.568 1033.39,272.313 1042.459,273.529 1058.83,203.788 1068.083,205.21 1083.739,156.819 
					1105.09,232.966 1117.186,227.983 1146.365,340.568 				"/>
				<path d="M1083.739,156.819l21.352,76.146l12.096-4.982l29.179,112.585h-129.523l16.549-68.255l9.069,1.216l16.37-69.741
					l9.253,1.422L1083.739,156.819 M1084.267,130.111l-7.873,24.332l-13.633,42.139l-2.759-0.424l-7.056-1.084l-1.631,6.95
					l-14.771,62.924l-2.129-0.285l-6.89-0.924l-1.638,6.755l-16.549,68.256l-2.312,9.537h9.814h129.523h9.975l-2.502-9.655
					l-29.179-112.585l-2.222-8.574l-8.19,3.373l-4.067,1.676l-19.007-67.786L1084.267,130.111L1084.267,130.111z"/>
			</g>
			<g>
				<polygon fill="#A0CF67" points="1071.402,314.096 1086.589,288.473 1088.248,314.216 1103.196,339.956 1154.684,340.568 
					1148.039,310.06 1137.625,306.844 1117.186,227.983 1105.09,232.966 1083.739,156.819 1068.083,205.21 1058.83,203.788 
					1045.066,260.236 1033.523,266.05 1014.269,340.568 1065.565,340.568 				"/>
				<path d="M1083.739,156.819l21.352,76.146l12.096-4.982l20.439,78.86l10.413,3.216l6.646,30.509l-51.488-0.612l-14.948-25.74
					l-1.658-25.743l-15.188,25.623l-5.837,26.473h-51.296l19.254-74.519l11.543-5.813l13.764-56.448l9.253,1.422L1083.739,156.819
					 M1084.267,130.111l-7.873,24.332l-13.633,42.139l-2.759-0.424l-6.996-1.074l-1.676,6.875l-12.919,52.986l-8.36,4.21
					l-3.126,1.575l-0.875,3.389l-19.254,74.519l-2.493,9.649h9.967h51.296h6.203l1.335-6.057l5.57-25.264l1.818-3.068l0.053,0.813
					l0.116,1.812l0.912,1.569l14.948,25.74l2.201,3.79l4.382,0.052l51.488,0.612l9.698,0.115l-2.064-9.477l-6.646-30.509
					l-0.959-4.403l-4.306-1.33l-6.299-1.944l-19.359-74.692l-2.222-8.574l-8.19,3.373l-4.067,1.676l-19.007-67.786L1084.267,130.111
					L1084.267,130.111z"/>
			</g>
			<g>
				<polygon fill="#FFFFFF" points="1121.299,245.256 1116.775,227.983 1104.676,232.966 1083.322,156.819 1067.669,205.21 
					1058.416,203.788 1048.804,244.338 1059.821,242.054 1072.627,262.554 1091.841,248.459 1112.336,259.345 				"/>
			</g>
			<path fill="#BB8D0B" d="M821.999,194.621c-42.842,0-77.571,18.143-77.571,40.517v28.199c0,22.379,34.729,40.514,77.571,40.514
				s77.572-18.135,77.572-40.514v-28.199C899.571,212.764,864.84,194.621,821.999,194.621z M870.554,249.486
				c-12.514,6.539-30.213,10.285-48.556,10.285s-36.045-3.746-48.555-10.285c-1.768-0.921-3.363-1.896-4.787-2.896l0.591-0.433
				c1.592-1.096,3.367-2.16,5.296-3.172c12.226-6.385,29.529-10.053,47.455-10.053c17.93,0,35.23,3.668,47.46,10.053
				c2.146,1.122,4.104,2.319,5.828,3.55l0.052,0.055C873.917,247.59,872.321,248.565,870.554,249.486z"/>
			<path d="M821.999,306.624c-45.662,0-81.43-19.489-81.43-44.37v-28.202h7.719v28.202c0,19.867,33.756,36.651,73.711,36.651
				c39.957,0,73.713-16.784,73.713-36.651v-28.202h7.719v28.202C903.43,287.135,867.661,306.624,821.999,306.624z"/>
			<path d="M769.391,245.79c-5.591-3.96-8.462-8.356-8.462-11.867c0-4.417,4.539-10.239,13.329-14.828
				c12.511-6.535,30.21-10.284,48.553-10.284c18.344,0,36.044,3.749,48.558,10.284c8.789,4.589,13.327,10.411,13.327,14.828
				c0,3.53-2.905,7.958-8.553,11.939c0,0-3.724-2.494-5.87-3.615c-12.232-6.387-29.53-10.053-47.462-10.053
				c-17.927,0-35.226,3.666-47.455,10.053C773.429,243.253,769.391,245.79,769.391,245.79z"/>
			<path d="M821.999,278.418c-45.662,0-81.43-19.488-81.43-44.366c0-24.881,35.768-44.37,81.43-44.37
				c45.663,0,81.432,19.489,81.432,44.37C903.43,258.93,867.661,278.418,821.999,278.418z M821.999,197.4
				c-39.956,0-73.711,16.784-73.711,36.651c0,19.865,33.756,36.647,73.711,36.647c39.957,0,73.713-16.782,73.713-36.647
				C895.711,214.185,861.955,197.4,821.999,197.4z M821.999,262.545c-18.948,0-37.297-3.909-50.342-10.725
				c-9.644-5.035-15.402-11.855-15.402-18.246s5.758-13.212,15.404-18.245c13.041-6.815,31.39-10.725,50.34-10.725
				c18.947,0,37.296,3.909,50.343,10.726c9.644,5.031,15.402,11.852,15.402,18.244c0,6.392-5.758,13.213-15.404,18.247
				C859.292,258.636,840.943,262.545,821.999,262.545z M821.999,212.323c-17.746,0-34.792,3.59-46.767,9.849
				c-8.26,4.311-11.258,9.181-11.258,11.402s2.998,7.092,11.257,11.403c11.979,6.259,29.025,9.849,46.769,9.849
				c17.741,0,34.787-3.59,46.769-9.848c8.26-4.312,11.258-9.182,11.258-11.404s-2.998-7.093-11.256-11.401
				C856.788,215.913,839.741,212.323,821.999,212.323z"/>
			<path d="M873.044,248.59c-1.597-1.14-3.406-2.242-5.377-3.274c-11.698-6.104-28.346-9.605-45.668-9.605
				c-17.323,0-33.969,3.502-45.669,9.608c-1.782,0.936-3.43,1.923-4.888,2.931l-4.388-6.352c1.713-1.184,3.63-2.334,5.695-3.418
				c12.776-6.667,30.724-10.488,49.25-10.488c18.525,0,36.474,3.821,49.245,10.483c2.29,1.2,4.402,2.488,6.286,3.834L873.044,248.59
				z"/>
			<g>
				<path fill="#A0CF67" d="M515.856,281.819c5.947-6.348,88.844-94.302,102.16-105.736c6.748-5.66,13.695-11.123,20.932-16.342
					c7.269-5.176,14.734-10.188,22.919-14.571c-3.335,8.663-7.391,16.683-11.65,24.536c-4.287,7.828-8.86,15.393-13.637,22.773
					c-9.725,14.63-86.419,107.499-91.99,114.183L515.856,281.819z"/>
				<path fill="#A0CF67" d="M661.867,145.17c-3.335,8.663-7.391,16.683-11.65,24.536c-4.287,7.828-8.86,15.393-13.637,22.773
					c-9.725,14.63-86.419,107.499-91.99,114.183l-28.733-24.843c5.947-6.348,88.844-94.302,102.16-105.736
					c6.748-5.66,13.695-11.123,20.932-16.342C646.217,154.565,653.682,149.554,661.867,145.17 M681.424,123.021l-24.416,13.076
					c-9.24,4.949-17.333,10.491-24.03,15.261l-0.024,0.018l-0.025,0.018c-7.156,5.161-14.198,10.658-21.526,16.805l-0.046,0.039
					l-0.045,0.038c-14.297,12.276-102.099,105.583-102.966,106.508l-7.323,7.817l8.103,7.006l28.733,24.842l7.928,6.854l6.71-8.05
					c0.798-0.958,82.189-99.33,92.656-115.075l0.035-0.052l0.034-0.053c5.236-8.09,9.824-15.752,14.024-23.423
					c3.934-7.253,8.444-15.954,12.228-25.781L681.424,123.021L681.424,123.021z"/>
			</g>
			
				<rect x="494.143" y="291.328" transform="matrix(0.7492 0.6623 -0.6623 0.7492 330.0365 -273.5215)" width="64.112" height="15.438"/>
			<g>
				<path fill="#FFFFFF" d="M529.385,296.573l133.264-152.376c-7.998,4.314-10.646,5.562-17.771,10.642
					c-7.243,5.214-14.18,10.674-20.929,16.336c-13.325,11.438-65.323,69.967-71.032,76.529
					c-5.639,6.625-11.336,13.201-17.131,19.697c-5.761,6.518-15.242,9.744-21.192,16.091L529.385,296.573z"/>
			</g>
			<path d="M646.771,162.863c-3.972,7.241-8.325,14.512-13.306,22.222c-9.225,13.825-58.774,70.331-66.503,78.923
				c-6.475,7.054-12.211,13.439-17.507,19.49c-3.691,4.173-5.94,8.965-8.115,13.598c-0.422,0.898-0.837,1.784-1.256,2.646
				l-16.074-14.203c0.802-0.52,1.628-1.04,2.465-1.567c4.335-2.731,8.817-5.557,12.48-9.707
				c5.427-6.082,11.062-12.557,17.227-19.794c7.622-8.764,57.777-65.004,70.175-75.68
				C633.389,172.905,640.076,167.688,646.771,162.863 M665.21,142.003c-8.187,4.371-15.652,9.386-22.917,14.572
				c-7.238,5.217-14.186,10.684-20.928,16.328c-13.326,11.447-65.327,69.969-71.035,76.534c-5.647,6.63-11.342,13.196-17.134,19.688
				c-5.757,6.521-15.24,9.758-21.193,16.104l29.863,26.387c5.569-6.679,7.61-16.491,13.372-23.005
				c5.73-6.547,11.558-13.008,17.438-19.413c5.823-6.47,57.519-65.264,67.245-79.88c4.775-7.391,9.352-14.961,13.641-22.783
				C657.811,158.681,661.866,150.665,665.21,142.003L665.21,142.003z"/>
			<path fill="#A0CF67" d="M261.362,251.38c1.855-9.288,4.731-16.251-2.917-22.77c-4.064-3.462-8.643-3.866-12.875-5.936
				c-10.383-5.077-10.006-18.548-2.191-25.666c3.736-3.405,9.737-5.283,13.297-8.78c5.875-5.77,1.303-10.942,8.72-15.011
				c15.385-8.429,38.388,5.439,31.715,17.737c-3.414,6.294-5.172,4.974-6.38,3.366c-1.319-1.748,2.031-7.248,0-10.15
				c-2.032-2.9-8.14-2.445-10.808,3.382c-2.774,6.061-0.188,8.089,2.208,12.793c2.031,3.987,0.839,8.766,3.45,12.324
				c3.108,4.222,7.02,3.632,8.975,8.534c1.989,4.985,1.846,13.194-0.1,17.991c-0.835,2.058-4.057,4.062-4.985,6.062
				c-1.309,2.82-1.278,5.997-2.116,9.038c-1.963,7.093-3.536,12.583-12.537,11.588c-5.272-0.583-9.217-4.525-12.877-8.123
				L261.362,251.38z"/>
			<g>
				<path fill="#BB8D0B" d="M317.242,327.342c-18.801,14.773-19.176,14.959-46.654-3.471
					c-29.446-19.746-24.816-69.295-24.816-69.295c8.838-2.896,19.524-4.599,31.059-4.599c11.534,0,22.221,1.703,31.059,4.599
					c0,0,1.503,29.942,4.75,32.258c3.246,2.316,11.339,0.158,11.339,0.158s19.298-8.146,20.665-47.623
					c1.515-43.743,25.057-79.313,70.892-79.313l-0.215,8.169c0,0-50.496,4.264-51.783,66.982
					C362.454,288.085,343.147,306.992,317.242,327.342z"/>
				<path d="M298.036,341.947c-7.426,0-15.302-5.281-29.599-14.871c-30.996-20.785-26.707-70.742-26.509-72.859l0.235-2.521
					l2.406-0.788c9.566-3.134,20.722-4.79,32.261-4.79c11.54,0,22.695,1.656,32.26,4.79l2.52,0.826l0.133,2.648
					c0.595,11.849,2.073,26.006,3.496,29.448c0.346,0.1,0.974,0.216,2.022,0.216c2.193,0,4.554-0.506,5.401-0.705
					c1.857-0.993,16.945-10.103,18.123-44.106c0.814-23.501,7.626-43.688,19.701-58.378c13.262-16.134,32.297-24.661,55.048-24.661
					h3.962l-0.409,15.584l-3.443,0.29c-1.912,0.171-47.052,4.878-48.249,63.216c-1.111,54.199-21.384,74.362-47.771,95.091
					C310.443,337.593,304.9,341.947,298.036,341.947z M249.467,257.475c-0.409,10.077-0.239,47.426,23.27,63.191
					c13.657,9.159,20.438,13.562,25.299,13.562c4.025,0,8.065-3.042,16.821-9.922c25.586-20.099,43.778-38.261,44.822-89.179
					c0.385-18.779,5.56-44.449,28.027-60.099c9.528-6.637,18.943-9.189,23.842-10.132l0.023-0.874
					c-29.993,1.636-61.221,22.105-63.07,75.479c-1.436,41.464-22.141,50.673-23.021,51.045l-0.506,0.174
					c-0.16,0.042-3.959,1.044-7.71,1.044c-2.932,0-5.177-0.585-6.865-1.79c-1.384-0.986-4.574-3.259-6.219-32.505
					c-8.226-2.382-17.618-3.634-27.347-3.634C267.096,253.837,257.697,255.091,249.467,257.475z"/>
			</g>
			<polygon points="385.73,167.021 391.199,177.956 401.169,171.847 418.215,167.665 417.894,159.302 400.526,160.91 			"/>
		</g>
		<g>
			<polygon points="240.255,445.495 233.886,439.128 246.656,426.356 259.25,438.952 252.881,445.319 246.656,439.093 			"/>
			<polygon points="281.476,445.495 275.107,439.128 287.876,426.355 300.469,438.952 294.101,445.319 287.876,439.094 			"/>
			<polygon points="322.698,445.495 316.329,439.128 329.099,426.355 341.69,438.952 335.321,445.319 329.098,439.094 			"/>
			<polygon points="363.917,445.495 357.549,439.128 370.32,426.356 382.913,438.952 376.543,445.319 370.319,439.093 			"/>
			<polygon points="405.138,445.496 398.77,439.127 411.543,426.356 424.134,438.952 417.765,445.319 411.541,439.093 			"/>
			<polygon points="446.361,445.495 439.992,439.128 452.761,426.355 465.354,438.952 458.986,445.319 452.761,439.094 			"/>
			<polygon points="487.582,445.495 481.213,439.128 493.982,426.356 506.576,438.952 500.208,445.319 493.982,439.093 			"/>
			<polygon points="528.804,445.495 522.435,439.128 535.205,426.355 547.797,438.952 541.428,445.319 535.204,439.094 			"/>
			<polygon points="570.025,445.495 563.656,439.128 576.426,426.355 589.017,438.952 582.648,445.319 576.425,439.094 			"/>
			<polygon points="611.245,445.495 604.877,439.128 617.647,426.355 630.239,438.952 623.87,445.319 617.646,439.094 			"/>
			<polygon points="652.466,445.496 646.099,439.127 658.871,426.355 671.461,438.952 665.091,445.319 658.869,439.094 			"/>
			<polygon points="693.688,445.495 687.318,439.128 700.086,426.355 712.681,438.952 706.312,445.319 700.087,439.094 			"/>
			<polygon points="734.908,445.495 728.539,439.128 741.307,426.356 753.901,438.952 747.533,445.319 741.308,439.093 			"/>
			<polygon points="776.128,445.495 769.759,439.128 782.529,426.355 795.123,438.952 788.754,445.319 782.529,439.094 			"/>
			<polygon points="817.352,445.495 810.983,439.128 823.75,426.355 836.343,438.952 829.974,445.319 823.75,439.094 			"/>
			<polygon points="858.571,445.495 852.203,439.128 864.974,426.355 877.566,438.952 871.197,445.319 864.973,439.094 			"/>
			<polygon points="899.793,445.495 893.424,439.128 906.193,426.355 918.786,438.952 912.417,445.319 906.193,439.094 			"/>
			<polygon points="941.013,445.495 934.645,439.128 947.415,426.355 960.007,438.952 953.638,445.319 947.414,439.094 			"/>
			<polygon points="1023.454,445.495 1017.086,439.128 1029.856,426.356 1042.45,438.952 1036.082,445.319 1029.856,439.093 			"/>
			<polygon points="982.235,445.495 975.866,439.128 988.635,426.355 1001.228,438.952 994.859,445.319 988.635,439.094 			"/>
			<polygon points="1064.678,445.495 1058.31,439.128 1071.081,426.355 1083.67,438.953 1077.3,445.318 1071.079,439.094 			"/>
			<polygon points="1105.896,445.495 1099.528,439.128 1112.299,426.356 1124.894,438.952 1118.525,445.319 1112.299,439.093 			"/>
			<polygon points="1147.119,445.495 1140.75,439.128 1153.518,426.356 1166.113,438.952 1159.745,445.319 1153.519,439.093 			"/>
		</g>
	</g>
</g>
<g id="reservoir_dogs">
</g>
<g id="akira">
</g>
</svg>
